G04 #@! TF.GenerationSoftware,KiCad,Pcbnew,(5.1.6)-1*
G04 #@! TF.CreationDate,2020-07-30T14:32:44-07:00*
G04 #@! TF.ProjectId,keyboard_test6,6b657962-6f61-4726-945f-74657374362e,rev?*
G04 #@! TF.SameCoordinates,Original*
G04 #@! TF.FileFunction,Soldermask,Top*
G04 #@! TF.FilePolarity,Negative*
%FSLAX46Y46*%
G04 Gerber Fmt 4.6, Leading zero omitted, Abs format (unit mm)*
G04 Created by KiCad (PCBNEW (5.1.6)-1) date 2020-07-30 14:32:44*
%MOMM*%
%LPD*%
G01*
G04 APERTURE LIST*
%ADD10C,0.650000*%
%ADD11C,1.600000*%
%ADD12R,1.600000X1.600000*%
%ADD13O,13.600000X5.200000*%
%ADD14C,6.100000*%
%ADD15C,3.987800*%
%ADD16C,3.048000*%
%ADD17C,1.750000*%
%ADD18C,3.000000*%
G04 APERTURE END LIST*
D10*
X165752000Y-143000000D03*
X159972000Y-143000000D03*
D11*
X339938000Y-141212000D03*
D12*
X347738000Y-141212000D03*
D11*
X171488000Y-141212000D03*
D12*
X179288000Y-141212000D03*
D11*
X187538000Y-141212000D03*
D12*
X195338000Y-141212000D03*
D11*
X206588000Y-141212000D03*
D12*
X214388000Y-141212000D03*
D11*
X225638000Y-141212000D03*
D12*
X233438000Y-141212000D03*
D11*
X244688000Y-141212000D03*
D12*
X252488000Y-141212000D03*
D11*
X263738000Y-141212000D03*
D12*
X271538000Y-141212000D03*
D11*
X282788000Y-141212000D03*
D12*
X290588000Y-141212000D03*
D11*
X301838000Y-141212000D03*
D12*
X309638000Y-141212000D03*
D11*
X320888000Y-141212000D03*
D12*
X328688000Y-141212000D03*
D11*
X182775000Y-179312000D03*
D12*
X190575000Y-179312000D03*
D11*
X342319000Y-217412000D03*
D12*
X350119000Y-217412000D03*
D11*
X199444000Y-217412000D03*
D12*
X207244000Y-217412000D03*
D11*
X268500000Y-198362000D03*
D12*
X276300000Y-198362000D03*
D11*
X232781000Y-217412000D03*
D12*
X240581000Y-217412000D03*
D11*
X406612000Y-141212000D03*
D12*
X414412000Y-141212000D03*
D11*
X411375000Y-160262000D03*
D12*
X419175000Y-160262000D03*
D11*
X230400000Y-198362000D03*
D12*
X238200000Y-198362000D03*
D11*
X156581000Y-179312000D03*
D12*
X164381000Y-179312000D03*
D11*
X368512000Y-160262000D03*
D12*
X376312000Y-160262000D03*
D11*
X325650000Y-198362000D03*
D12*
X333450000Y-198362000D03*
D11*
X266119000Y-217412000D03*
D12*
X273919000Y-217412000D03*
D11*
X413756000Y-217412000D03*
D12*
X421556000Y-217412000D03*
D11*
X151819000Y-217412000D03*
D12*
X159619000Y-217412000D03*
D11*
X220875000Y-179312000D03*
D12*
X228675000Y-179312000D03*
D11*
X344700000Y-198362000D03*
D12*
X352500000Y-198362000D03*
D11*
X216112000Y-160262000D03*
D12*
X223912000Y-160262000D03*
D11*
X404231000Y-179312000D03*
D12*
X412031000Y-179312000D03*
D11*
X378038000Y-141212000D03*
D12*
X385838000Y-141212000D03*
D11*
X160970000Y-147630000D03*
D12*
X160970000Y-155430000D03*
D11*
X239925000Y-179312000D03*
D12*
X247725000Y-179312000D03*
D11*
X266975000Y-177312000D03*
D12*
X274775000Y-177312000D03*
X291780000Y-178872000D03*
D11*
X291780000Y-186672000D03*
X311362000Y-160262000D03*
D12*
X319162000Y-160262000D03*
D11*
X297075000Y-179312000D03*
D12*
X304875000Y-179312000D03*
D11*
X316125000Y-179312000D03*
D12*
X323925000Y-179312000D03*
D11*
X335175000Y-179312000D03*
D12*
X342975000Y-179312000D03*
D11*
X306600000Y-198362000D03*
D12*
X314400000Y-198362000D03*
D11*
X389944000Y-217412000D03*
D12*
X397744000Y-217412000D03*
D11*
X358988000Y-141212000D03*
D12*
X366788000Y-141212000D03*
D11*
X287550000Y-198362000D03*
D12*
X295350000Y-198362000D03*
D11*
X330412000Y-160262000D03*
D12*
X338212000Y-160262000D03*
D11*
X383968000Y-168362000D03*
D12*
X383968000Y-176162000D03*
D11*
X349462000Y-160262000D03*
D12*
X357262000Y-160262000D03*
D11*
X178012000Y-160262000D03*
D12*
X185812000Y-160262000D03*
D11*
X373275000Y-179312000D03*
D12*
X381075000Y-179312000D03*
D11*
X235162000Y-160262000D03*
D12*
X242962000Y-160262000D03*
D11*
X201825000Y-179312000D03*
D12*
X209625000Y-179312000D03*
D11*
X354225000Y-179312000D03*
D12*
X362025000Y-179312000D03*
D11*
X399800000Y-198362000D03*
D12*
X407600000Y-198362000D03*
D11*
X161344000Y-198362000D03*
D12*
X169144000Y-198362000D03*
D11*
X363750000Y-198362000D03*
D12*
X371550000Y-198362000D03*
D11*
X304219000Y-217412000D03*
D12*
X312019000Y-217412000D03*
D11*
X254212000Y-160262000D03*
D12*
X262012000Y-160262000D03*
D11*
X147500000Y-162862000D03*
D12*
X147500000Y-170662000D03*
D11*
X292312000Y-160262000D03*
D12*
X300112000Y-160262000D03*
D11*
X249450000Y-198362000D03*
D12*
X257250000Y-198362000D03*
D11*
X197062000Y-160262000D03*
D12*
X204862000Y-160262000D03*
D11*
X366131000Y-217412000D03*
D12*
X373931000Y-217412000D03*
D11*
X175631000Y-217412000D03*
D12*
X183431000Y-217412000D03*
D11*
X211350000Y-198362000D03*
D12*
X219150000Y-198362000D03*
D11*
X273262000Y-160262000D03*
D12*
X281062000Y-160262000D03*
D11*
X192300000Y-198362000D03*
D12*
X200100000Y-198362000D03*
D13*
X144651000Y-195012000D03*
D14*
X334690000Y-224112000D03*
X169410000Y-166412000D03*
X272405000Y-185512000D03*
X404240000Y-166762000D03*
D13*
X430000000Y-195015000D03*
D15*
X177182000Y-213117000D03*
X153306000Y-213117000D03*
D16*
X177182000Y-197877000D03*
X153306000Y-197877000D03*
D17*
X160164000Y-204862000D03*
X170324000Y-204862000D03*
D18*
X169054000Y-207402000D03*
D15*
X165244000Y-204862000D03*
D18*
X162704000Y-209942000D03*
D15*
X422450000Y-155967000D03*
X398574000Y-155967000D03*
D16*
X422450000Y-140727000D03*
X398574000Y-140727000D03*
D17*
X405432000Y-147712000D03*
X415592000Y-147712000D03*
D18*
X414322000Y-150252000D03*
D15*
X410512000Y-147712000D03*
D18*
X407972000Y-152792000D03*
D15*
X420069000Y-194067000D03*
X396193000Y-194067000D03*
D16*
X420069000Y-178827000D03*
X396193000Y-178827000D03*
D17*
X403051000Y-185812000D03*
X413211000Y-185812000D03*
D18*
X411941000Y-188352000D03*
D15*
X408131000Y-185812000D03*
D18*
X405591000Y-190892000D03*
D15*
X415307000Y-213117000D03*
X391431000Y-213117000D03*
D16*
X415307000Y-197877000D03*
X391431000Y-197877000D03*
D17*
X398289000Y-204862000D03*
X408449000Y-204862000D03*
D18*
X407179000Y-207402000D03*
D15*
X403369000Y-204862000D03*
D18*
X400829000Y-209942000D03*
D15*
X248619000Y-215657000D03*
X224743000Y-215657000D03*
D16*
X248619000Y-230897000D03*
X224743000Y-230897000D03*
D17*
X231601000Y-223912000D03*
X241761000Y-223912000D03*
D18*
X240491000Y-226452000D03*
D15*
X236681000Y-223912000D03*
D18*
X234141000Y-228992000D03*
X305579000Y-228992000D03*
D15*
X308119000Y-223912000D03*
D18*
X311929000Y-226452000D03*
D17*
X313199000Y-223912000D03*
X303039000Y-223912000D03*
D16*
X296181000Y-230897000D03*
X320057000Y-230897000D03*
D15*
X296181000Y-215657000D03*
X320057000Y-215657000D03*
D17*
X412576000Y-223912000D03*
X422736000Y-223912000D03*
D18*
X421466000Y-226452000D03*
D15*
X417656000Y-223912000D03*
D18*
X415116000Y-228992000D03*
D17*
X155401000Y-185812000D03*
X165561000Y-185812000D03*
D18*
X164291000Y-188352000D03*
D15*
X160481000Y-185812000D03*
D18*
X157941000Y-190892000D03*
D17*
X410195000Y-166762000D03*
X420355000Y-166762000D03*
D18*
X419085000Y-169302000D03*
D15*
X415275000Y-166762000D03*
D18*
X412735000Y-171842000D03*
D17*
X153338000Y-142632000D03*
X153338000Y-152792000D03*
D18*
X150798000Y-151522000D03*
D15*
X153338000Y-147712000D03*
D18*
X148258000Y-145172000D03*
D17*
X167308000Y-147712000D03*
X177468000Y-147712000D03*
D18*
X176198000Y-150252000D03*
D15*
X172388000Y-147712000D03*
D18*
X169848000Y-152792000D03*
D17*
X186358000Y-147712000D03*
X196518000Y-147712000D03*
D18*
X195248000Y-150252000D03*
D15*
X191438000Y-147712000D03*
D18*
X188898000Y-152792000D03*
D17*
X205408000Y-147712000D03*
X215568000Y-147712000D03*
D18*
X214298000Y-150252000D03*
D15*
X210488000Y-147712000D03*
D18*
X207948000Y-152792000D03*
D17*
X224458000Y-147712000D03*
X234618000Y-147712000D03*
D18*
X233348000Y-150252000D03*
D15*
X229538000Y-147712000D03*
D18*
X226998000Y-152792000D03*
D17*
X243508000Y-147712000D03*
X253668000Y-147712000D03*
D18*
X252398000Y-150252000D03*
D15*
X248588000Y-147712000D03*
D18*
X246048000Y-152792000D03*
D17*
X262558000Y-147712000D03*
X272718000Y-147712000D03*
D18*
X271448000Y-150252000D03*
D15*
X267638000Y-147712000D03*
D18*
X265098000Y-152792000D03*
D17*
X281608000Y-147712000D03*
X291768000Y-147712000D03*
D18*
X290498000Y-150252000D03*
D15*
X286688000Y-147712000D03*
D18*
X284148000Y-152792000D03*
D17*
X300658000Y-147712000D03*
X310818000Y-147712000D03*
D18*
X309548000Y-150252000D03*
D15*
X305738000Y-147712000D03*
D18*
X303198000Y-152792000D03*
D17*
X319708000Y-147712000D03*
X329868000Y-147712000D03*
D18*
X328598000Y-150252000D03*
D15*
X324788000Y-147712000D03*
D18*
X322248000Y-152792000D03*
D17*
X338758000Y-147712000D03*
X348918000Y-147712000D03*
D18*
X347648000Y-150252000D03*
D15*
X343838000Y-147712000D03*
D18*
X341298000Y-152792000D03*
D17*
X357808000Y-147712000D03*
X367968000Y-147712000D03*
D18*
X366698000Y-150252000D03*
D15*
X362888000Y-147712000D03*
D18*
X360348000Y-152792000D03*
D17*
X376858000Y-147712000D03*
X387018000Y-147712000D03*
D18*
X385748000Y-150252000D03*
D15*
X381938000Y-147712000D03*
D18*
X379398000Y-152792000D03*
D17*
X176832000Y-166762000D03*
X186992000Y-166762000D03*
D18*
X185722000Y-169302000D03*
D15*
X181912000Y-166762000D03*
D18*
X179372000Y-171842000D03*
D17*
X195882000Y-166762000D03*
X206042000Y-166762000D03*
D18*
X204772000Y-169302000D03*
D15*
X200962000Y-166762000D03*
D18*
X198422000Y-171842000D03*
D17*
X214932000Y-166762000D03*
X225092000Y-166762000D03*
D18*
X223822000Y-169302000D03*
D15*
X220012000Y-166762000D03*
D18*
X217472000Y-171842000D03*
D17*
X233982000Y-166762000D03*
X244142000Y-166762000D03*
D18*
X242872000Y-169302000D03*
D15*
X239062000Y-166762000D03*
D18*
X236522000Y-171842000D03*
D17*
X253032000Y-166762000D03*
X263192000Y-166762000D03*
D18*
X261922000Y-169302000D03*
D15*
X258112000Y-166762000D03*
D18*
X255572000Y-171842000D03*
D17*
X272082000Y-166762000D03*
X282242000Y-166762000D03*
D18*
X280972000Y-169302000D03*
D15*
X277162000Y-166762000D03*
D18*
X274622000Y-171842000D03*
D17*
X291132000Y-166762000D03*
X301292000Y-166762000D03*
D18*
X300022000Y-169302000D03*
D15*
X296212000Y-166762000D03*
D18*
X293672000Y-171842000D03*
D17*
X310182000Y-166762000D03*
X320342000Y-166762000D03*
D18*
X319072000Y-169302000D03*
D15*
X315262000Y-166762000D03*
D18*
X312722000Y-171842000D03*
D17*
X329232000Y-166762000D03*
X339392000Y-166762000D03*
D18*
X338122000Y-169302000D03*
D15*
X334312000Y-166762000D03*
D18*
X331772000Y-171842000D03*
D17*
X348282000Y-166762000D03*
X358442000Y-166762000D03*
D18*
X357172000Y-169302000D03*
D15*
X353362000Y-166762000D03*
D18*
X350822000Y-171842000D03*
D17*
X367332000Y-166762000D03*
X377492000Y-166762000D03*
D18*
X376222000Y-169302000D03*
D15*
X372412000Y-166762000D03*
D18*
X369872000Y-171842000D03*
D17*
X391462000Y-161682000D03*
X391462000Y-171842000D03*
D18*
X388922000Y-170572000D03*
D15*
X391462000Y-166762000D03*
D18*
X386382000Y-164222000D03*
D17*
X181595000Y-185812000D03*
X191755000Y-185812000D03*
D18*
X190485000Y-188352000D03*
D15*
X186675000Y-185812000D03*
D18*
X184135000Y-190892000D03*
D17*
X200645000Y-185812000D03*
X210805000Y-185812000D03*
D18*
X209535000Y-188352000D03*
D15*
X205725000Y-185812000D03*
D18*
X203185000Y-190892000D03*
D17*
X219695000Y-185812000D03*
X229855000Y-185812000D03*
D18*
X228585000Y-188352000D03*
D15*
X224775000Y-185812000D03*
D18*
X222235000Y-190892000D03*
D17*
X238745000Y-185812000D03*
X248905000Y-185812000D03*
D18*
X247635000Y-188352000D03*
D15*
X243825000Y-185812000D03*
D18*
X241285000Y-190892000D03*
D17*
X262875000Y-180732000D03*
X262875000Y-190892000D03*
D18*
X260335000Y-189622000D03*
D15*
X262875000Y-185812000D03*
D18*
X257795000Y-183272000D03*
D17*
X281925000Y-190892000D03*
X281925000Y-180732000D03*
D18*
X284465000Y-182002000D03*
D15*
X281925000Y-185812000D03*
D18*
X287005000Y-188352000D03*
D17*
X295895000Y-185812000D03*
X306055000Y-185812000D03*
D18*
X304785000Y-188352000D03*
D15*
X300975000Y-185812000D03*
D18*
X298435000Y-190892000D03*
D17*
X314945000Y-185812000D03*
X325105000Y-185812000D03*
D18*
X323835000Y-188352000D03*
D15*
X320025000Y-185812000D03*
D18*
X317485000Y-190892000D03*
D17*
X333995000Y-185812000D03*
X344155000Y-185812000D03*
D18*
X342885000Y-188352000D03*
D15*
X339075000Y-185812000D03*
D18*
X336535000Y-190892000D03*
D17*
X353045000Y-185812000D03*
X363205000Y-185812000D03*
D18*
X361935000Y-188352000D03*
D15*
X358125000Y-185812000D03*
D18*
X355585000Y-190892000D03*
D17*
X372095000Y-185812000D03*
X382255000Y-185812000D03*
D18*
X380985000Y-188352000D03*
D15*
X377175000Y-185812000D03*
D18*
X374635000Y-190892000D03*
D17*
X191120000Y-204862000D03*
X201280000Y-204862000D03*
D18*
X200010000Y-207402000D03*
D15*
X196200000Y-204862000D03*
D18*
X193660000Y-209942000D03*
D17*
X210170000Y-204862000D03*
X220330000Y-204862000D03*
D18*
X219060000Y-207402000D03*
D15*
X215250000Y-204862000D03*
D18*
X212710000Y-209942000D03*
D17*
X229220000Y-204862000D03*
X239380000Y-204862000D03*
D18*
X238110000Y-207402000D03*
D15*
X234300000Y-204862000D03*
D18*
X231760000Y-209942000D03*
D17*
X248270000Y-204862000D03*
X258430000Y-204862000D03*
D18*
X257160000Y-207402000D03*
D15*
X253350000Y-204862000D03*
D18*
X250810000Y-209942000D03*
D17*
X267320000Y-204862000D03*
X277480000Y-204862000D03*
D18*
X276210000Y-207402000D03*
D15*
X272400000Y-204862000D03*
D18*
X269860000Y-209942000D03*
D17*
X286370000Y-204862000D03*
X296530000Y-204862000D03*
D18*
X295260000Y-207402000D03*
D15*
X291450000Y-204862000D03*
D18*
X288910000Y-209942000D03*
D17*
X305420000Y-204862000D03*
X315580000Y-204862000D03*
D18*
X314310000Y-207402000D03*
D15*
X310500000Y-204862000D03*
D18*
X307960000Y-209942000D03*
D17*
X324470000Y-204862000D03*
X334630000Y-204862000D03*
D18*
X333360000Y-207402000D03*
D15*
X329550000Y-204862000D03*
D18*
X327010000Y-209942000D03*
D17*
X343520000Y-204862000D03*
X353680000Y-204862000D03*
D18*
X352410000Y-207402000D03*
D15*
X348600000Y-204862000D03*
D18*
X346060000Y-209942000D03*
X365110000Y-209942000D03*
D15*
X367650000Y-204862000D03*
D18*
X371460000Y-207402000D03*
D17*
X372730000Y-204862000D03*
X362570000Y-204862000D03*
D18*
X176991000Y-228992000D03*
D15*
X179531000Y-223912000D03*
D18*
X183341000Y-226452000D03*
D17*
X184611000Y-223912000D03*
X174451000Y-223912000D03*
D18*
X200804000Y-228992000D03*
D15*
X203344000Y-223912000D03*
D18*
X207154000Y-226452000D03*
D17*
X208424000Y-223912000D03*
X198264000Y-223912000D03*
X264939000Y-223912000D03*
X275099000Y-223912000D03*
D18*
X273829000Y-226452000D03*
D15*
X270019000Y-223912000D03*
D18*
X267479000Y-228992000D03*
D17*
X341139000Y-223912000D03*
X351299000Y-223912000D03*
D18*
X350029000Y-226452000D03*
D15*
X346219000Y-223912000D03*
D18*
X343679000Y-228992000D03*
D17*
X364951000Y-223912000D03*
X375111000Y-223912000D03*
D18*
X373841000Y-226452000D03*
D15*
X370031000Y-223912000D03*
D18*
X367491000Y-228992000D03*
D17*
X388764000Y-223912000D03*
X398924000Y-223912000D03*
D18*
X397654000Y-226452000D03*
D15*
X393844000Y-223912000D03*
D18*
X391304000Y-228992000D03*
X153179000Y-228992000D03*
D15*
X155719000Y-223912000D03*
D18*
X159529000Y-226452000D03*
D17*
X160799000Y-223912000D03*
X150639000Y-223912000D03*
D18*
X153020000Y-164222000D03*
D15*
X158100000Y-166762000D03*
D18*
X155560000Y-170572000D03*
D17*
X158100000Y-171842000D03*
X158100000Y-161682000D03*
M02*
