G04 #@! TF.GenerationSoftware,KiCad,Pcbnew,(5.1.6)-1*
G04 #@! TF.CreationDate,2020-07-30T14:32:44-07:00*
G04 #@! TF.ProjectId,keyboard_test6,6b657962-6f61-4726-945f-74657374362e,rev?*
G04 #@! TF.SameCoordinates,Original*
G04 #@! TF.FileFunction,Legend,Top*
G04 #@! TF.FilePolarity,Positive*
%FSLAX46Y46*%
G04 Gerber Fmt 4.6, Leading zero omitted, Abs format (unit mm)*
G04 Created by KiCad (PCBNEW (5.1.6)-1) date 2020-07-30 14:32:44*
%MOMM*%
%LPD*%
G01*
G04 APERTURE LIST*
%ADD10C,0.250000*%
%ADD11C,0.300000*%
G04 APERTURE END LIST*
D10*
X400471428Y-237389880D02*
X400471428Y-236389880D01*
X400852380Y-236389880D01*
X400947619Y-236437500D01*
X400995238Y-236485119D01*
X401042857Y-236580357D01*
X401042857Y-236723214D01*
X400995238Y-236818452D01*
X400947619Y-236866071D01*
X400852380Y-236913690D01*
X400471428Y-236913690D01*
X402042857Y-237294642D02*
X401995238Y-237342261D01*
X401852380Y-237389880D01*
X401757142Y-237389880D01*
X401614285Y-237342261D01*
X401519047Y-237247023D01*
X401471428Y-237151785D01*
X401423809Y-236961309D01*
X401423809Y-236818452D01*
X401471428Y-236627976D01*
X401519047Y-236532738D01*
X401614285Y-236437500D01*
X401757142Y-236389880D01*
X401852380Y-236389880D01*
X401995238Y-236437500D01*
X402042857Y-236485119D01*
X402804761Y-236866071D02*
X402947619Y-236913690D01*
X402995238Y-236961309D01*
X403042857Y-237056547D01*
X403042857Y-237199404D01*
X402995238Y-237294642D01*
X402947619Y-237342261D01*
X402852380Y-237389880D01*
X402471428Y-237389880D01*
X402471428Y-236389880D01*
X402804761Y-236389880D01*
X402900000Y-236437500D01*
X402947619Y-236485119D01*
X402995238Y-236580357D01*
X402995238Y-236675595D01*
X402947619Y-236770833D01*
X402900000Y-236818452D01*
X402804761Y-236866071D01*
X402471428Y-236866071D01*
X404566666Y-236866071D02*
X404709523Y-236913690D01*
X404757142Y-236961309D01*
X404804761Y-237056547D01*
X404804761Y-237199404D01*
X404757142Y-237294642D01*
X404709523Y-237342261D01*
X404614285Y-237389880D01*
X404233333Y-237389880D01*
X404233333Y-236389880D01*
X404566666Y-236389880D01*
X404661904Y-236437500D01*
X404709523Y-236485119D01*
X404757142Y-236580357D01*
X404757142Y-236675595D01*
X404709523Y-236770833D01*
X404661904Y-236818452D01*
X404566666Y-236866071D01*
X404233333Y-236866071D01*
X405661904Y-236723214D02*
X405661904Y-237389880D01*
X405233333Y-236723214D02*
X405233333Y-237247023D01*
X405280952Y-237342261D01*
X405376190Y-237389880D01*
X405519047Y-237389880D01*
X405614285Y-237342261D01*
X405661904Y-237294642D01*
X406138095Y-237389880D02*
X406138095Y-236723214D01*
X406138095Y-236389880D02*
X406090476Y-236437500D01*
X406138095Y-236485119D01*
X406185714Y-236437500D01*
X406138095Y-236389880D01*
X406138095Y-236485119D01*
X406757142Y-237389880D02*
X406661904Y-237342261D01*
X406614285Y-237247023D01*
X406614285Y-236389880D01*
X407566666Y-237389880D02*
X407566666Y-236389880D01*
X407566666Y-237342261D02*
X407471428Y-237389880D01*
X407280952Y-237389880D01*
X407185714Y-237342261D01*
X407138095Y-237294642D01*
X407090476Y-237199404D01*
X407090476Y-236913690D01*
X407138095Y-236818452D01*
X407185714Y-236770833D01*
X407280952Y-236723214D01*
X407471428Y-236723214D01*
X407566666Y-236770833D01*
X408423809Y-237342261D02*
X408328571Y-237389880D01*
X408138095Y-237389880D01*
X408042857Y-237342261D01*
X407995238Y-237247023D01*
X407995238Y-236866071D01*
X408042857Y-236770833D01*
X408138095Y-236723214D01*
X408328571Y-236723214D01*
X408423809Y-236770833D01*
X408471428Y-236866071D01*
X408471428Y-236961309D01*
X407995238Y-237056547D01*
X408900000Y-237389880D02*
X408900000Y-236723214D01*
X408900000Y-236913690D02*
X408947619Y-236818452D01*
X408995238Y-236770833D01*
X409090476Y-236723214D01*
X409185714Y-236723214D01*
X410280952Y-237389880D02*
X410280952Y-236389880D01*
X410280952Y-236770833D02*
X410376190Y-236723214D01*
X410566666Y-236723214D01*
X410661904Y-236770833D01*
X410709523Y-236818452D01*
X410757142Y-236913690D01*
X410757142Y-237199404D01*
X410709523Y-237294642D01*
X410661904Y-237342261D01*
X410566666Y-237389880D01*
X410376190Y-237389880D01*
X410280952Y-237342261D01*
X411090476Y-236723214D02*
X411328571Y-237389880D01*
X411566666Y-236723214D02*
X411328571Y-237389880D01*
X411233333Y-237627976D01*
X411185714Y-237675595D01*
X411090476Y-237723214D01*
X412709523Y-237389880D02*
X412709523Y-236389880D01*
X413042857Y-237104166D01*
X413376190Y-236389880D01*
X413376190Y-237389880D01*
X413852380Y-237389880D02*
X413852380Y-236723214D01*
X413852380Y-236389880D02*
X413804761Y-236437500D01*
X413852380Y-236485119D01*
X413900000Y-236437500D01*
X413852380Y-236389880D01*
X413852380Y-236485119D01*
X414280952Y-237342261D02*
X414376190Y-237389880D01*
X414566666Y-237389880D01*
X414661904Y-237342261D01*
X414709523Y-237247023D01*
X414709523Y-237199404D01*
X414661904Y-237104166D01*
X414566666Y-237056547D01*
X414423809Y-237056547D01*
X414328571Y-237008928D01*
X414280952Y-236913690D01*
X414280952Y-236866071D01*
X414328571Y-236770833D01*
X414423809Y-236723214D01*
X414566666Y-236723214D01*
X414661904Y-236770833D01*
X414995238Y-236723214D02*
X415376190Y-236723214D01*
X415138095Y-236389880D02*
X415138095Y-237247023D01*
X415185714Y-237342261D01*
X415280952Y-237389880D01*
X415376190Y-237389880D01*
X416090476Y-237342261D02*
X415995238Y-237389880D01*
X415804761Y-237389880D01*
X415709523Y-237342261D01*
X415661904Y-237247023D01*
X415661904Y-236866071D01*
X415709523Y-236770833D01*
X415804761Y-236723214D01*
X415995238Y-236723214D01*
X416090476Y-236770833D01*
X416138095Y-236866071D01*
X416138095Y-236961309D01*
X415661904Y-237056547D01*
X416566666Y-237389880D02*
X416566666Y-236723214D01*
X416566666Y-236913690D02*
X416614285Y-236818452D01*
X416661904Y-236770833D01*
X416757142Y-236723214D01*
X416852380Y-236723214D01*
X417185714Y-237389880D02*
X417185714Y-236389880D01*
X417757142Y-237389880D02*
X417328571Y-236818452D01*
X417757142Y-236389880D02*
X417185714Y-236961309D01*
X418566666Y-237342261D02*
X418471428Y-237389880D01*
X418280952Y-237389880D01*
X418185714Y-237342261D01*
X418138095Y-237247023D01*
X418138095Y-236866071D01*
X418185714Y-236770833D01*
X418280952Y-236723214D01*
X418471428Y-236723214D01*
X418566666Y-236770833D01*
X418614285Y-236866071D01*
X418614285Y-236961309D01*
X418138095Y-237056547D01*
X419423809Y-237342261D02*
X419328571Y-237389880D01*
X419138095Y-237389880D01*
X419042857Y-237342261D01*
X418995238Y-237247023D01*
X418995238Y-236866071D01*
X419042857Y-236770833D01*
X419138095Y-236723214D01*
X419328571Y-236723214D01*
X419423809Y-236770833D01*
X419471428Y-236866071D01*
X419471428Y-236961309D01*
X418995238Y-237056547D01*
X419900000Y-237389880D02*
X419900000Y-236389880D01*
X419900000Y-236770833D02*
X419995238Y-236723214D01*
X420185714Y-236723214D01*
X420280952Y-236770833D01*
X420328571Y-236818452D01*
X420376190Y-236913690D01*
X420376190Y-237199404D01*
X420328571Y-237294642D01*
X420280952Y-237342261D01*
X420185714Y-237389880D01*
X419995238Y-237389880D01*
X419900000Y-237342261D01*
X420757142Y-237342261D02*
X420852380Y-237389880D01*
X421042857Y-237389880D01*
X421138095Y-237342261D01*
X421185714Y-237247023D01*
X421185714Y-237199404D01*
X421138095Y-237104166D01*
X421042857Y-237056547D01*
X420900000Y-237056547D01*
X420804761Y-237008928D01*
X420757142Y-236913690D01*
X420757142Y-236866071D01*
X420804761Y-236770833D01*
X420900000Y-236723214D01*
X421042857Y-236723214D01*
X421138095Y-236770833D01*
X422376190Y-237008928D02*
X423138095Y-237008928D01*
X424376190Y-237389880D02*
X424376190Y-236723214D01*
X424376190Y-236818452D02*
X424423809Y-236770833D01*
X424519047Y-236723214D01*
X424661904Y-236723214D01*
X424757142Y-236770833D01*
X424804761Y-236866071D01*
X424804761Y-237389880D01*
X424804761Y-236866071D02*
X424852380Y-236770833D01*
X424947619Y-236723214D01*
X425090476Y-236723214D01*
X425185714Y-236770833D01*
X425233333Y-236866071D01*
X425233333Y-237389880D01*
X425709523Y-237389880D02*
X425709523Y-236723214D01*
X425709523Y-236913690D02*
X425757142Y-236818452D01*
X425804761Y-236770833D01*
X425900000Y-236723214D01*
X425995238Y-236723214D01*
X426328571Y-237389880D02*
X426328571Y-236389880D01*
X426423809Y-237008928D02*
X426709523Y-237389880D01*
X426709523Y-236723214D02*
X426328571Y-237104166D01*
X427519047Y-237342261D02*
X427423809Y-237389880D01*
X427233333Y-237389880D01*
X427138095Y-237342261D01*
X427090476Y-237247023D01*
X427090476Y-236866071D01*
X427138095Y-236770833D01*
X427233333Y-236723214D01*
X427423809Y-236723214D01*
X427519047Y-236770833D01*
X427566666Y-236866071D01*
X427566666Y-236961309D01*
X427090476Y-237056547D01*
X428376190Y-237342261D02*
X428280952Y-237389880D01*
X428090476Y-237389880D01*
X427995238Y-237342261D01*
X427947619Y-237247023D01*
X427947619Y-236866071D01*
X427995238Y-236770833D01*
X428090476Y-236723214D01*
X428280952Y-236723214D01*
X428376190Y-236770833D01*
X428423809Y-236866071D01*
X428423809Y-236961309D01*
X427947619Y-237056547D01*
X428852380Y-237389880D02*
X428852380Y-236389880D01*
X428852380Y-236770833D02*
X428947619Y-236723214D01*
X429138095Y-236723214D01*
X429233333Y-236770833D01*
X429280952Y-236818452D01*
X429328571Y-236913690D01*
X429328571Y-237199404D01*
X429280952Y-237294642D01*
X429233333Y-237342261D01*
X429138095Y-237389880D01*
X428947619Y-237389880D01*
X428852380Y-237342261D01*
X429709523Y-237342261D02*
X429804761Y-237389880D01*
X429995238Y-237389880D01*
X430090476Y-237342261D01*
X430138095Y-237247023D01*
X430138095Y-237199404D01*
X430090476Y-237104166D01*
X429995238Y-237056547D01*
X429852380Y-237056547D01*
X429757142Y-237008928D01*
X429709523Y-236913690D01*
X429709523Y-236866071D01*
X429757142Y-236770833D01*
X429852380Y-236723214D01*
X429995238Y-236723214D01*
X430090476Y-236770833D01*
X430566666Y-237294642D02*
X430614285Y-237342261D01*
X430566666Y-237389880D01*
X430519047Y-237342261D01*
X430566666Y-237294642D01*
X430566666Y-237389880D01*
X431471428Y-237342261D02*
X431376190Y-237389880D01*
X431185714Y-237389880D01*
X431090476Y-237342261D01*
X431042857Y-237294642D01*
X430995238Y-237199404D01*
X430995238Y-236913690D01*
X431042857Y-236818452D01*
X431090476Y-236770833D01*
X431185714Y-236723214D01*
X431376190Y-236723214D01*
X431471428Y-236770833D01*
X432042857Y-237389880D02*
X431947619Y-237342261D01*
X431900000Y-237294642D01*
X431852380Y-237199404D01*
X431852380Y-236913690D01*
X431900000Y-236818452D01*
X431947619Y-236770833D01*
X432042857Y-236723214D01*
X432185714Y-236723214D01*
X432280952Y-236770833D01*
X432328571Y-236818452D01*
X432376190Y-236913690D01*
X432376190Y-237199404D01*
X432328571Y-237294642D01*
X432280952Y-237342261D01*
X432185714Y-237389880D01*
X432042857Y-237389880D01*
X432804761Y-237389880D02*
X432804761Y-236723214D01*
X432804761Y-236818452D02*
X432852380Y-236770833D01*
X432947619Y-236723214D01*
X433090476Y-236723214D01*
X433185714Y-236770833D01*
X433233333Y-236866071D01*
X433233333Y-237389880D01*
X433233333Y-236866071D02*
X433280952Y-236770833D01*
X433376190Y-236723214D01*
X433519047Y-236723214D01*
X433614285Y-236770833D01*
X433661904Y-236866071D01*
X433661904Y-237389880D01*
D11*
M02*
