G04 #@! TF.GenerationSoftware,KiCad,Pcbnew,(5.1.6)-1*
G04 #@! TF.CreationDate,2020-07-30T14:32:44-07:00*
G04 #@! TF.ProjectId,keyboard_test6,6b657962-6f61-4726-945f-74657374362e,rev?*
G04 #@! TF.SameCoordinates,Original*
G04 #@! TF.FileFunction,Soldermask,Bot*
G04 #@! TF.FilePolarity,Negative*
%FSLAX46Y46*%
G04 Gerber Fmt 4.6, Leading zero omitted, Abs format (unit mm)*
G04 Created by KiCad (PCBNEW (5.1.6)-1) date 2020-07-30 14:32:44*
%MOMM*%
%LPD*%
G01*
G04 APERTURE LIST*
%ADD10C,3.000000*%
%ADD11C,0.650000*%
%ADD12R,2.180000X2.000000*%
%ADD13R,0.300000X1.150000*%
%ADD14R,0.600000X1.150000*%
%ADD15C,1.600000*%
%ADD16R,1.600000X1.600000*%
%ADD17O,13.600000X5.200000*%
%ADD18C,6.100000*%
%ADD19C,3.987800*%
%ADD20C,3.048000*%
%ADD21R,2.550000X2.500000*%
%ADD22C,1.750000*%
%ADD23R,2.500000X2.550000*%
%ADD24R,1.000000X1.700000*%
%ADD25C,0.100000*%
%ADD26R,1.400000X1.200000*%
G04 APERTURE END LIST*
D10*
X426146000Y-183534000D03*
X419034000Y-183534000D03*
X386014000Y-220364000D03*
D11*
X165752000Y-143000000D03*
X159972000Y-143000000D03*
D12*
X167972000Y-139570000D03*
X157752000Y-139570000D03*
X167972000Y-143500000D03*
X157752000Y-143500000D03*
D13*
X163112000Y-144075000D03*
X162612000Y-144075000D03*
X163612000Y-144075000D03*
X162112000Y-144075000D03*
X164112000Y-144075000D03*
X161612000Y-144075000D03*
X164612000Y-144075000D03*
X161112000Y-144075000D03*
D14*
X166062000Y-144075000D03*
X165262000Y-144075000D03*
X160462000Y-144075000D03*
X159662000Y-144075000D03*
D15*
X339938000Y-141212000D03*
D16*
X347738000Y-141212000D03*
D15*
X171488000Y-141212000D03*
D16*
X179288000Y-141212000D03*
D15*
X187538000Y-141212000D03*
D16*
X195338000Y-141212000D03*
D15*
X206588000Y-141212000D03*
D16*
X214388000Y-141212000D03*
D15*
X225638000Y-141212000D03*
D16*
X233438000Y-141212000D03*
D15*
X244688000Y-141212000D03*
D16*
X252488000Y-141212000D03*
D15*
X263738000Y-141212000D03*
D16*
X271538000Y-141212000D03*
D15*
X282788000Y-141212000D03*
D16*
X290588000Y-141212000D03*
D15*
X301838000Y-141212000D03*
D16*
X309638000Y-141212000D03*
D15*
X320888000Y-141212000D03*
D16*
X328688000Y-141212000D03*
D15*
X182775000Y-179312000D03*
D16*
X190575000Y-179312000D03*
D15*
X342319000Y-217412000D03*
D16*
X350119000Y-217412000D03*
D15*
X199444000Y-217412000D03*
D16*
X207244000Y-217412000D03*
D15*
X268500000Y-198362000D03*
D16*
X276300000Y-198362000D03*
D15*
X232781000Y-217412000D03*
D16*
X240581000Y-217412000D03*
D15*
X406612000Y-141212000D03*
D16*
X414412000Y-141212000D03*
D15*
X411375000Y-160262000D03*
D16*
X419175000Y-160262000D03*
D15*
X230400000Y-198362000D03*
D16*
X238200000Y-198362000D03*
D15*
X156581000Y-179312000D03*
D16*
X164381000Y-179312000D03*
D15*
X368512000Y-160262000D03*
D16*
X376312000Y-160262000D03*
D15*
X325650000Y-198362000D03*
D16*
X333450000Y-198362000D03*
D15*
X266119000Y-217412000D03*
D16*
X273919000Y-217412000D03*
D15*
X413756000Y-217412000D03*
D16*
X421556000Y-217412000D03*
D15*
X151819000Y-217412000D03*
D16*
X159619000Y-217412000D03*
D15*
X220875000Y-179312000D03*
D16*
X228675000Y-179312000D03*
D15*
X344700000Y-198362000D03*
D16*
X352500000Y-198362000D03*
D15*
X216112000Y-160262000D03*
D16*
X223912000Y-160262000D03*
D15*
X404231000Y-179312000D03*
D16*
X412031000Y-179312000D03*
D15*
X378038000Y-141212000D03*
D16*
X385838000Y-141212000D03*
D15*
X160970000Y-147630000D03*
D16*
X160970000Y-155430000D03*
D15*
X239925000Y-179312000D03*
D16*
X247725000Y-179312000D03*
D15*
X266975000Y-177312000D03*
D16*
X274775000Y-177312000D03*
X291780000Y-178872000D03*
D15*
X291780000Y-186672000D03*
X311362000Y-160262000D03*
D16*
X319162000Y-160262000D03*
D15*
X297075000Y-179312000D03*
D16*
X304875000Y-179312000D03*
D15*
X316125000Y-179312000D03*
D16*
X323925000Y-179312000D03*
D15*
X335175000Y-179312000D03*
D16*
X342975000Y-179312000D03*
D15*
X306600000Y-198362000D03*
D16*
X314400000Y-198362000D03*
D15*
X389944000Y-217412000D03*
D16*
X397744000Y-217412000D03*
D15*
X358988000Y-141212000D03*
D16*
X366788000Y-141212000D03*
D15*
X287550000Y-198362000D03*
D16*
X295350000Y-198362000D03*
D15*
X330412000Y-160262000D03*
D16*
X338212000Y-160262000D03*
D15*
X383968000Y-168362000D03*
D16*
X383968000Y-176162000D03*
D15*
X349462000Y-160262000D03*
D16*
X357262000Y-160262000D03*
D15*
X178012000Y-160262000D03*
D16*
X185812000Y-160262000D03*
D15*
X373275000Y-179312000D03*
D16*
X381075000Y-179312000D03*
D15*
X235162000Y-160262000D03*
D16*
X242962000Y-160262000D03*
D15*
X201825000Y-179312000D03*
D16*
X209625000Y-179312000D03*
D15*
X354225000Y-179312000D03*
D16*
X362025000Y-179312000D03*
D15*
X399800000Y-198362000D03*
D16*
X407600000Y-198362000D03*
D15*
X161344000Y-198362000D03*
D16*
X169144000Y-198362000D03*
D15*
X363750000Y-198362000D03*
D16*
X371550000Y-198362000D03*
D15*
X304219000Y-217412000D03*
D16*
X312019000Y-217412000D03*
D15*
X254212000Y-160262000D03*
D16*
X262012000Y-160262000D03*
D15*
X147500000Y-162862000D03*
D16*
X147500000Y-170662000D03*
D15*
X292312000Y-160262000D03*
D16*
X300112000Y-160262000D03*
D15*
X249450000Y-198362000D03*
D16*
X257250000Y-198362000D03*
D15*
X197062000Y-160262000D03*
D16*
X204862000Y-160262000D03*
D15*
X366131000Y-217412000D03*
D16*
X373931000Y-217412000D03*
D15*
X175631000Y-217412000D03*
D16*
X183431000Y-217412000D03*
D15*
X211350000Y-198362000D03*
D16*
X219150000Y-198362000D03*
D15*
X273262000Y-160262000D03*
D16*
X281062000Y-160262000D03*
D15*
X192300000Y-198362000D03*
D16*
X200100000Y-198362000D03*
D17*
X144651000Y-195012000D03*
D18*
X334690000Y-224112000D03*
X169410000Y-166412000D03*
X272405000Y-185512000D03*
X404240000Y-166762000D03*
D17*
X430000000Y-195015000D03*
D19*
X177182000Y-213117000D03*
X153306000Y-213117000D03*
D20*
X177182000Y-197877000D03*
X153306000Y-197877000D03*
D21*
X159402000Y-209942000D03*
X172329000Y-207402000D03*
D22*
X160164000Y-204862000D03*
X170324000Y-204862000D03*
D10*
X169054000Y-207402000D03*
D19*
X165244000Y-204862000D03*
D10*
X162704000Y-209942000D03*
D19*
X422450000Y-155967000D03*
X398574000Y-155967000D03*
D20*
X422450000Y-140727000D03*
X398574000Y-140727000D03*
D21*
X404670000Y-152792000D03*
X417597000Y-150252000D03*
D22*
X405432000Y-147712000D03*
X415592000Y-147712000D03*
D10*
X414322000Y-150252000D03*
D19*
X410512000Y-147712000D03*
D10*
X407972000Y-152792000D03*
D19*
X420069000Y-194067000D03*
X396193000Y-194067000D03*
D20*
X420069000Y-178827000D03*
X396193000Y-178827000D03*
D21*
X402289000Y-190892000D03*
X415216000Y-188352000D03*
D22*
X403051000Y-185812000D03*
X413211000Y-185812000D03*
D10*
X411941000Y-188352000D03*
D19*
X408131000Y-185812000D03*
D10*
X405591000Y-190892000D03*
D19*
X415307000Y-213117000D03*
X391431000Y-213117000D03*
D20*
X415307000Y-197877000D03*
X391431000Y-197877000D03*
D21*
X397527000Y-209942000D03*
X410454000Y-207402000D03*
D22*
X398289000Y-204862000D03*
X408449000Y-204862000D03*
D10*
X407179000Y-207402000D03*
D19*
X403369000Y-204862000D03*
D10*
X400829000Y-209942000D03*
D19*
X248619000Y-215657000D03*
X224743000Y-215657000D03*
D20*
X248619000Y-230897000D03*
X224743000Y-230897000D03*
D21*
X230839000Y-228992000D03*
X243766000Y-226452000D03*
D22*
X231601000Y-223912000D03*
X241761000Y-223912000D03*
D10*
X240491000Y-226452000D03*
D19*
X236681000Y-223912000D03*
D10*
X234141000Y-228992000D03*
X305579000Y-228992000D03*
D19*
X308119000Y-223912000D03*
D10*
X311929000Y-226452000D03*
D22*
X313199000Y-223912000D03*
X303039000Y-223912000D03*
D21*
X315204000Y-226452000D03*
X302277000Y-228992000D03*
D20*
X296181000Y-230897000D03*
X320057000Y-230897000D03*
D19*
X296181000Y-215657000D03*
X320057000Y-215657000D03*
D21*
X411814000Y-228992000D03*
X424741000Y-226452000D03*
D22*
X412576000Y-223912000D03*
X422736000Y-223912000D03*
D10*
X421466000Y-226452000D03*
D19*
X417656000Y-223912000D03*
D10*
X415116000Y-228992000D03*
D21*
X154639000Y-190892000D03*
X167566000Y-188352000D03*
D22*
X155401000Y-185812000D03*
X165561000Y-185812000D03*
D10*
X164291000Y-188352000D03*
D19*
X160481000Y-185812000D03*
D10*
X157941000Y-190892000D03*
D21*
X409433000Y-171842000D03*
X422360000Y-169302000D03*
D22*
X410195000Y-166762000D03*
X420355000Y-166762000D03*
D10*
X419085000Y-169302000D03*
D19*
X415275000Y-166762000D03*
D10*
X412735000Y-171842000D03*
D23*
X148258000Y-141870000D03*
X150798000Y-154797000D03*
D22*
X153338000Y-142632000D03*
X153338000Y-152792000D03*
D10*
X150798000Y-151522000D03*
D19*
X153338000Y-147712000D03*
D10*
X148258000Y-145172000D03*
D21*
X166546000Y-152792000D03*
X179473000Y-150252000D03*
D22*
X167308000Y-147712000D03*
X177468000Y-147712000D03*
D10*
X176198000Y-150252000D03*
D19*
X172388000Y-147712000D03*
D10*
X169848000Y-152792000D03*
D21*
X185596000Y-152792000D03*
X198523000Y-150252000D03*
D22*
X186358000Y-147712000D03*
X196518000Y-147712000D03*
D10*
X195248000Y-150252000D03*
D19*
X191438000Y-147712000D03*
D10*
X188898000Y-152792000D03*
D21*
X204646000Y-152792000D03*
X217573000Y-150252000D03*
D22*
X205408000Y-147712000D03*
X215568000Y-147712000D03*
D10*
X214298000Y-150252000D03*
D19*
X210488000Y-147712000D03*
D10*
X207948000Y-152792000D03*
D21*
X223696000Y-152792000D03*
X236623000Y-150252000D03*
D22*
X224458000Y-147712000D03*
X234618000Y-147712000D03*
D10*
X233348000Y-150252000D03*
D19*
X229538000Y-147712000D03*
D10*
X226998000Y-152792000D03*
D21*
X242746000Y-152792000D03*
X255673000Y-150252000D03*
D22*
X243508000Y-147712000D03*
X253668000Y-147712000D03*
D10*
X252398000Y-150252000D03*
D19*
X248588000Y-147712000D03*
D10*
X246048000Y-152792000D03*
D21*
X261796000Y-152792000D03*
X274723000Y-150252000D03*
D22*
X262558000Y-147712000D03*
X272718000Y-147712000D03*
D10*
X271448000Y-150252000D03*
D19*
X267638000Y-147712000D03*
D10*
X265098000Y-152792000D03*
D21*
X280846000Y-152792000D03*
X293773000Y-150252000D03*
D22*
X281608000Y-147712000D03*
X291768000Y-147712000D03*
D10*
X290498000Y-150252000D03*
D19*
X286688000Y-147712000D03*
D10*
X284148000Y-152792000D03*
D21*
X299896000Y-152792000D03*
X312823000Y-150252000D03*
D22*
X300658000Y-147712000D03*
X310818000Y-147712000D03*
D10*
X309548000Y-150252000D03*
D19*
X305738000Y-147712000D03*
D10*
X303198000Y-152792000D03*
D21*
X318946000Y-152792000D03*
X331873000Y-150252000D03*
D22*
X319708000Y-147712000D03*
X329868000Y-147712000D03*
D10*
X328598000Y-150252000D03*
D19*
X324788000Y-147712000D03*
D10*
X322248000Y-152792000D03*
D21*
X337996000Y-152792000D03*
X350923000Y-150252000D03*
D22*
X338758000Y-147712000D03*
X348918000Y-147712000D03*
D10*
X347648000Y-150252000D03*
D19*
X343838000Y-147712000D03*
D10*
X341298000Y-152792000D03*
D21*
X357046000Y-152792000D03*
X369973000Y-150252000D03*
D22*
X357808000Y-147712000D03*
X367968000Y-147712000D03*
D10*
X366698000Y-150252000D03*
D19*
X362888000Y-147712000D03*
D10*
X360348000Y-152792000D03*
D21*
X376096000Y-152792000D03*
X389023000Y-150252000D03*
D22*
X376858000Y-147712000D03*
X387018000Y-147712000D03*
D10*
X385748000Y-150252000D03*
D19*
X381938000Y-147712000D03*
D10*
X379398000Y-152792000D03*
D21*
X176070000Y-171842000D03*
X188997000Y-169302000D03*
D22*
X176832000Y-166762000D03*
X186992000Y-166762000D03*
D10*
X185722000Y-169302000D03*
D19*
X181912000Y-166762000D03*
D10*
X179372000Y-171842000D03*
D21*
X195120000Y-171842000D03*
X208047000Y-169302000D03*
D22*
X195882000Y-166762000D03*
X206042000Y-166762000D03*
D10*
X204772000Y-169302000D03*
D19*
X200962000Y-166762000D03*
D10*
X198422000Y-171842000D03*
D21*
X214170000Y-171842000D03*
X227097000Y-169302000D03*
D22*
X214932000Y-166762000D03*
X225092000Y-166762000D03*
D10*
X223822000Y-169302000D03*
D19*
X220012000Y-166762000D03*
D10*
X217472000Y-171842000D03*
D21*
X233220000Y-171842000D03*
X246147000Y-169302000D03*
D22*
X233982000Y-166762000D03*
X244142000Y-166762000D03*
D10*
X242872000Y-169302000D03*
D19*
X239062000Y-166762000D03*
D10*
X236522000Y-171842000D03*
D21*
X252270000Y-171842000D03*
X265197000Y-169302000D03*
D22*
X253032000Y-166762000D03*
X263192000Y-166762000D03*
D10*
X261922000Y-169302000D03*
D19*
X258112000Y-166762000D03*
D10*
X255572000Y-171842000D03*
D21*
X271320000Y-171842000D03*
X284247000Y-169302000D03*
D22*
X272082000Y-166762000D03*
X282242000Y-166762000D03*
D10*
X280972000Y-169302000D03*
D19*
X277162000Y-166762000D03*
D10*
X274622000Y-171842000D03*
D21*
X290370000Y-171842000D03*
X303297000Y-169302000D03*
D22*
X291132000Y-166762000D03*
X301292000Y-166762000D03*
D10*
X300022000Y-169302000D03*
D19*
X296212000Y-166762000D03*
D10*
X293672000Y-171842000D03*
D21*
X309420000Y-171842000D03*
X322347000Y-169302000D03*
D22*
X310182000Y-166762000D03*
X320342000Y-166762000D03*
D10*
X319072000Y-169302000D03*
D19*
X315262000Y-166762000D03*
D10*
X312722000Y-171842000D03*
D21*
X328470000Y-171842000D03*
X341397000Y-169302000D03*
D22*
X329232000Y-166762000D03*
X339392000Y-166762000D03*
D10*
X338122000Y-169302000D03*
D19*
X334312000Y-166762000D03*
D10*
X331772000Y-171842000D03*
D21*
X347520000Y-171842000D03*
X360447000Y-169302000D03*
D22*
X348282000Y-166762000D03*
X358442000Y-166762000D03*
D10*
X357172000Y-169302000D03*
D19*
X353362000Y-166762000D03*
D10*
X350822000Y-171842000D03*
D21*
X366570000Y-171842000D03*
X379497000Y-169302000D03*
D22*
X367332000Y-166762000D03*
X377492000Y-166762000D03*
D10*
X376222000Y-169302000D03*
D19*
X372412000Y-166762000D03*
D10*
X369872000Y-171842000D03*
D23*
X386382000Y-160920000D03*
X388922000Y-173847000D03*
D22*
X391462000Y-161682000D03*
X391462000Y-171842000D03*
D10*
X388922000Y-170572000D03*
D19*
X391462000Y-166762000D03*
D10*
X386382000Y-164222000D03*
D21*
X180833000Y-190892000D03*
X193760000Y-188352000D03*
D22*
X181595000Y-185812000D03*
X191755000Y-185812000D03*
D10*
X190485000Y-188352000D03*
D19*
X186675000Y-185812000D03*
D10*
X184135000Y-190892000D03*
D21*
X199883000Y-190892000D03*
X212810000Y-188352000D03*
D22*
X200645000Y-185812000D03*
X210805000Y-185812000D03*
D10*
X209535000Y-188352000D03*
D19*
X205725000Y-185812000D03*
D10*
X203185000Y-190892000D03*
D21*
X218933000Y-190892000D03*
X231860000Y-188352000D03*
D22*
X219695000Y-185812000D03*
X229855000Y-185812000D03*
D10*
X228585000Y-188352000D03*
D19*
X224775000Y-185812000D03*
D10*
X222235000Y-190892000D03*
D21*
X237983000Y-190892000D03*
X250910000Y-188352000D03*
D22*
X238745000Y-185812000D03*
X248905000Y-185812000D03*
D10*
X247635000Y-188352000D03*
D19*
X243825000Y-185812000D03*
D10*
X241285000Y-190892000D03*
D23*
X257795000Y-179970000D03*
X260335000Y-192897000D03*
D22*
X262875000Y-180732000D03*
X262875000Y-190892000D03*
D10*
X260335000Y-189622000D03*
D19*
X262875000Y-185812000D03*
D10*
X257795000Y-183272000D03*
D23*
X287005000Y-191654000D03*
X284465000Y-178727000D03*
D22*
X281925000Y-190892000D03*
X281925000Y-180732000D03*
D10*
X284465000Y-182002000D03*
D19*
X281925000Y-185812000D03*
D10*
X287005000Y-188352000D03*
D21*
X295133000Y-190892000D03*
X308060000Y-188352000D03*
D22*
X295895000Y-185812000D03*
X306055000Y-185812000D03*
D10*
X304785000Y-188352000D03*
D19*
X300975000Y-185812000D03*
D10*
X298435000Y-190892000D03*
D21*
X314183000Y-190892000D03*
X327110000Y-188352000D03*
D22*
X314945000Y-185812000D03*
X325105000Y-185812000D03*
D10*
X323835000Y-188352000D03*
D19*
X320025000Y-185812000D03*
D10*
X317485000Y-190892000D03*
D21*
X333233000Y-190892000D03*
X346160000Y-188352000D03*
D22*
X333995000Y-185812000D03*
X344155000Y-185812000D03*
D10*
X342885000Y-188352000D03*
D19*
X339075000Y-185812000D03*
D10*
X336535000Y-190892000D03*
D21*
X352283000Y-190892000D03*
X365210000Y-188352000D03*
D22*
X353045000Y-185812000D03*
X363205000Y-185812000D03*
D10*
X361935000Y-188352000D03*
D19*
X358125000Y-185812000D03*
D10*
X355585000Y-190892000D03*
D21*
X371333000Y-190892000D03*
X384260000Y-188352000D03*
D22*
X372095000Y-185812000D03*
X382255000Y-185812000D03*
D10*
X380985000Y-188352000D03*
D19*
X377175000Y-185812000D03*
D10*
X374635000Y-190892000D03*
D21*
X190358000Y-209942000D03*
X203285000Y-207402000D03*
D22*
X191120000Y-204862000D03*
X201280000Y-204862000D03*
D10*
X200010000Y-207402000D03*
D19*
X196200000Y-204862000D03*
D10*
X193660000Y-209942000D03*
D21*
X209408000Y-209942000D03*
X222335000Y-207402000D03*
D22*
X210170000Y-204862000D03*
X220330000Y-204862000D03*
D10*
X219060000Y-207402000D03*
D19*
X215250000Y-204862000D03*
D10*
X212710000Y-209942000D03*
D21*
X228458000Y-209942000D03*
X241385000Y-207402000D03*
D22*
X229220000Y-204862000D03*
X239380000Y-204862000D03*
D10*
X238110000Y-207402000D03*
D19*
X234300000Y-204862000D03*
D10*
X231760000Y-209942000D03*
D21*
X247508000Y-209942000D03*
X260435000Y-207402000D03*
D22*
X248270000Y-204862000D03*
X258430000Y-204862000D03*
D10*
X257160000Y-207402000D03*
D19*
X253350000Y-204862000D03*
D10*
X250810000Y-209942000D03*
D21*
X266558000Y-209942000D03*
X279485000Y-207402000D03*
D22*
X267320000Y-204862000D03*
X277480000Y-204862000D03*
D10*
X276210000Y-207402000D03*
D19*
X272400000Y-204862000D03*
D10*
X269860000Y-209942000D03*
D21*
X285608000Y-209942000D03*
X298535000Y-207402000D03*
D22*
X286370000Y-204862000D03*
X296530000Y-204862000D03*
D10*
X295260000Y-207402000D03*
D19*
X291450000Y-204862000D03*
D10*
X288910000Y-209942000D03*
D21*
X304658000Y-209942000D03*
X317585000Y-207402000D03*
D22*
X305420000Y-204862000D03*
X315580000Y-204862000D03*
D10*
X314310000Y-207402000D03*
D19*
X310500000Y-204862000D03*
D10*
X307960000Y-209942000D03*
D21*
X323708000Y-209942000D03*
X336635000Y-207402000D03*
D22*
X324470000Y-204862000D03*
X334630000Y-204862000D03*
D10*
X333360000Y-207402000D03*
D19*
X329550000Y-204862000D03*
D10*
X327010000Y-209942000D03*
D21*
X342758000Y-209942000D03*
X355685000Y-207402000D03*
D22*
X343520000Y-204862000D03*
X353680000Y-204862000D03*
D10*
X352410000Y-207402000D03*
D19*
X348600000Y-204862000D03*
D10*
X346060000Y-209942000D03*
X365110000Y-209942000D03*
D19*
X367650000Y-204862000D03*
D10*
X371460000Y-207402000D03*
D22*
X372730000Y-204862000D03*
X362570000Y-204862000D03*
D21*
X374735000Y-207402000D03*
X361808000Y-209942000D03*
D10*
X176991000Y-228992000D03*
D19*
X179531000Y-223912000D03*
D10*
X183341000Y-226452000D03*
D22*
X184611000Y-223912000D03*
X174451000Y-223912000D03*
D21*
X186616000Y-226452000D03*
X173689000Y-228992000D03*
D10*
X200804000Y-228992000D03*
D19*
X203344000Y-223912000D03*
D10*
X207154000Y-226452000D03*
D22*
X208424000Y-223912000D03*
X198264000Y-223912000D03*
D21*
X210429000Y-226452000D03*
X197502000Y-228992000D03*
X264177000Y-228992000D03*
X277104000Y-226452000D03*
D22*
X264939000Y-223912000D03*
X275099000Y-223912000D03*
D10*
X273829000Y-226452000D03*
D19*
X270019000Y-223912000D03*
D10*
X267479000Y-228992000D03*
D21*
X340377000Y-228992000D03*
X353304000Y-226452000D03*
D22*
X341139000Y-223912000D03*
X351299000Y-223912000D03*
D10*
X350029000Y-226452000D03*
D19*
X346219000Y-223912000D03*
D10*
X343679000Y-228992000D03*
D21*
X364189000Y-228992000D03*
X377116000Y-226452000D03*
D22*
X364951000Y-223912000D03*
X375111000Y-223912000D03*
D10*
X373841000Y-226452000D03*
D19*
X370031000Y-223912000D03*
D10*
X367491000Y-228992000D03*
D21*
X388002000Y-228992000D03*
X400929000Y-226452000D03*
D22*
X388764000Y-223912000D03*
X398924000Y-223912000D03*
D10*
X397654000Y-226452000D03*
D19*
X393844000Y-223912000D03*
D10*
X391304000Y-228992000D03*
X153179000Y-228992000D03*
D19*
X155719000Y-223912000D03*
D10*
X159529000Y-226452000D03*
D22*
X160799000Y-223912000D03*
X150639000Y-223912000D03*
D21*
X162804000Y-226452000D03*
X149877000Y-228992000D03*
G36*
G01*
X389900000Y-191257999D02*
X389900000Y-192158001D01*
G75*
G02*
X389650001Y-192408000I-249999J0D01*
G01*
X388999999Y-192408000D01*
G75*
G02*
X388750000Y-192158001I0J249999D01*
G01*
X388750000Y-191257999D01*
G75*
G02*
X388999999Y-191008000I249999J0D01*
G01*
X389650001Y-191008000D01*
G75*
G02*
X389900000Y-191257999I0J-249999D01*
G01*
G37*
G36*
G01*
X387850000Y-191257999D02*
X387850000Y-192158001D01*
G75*
G02*
X387600001Y-192408000I-249999J0D01*
G01*
X386949999Y-192408000D01*
G75*
G02*
X386700000Y-192158001I0J249999D01*
G01*
X386700000Y-191257999D01*
G75*
G02*
X386949999Y-191008000I249999J0D01*
G01*
X387600001Y-191008000D01*
G75*
G02*
X387850000Y-191257999I0J-249999D01*
G01*
G37*
G36*
G01*
X394320000Y-188810001D02*
X394320000Y-187909999D01*
G75*
G02*
X394569999Y-187660000I249999J0D01*
G01*
X395220001Y-187660000D01*
G75*
G02*
X395470000Y-187909999I0J-249999D01*
G01*
X395470000Y-188810001D01*
G75*
G02*
X395220001Y-189060000I-249999J0D01*
G01*
X394569999Y-189060000D01*
G75*
G02*
X394320000Y-188810001I0J249999D01*
G01*
G37*
G36*
G01*
X396370000Y-188810001D02*
X396370000Y-187909999D01*
G75*
G02*
X396619999Y-187660000I249999J0D01*
G01*
X397270001Y-187660000D01*
G75*
G02*
X397520000Y-187909999I0J-249999D01*
G01*
X397520000Y-188810001D01*
G75*
G02*
X397270001Y-189060000I-249999J0D01*
G01*
X396619999Y-189060000D01*
G75*
G02*
X396370000Y-188810001I0J249999D01*
G01*
G37*
D24*
X171700000Y-182662000D03*
X171700000Y-188962000D03*
X175500000Y-182662000D03*
X175500000Y-188962000D03*
G36*
G01*
X374508000Y-199605001D02*
X374508000Y-198704999D01*
G75*
G02*
X374757999Y-198455000I249999J0D01*
G01*
X375408001Y-198455000D01*
G75*
G02*
X375658000Y-198704999I0J-249999D01*
G01*
X375658000Y-199605001D01*
G75*
G02*
X375408001Y-199855000I-249999J0D01*
G01*
X374757999Y-199855000D01*
G75*
G02*
X374508000Y-199605001I0J249999D01*
G01*
G37*
G36*
G01*
X376558000Y-199605001D02*
X376558000Y-198704999D01*
G75*
G02*
X376807999Y-198455000I249999J0D01*
G01*
X377458001Y-198455000D01*
G75*
G02*
X377708000Y-198704999I0J-249999D01*
G01*
X377708000Y-199605001D01*
G75*
G02*
X377458001Y-199855000I-249999J0D01*
G01*
X376807999Y-199855000D01*
G75*
G02*
X376558000Y-199605001I0J249999D01*
G01*
G37*
G36*
G01*
X414400000Y-203450001D02*
X414400000Y-202549999D01*
G75*
G02*
X414649999Y-202300000I249999J0D01*
G01*
X415300001Y-202300000D01*
G75*
G02*
X415550000Y-202549999I0J-249999D01*
G01*
X415550000Y-203450001D01*
G75*
G02*
X415300001Y-203700000I-249999J0D01*
G01*
X414649999Y-203700000D01*
G75*
G02*
X414400000Y-203450001I0J249999D01*
G01*
G37*
G36*
G01*
X416450000Y-203450001D02*
X416450000Y-202549999D01*
G75*
G02*
X416699999Y-202300000I249999J0D01*
G01*
X417350001Y-202300000D01*
G75*
G02*
X417600000Y-202549999I0J-249999D01*
G01*
X417600000Y-203450001D01*
G75*
G02*
X417350001Y-203700000I-249999J0D01*
G01*
X416699999Y-203700000D01*
G75*
G02*
X416450000Y-203450001I0J249999D01*
G01*
G37*
G36*
G01*
X417719000Y-208128001D02*
X417719000Y-207227999D01*
G75*
G02*
X417968999Y-206978000I249999J0D01*
G01*
X418619001Y-206978000D01*
G75*
G02*
X418869000Y-207227999I0J-249999D01*
G01*
X418869000Y-208128001D01*
G75*
G02*
X418619001Y-208378000I-249999J0D01*
G01*
X417968999Y-208378000D01*
G75*
G02*
X417719000Y-208128001I0J249999D01*
G01*
G37*
G36*
G01*
X419769000Y-208128001D02*
X419769000Y-207227999D01*
G75*
G02*
X420018999Y-206978000I249999J0D01*
G01*
X420669001Y-206978000D01*
G75*
G02*
X420919000Y-207227999I0J-249999D01*
G01*
X420919000Y-208128001D01*
G75*
G02*
X420669001Y-208378000I-249999J0D01*
G01*
X420018999Y-208378000D01*
G75*
G02*
X419769000Y-208128001I0J249999D01*
G01*
G37*
G36*
G01*
X424094000Y-214502001D02*
X424094000Y-213601999D01*
G75*
G02*
X424343999Y-213352000I249999J0D01*
G01*
X424994001Y-213352000D01*
G75*
G02*
X425244000Y-213601999I0J-249999D01*
G01*
X425244000Y-214502001D01*
G75*
G02*
X424994001Y-214752000I-249999J0D01*
G01*
X424343999Y-214752000D01*
G75*
G02*
X424094000Y-214502001I0J249999D01*
G01*
G37*
G36*
G01*
X426144000Y-214502001D02*
X426144000Y-213601999D01*
G75*
G02*
X426393999Y-213352000I249999J0D01*
G01*
X427044001Y-213352000D01*
G75*
G02*
X427294000Y-213601999I0J-249999D01*
G01*
X427294000Y-214502001D01*
G75*
G02*
X427044001Y-214752000I-249999J0D01*
G01*
X426393999Y-214752000D01*
G75*
G02*
X426144000Y-214502001I0J249999D01*
G01*
G37*
G36*
G01*
X424094000Y-208128001D02*
X424094000Y-207227999D01*
G75*
G02*
X424343999Y-206978000I249999J0D01*
G01*
X424994001Y-206978000D01*
G75*
G02*
X425244000Y-207227999I0J-249999D01*
G01*
X425244000Y-208128001D01*
G75*
G02*
X424994001Y-208378000I-249999J0D01*
G01*
X424343999Y-208378000D01*
G75*
G02*
X424094000Y-208128001I0J249999D01*
G01*
G37*
G36*
G01*
X426144000Y-208128001D02*
X426144000Y-207227999D01*
G75*
G02*
X426393999Y-206978000I249999J0D01*
G01*
X427044001Y-206978000D01*
G75*
G02*
X427294000Y-207227999I0J-249999D01*
G01*
X427294000Y-208128001D01*
G75*
G02*
X427044001Y-208378000I-249999J0D01*
G01*
X426393999Y-208378000D01*
G75*
G02*
X426144000Y-208128001I0J249999D01*
G01*
G37*
G36*
G01*
X424094000Y-201846001D02*
X424094000Y-200945999D01*
G75*
G02*
X424343999Y-200696000I249999J0D01*
G01*
X424994001Y-200696000D01*
G75*
G02*
X425244000Y-200945999I0J-249999D01*
G01*
X425244000Y-201846001D01*
G75*
G02*
X424994001Y-202096000I-249999J0D01*
G01*
X424343999Y-202096000D01*
G75*
G02*
X424094000Y-201846001I0J249999D01*
G01*
G37*
G36*
G01*
X426144000Y-201846001D02*
X426144000Y-200945999D01*
G75*
G02*
X426393999Y-200696000I249999J0D01*
G01*
X427044001Y-200696000D01*
G75*
G02*
X427294000Y-200945999I0J-249999D01*
G01*
X427294000Y-201846001D01*
G75*
G02*
X427044001Y-202096000I-249999J0D01*
G01*
X426393999Y-202096000D01*
G75*
G02*
X426144000Y-201846001I0J249999D01*
G01*
G37*
G36*
G01*
X381391000Y-195529999D02*
X381391000Y-196430001D01*
G75*
G02*
X381141001Y-196680000I-249999J0D01*
G01*
X380490999Y-196680000D01*
G75*
G02*
X380241000Y-196430001I0J249999D01*
G01*
X380241000Y-195529999D01*
G75*
G02*
X380490999Y-195280000I249999J0D01*
G01*
X381141001Y-195280000D01*
G75*
G02*
X381391000Y-195529999I0J-249999D01*
G01*
G37*
G36*
G01*
X379341000Y-195529999D02*
X379341000Y-196430001D01*
G75*
G02*
X379091001Y-196680000I-249999J0D01*
G01*
X378440999Y-196680000D01*
G75*
G02*
X378191000Y-196430001I0J249999D01*
G01*
X378191000Y-195529999D01*
G75*
G02*
X378440999Y-195280000I249999J0D01*
G01*
X379091001Y-195280000D01*
G75*
G02*
X379341000Y-195529999I0J-249999D01*
G01*
G37*
G36*
G01*
X381130000Y-221068001D02*
X381130000Y-220167999D01*
G75*
G02*
X381379999Y-219918000I249999J0D01*
G01*
X382030001Y-219918000D01*
G75*
G02*
X382280000Y-220167999I0J-249999D01*
G01*
X382280000Y-221068001D01*
G75*
G02*
X382030001Y-221318000I-249999J0D01*
G01*
X381379999Y-221318000D01*
G75*
G02*
X381130000Y-221068001I0J249999D01*
G01*
G37*
G36*
G01*
X379080000Y-221068001D02*
X379080000Y-220167999D01*
G75*
G02*
X379329999Y-219918000I249999J0D01*
G01*
X379980001Y-219918000D01*
G75*
G02*
X380230000Y-220167999I0J-249999D01*
G01*
X380230000Y-221068001D01*
G75*
G02*
X379980001Y-221318000I-249999J0D01*
G01*
X379329999Y-221318000D01*
G75*
G02*
X379080000Y-221068001I0J249999D01*
G01*
G37*
G36*
G01*
X171949999Y-157550000D02*
X172850001Y-157550000D01*
G75*
G02*
X173100000Y-157799999I0J-249999D01*
G01*
X173100000Y-158450001D01*
G75*
G02*
X172850001Y-158700000I-249999J0D01*
G01*
X171949999Y-158700000D01*
G75*
G02*
X171700000Y-158450001I0J249999D01*
G01*
X171700000Y-157799999D01*
G75*
G02*
X171949999Y-157550000I249999J0D01*
G01*
G37*
G36*
G01*
X171949999Y-159600000D02*
X172850001Y-159600000D01*
G75*
G02*
X173100000Y-159849999I0J-249999D01*
G01*
X173100000Y-160500001D01*
G75*
G02*
X172850001Y-160750000I-249999J0D01*
G01*
X171949999Y-160750000D01*
G75*
G02*
X171700000Y-160500001I0J249999D01*
G01*
X171700000Y-159849999D01*
G75*
G02*
X171949999Y-159600000I249999J0D01*
G01*
G37*
G36*
G01*
X165599999Y-159600000D02*
X166500001Y-159600000D01*
G75*
G02*
X166750000Y-159849999I0J-249999D01*
G01*
X166750000Y-160500001D01*
G75*
G02*
X166500001Y-160750000I-249999J0D01*
G01*
X165599999Y-160750000D01*
G75*
G02*
X165350000Y-160500001I0J249999D01*
G01*
X165350000Y-159849999D01*
G75*
G02*
X165599999Y-159600000I249999J0D01*
G01*
G37*
G36*
G01*
X165599999Y-157550000D02*
X166500001Y-157550000D01*
G75*
G02*
X166750000Y-157799999I0J-249999D01*
G01*
X166750000Y-158450001D01*
G75*
G02*
X166500001Y-158700000I-249999J0D01*
G01*
X165599999Y-158700000D01*
G75*
G02*
X165350000Y-158450001I0J249999D01*
G01*
X165350000Y-157799999D01*
G75*
G02*
X165599999Y-157550000I249999J0D01*
G01*
G37*
G36*
G01*
X148720001Y-181070000D02*
X147819999Y-181070000D01*
G75*
G02*
X147570000Y-180820001I0J249999D01*
G01*
X147570000Y-180169999D01*
G75*
G02*
X147819999Y-179920000I249999J0D01*
G01*
X148720001Y-179920000D01*
G75*
G02*
X148970000Y-180169999I0J-249999D01*
G01*
X148970000Y-180820001D01*
G75*
G02*
X148720001Y-181070000I-249999J0D01*
G01*
G37*
G36*
G01*
X148720001Y-179020000D02*
X147819999Y-179020000D01*
G75*
G02*
X147570000Y-178770001I0J249999D01*
G01*
X147570000Y-178119999D01*
G75*
G02*
X147819999Y-177870000I249999J0D01*
G01*
X148720001Y-177870000D01*
G75*
G02*
X148970000Y-178119999I0J-249999D01*
G01*
X148970000Y-178770001D01*
G75*
G02*
X148720001Y-179020000I-249999J0D01*
G01*
G37*
G36*
G01*
X147819999Y-189350000D02*
X148720001Y-189350000D01*
G75*
G02*
X148970000Y-189599999I0J-249999D01*
G01*
X148970000Y-190250001D01*
G75*
G02*
X148720001Y-190500000I-249999J0D01*
G01*
X147819999Y-190500000D01*
G75*
G02*
X147570000Y-190250001I0J249999D01*
G01*
X147570000Y-189599999D01*
G75*
G02*
X147819999Y-189350000I249999J0D01*
G01*
G37*
G36*
G01*
X147819999Y-187300000D02*
X148720001Y-187300000D01*
G75*
G02*
X148970000Y-187549999I0J-249999D01*
G01*
X148970000Y-188200001D01*
G75*
G02*
X148720001Y-188450000I-249999J0D01*
G01*
X147819999Y-188450000D01*
G75*
G02*
X147570000Y-188200001I0J249999D01*
G01*
X147570000Y-187549999D01*
G75*
G02*
X147819999Y-187300000I249999J0D01*
G01*
G37*
D25*
G36*
X378311584Y-205768025D02*
G01*
X377269874Y-206809735D01*
X376910664Y-206450525D01*
X377952374Y-205408815D01*
X378311584Y-205768025D01*
G37*
G36*
X378868360Y-206324801D02*
G01*
X377826650Y-207366511D01*
X377467440Y-207007301D01*
X378509150Y-205965591D01*
X378868360Y-206324801D01*
G37*
G36*
X379443096Y-206899538D02*
G01*
X378401386Y-207941248D01*
X378042176Y-207582038D01*
X379083886Y-206540328D01*
X379443096Y-206899538D01*
G37*
G36*
X379999872Y-207456313D02*
G01*
X378958162Y-208498023D01*
X378598952Y-208138813D01*
X379640662Y-207097103D01*
X379999872Y-207456313D01*
G37*
G36*
X380574608Y-208031050D02*
G01*
X379532898Y-209072760D01*
X379173688Y-208713550D01*
X380215398Y-207671840D01*
X380574608Y-208031050D01*
G37*
G36*
X381131384Y-208587826D02*
G01*
X380089674Y-209629536D01*
X379730464Y-209270326D01*
X380772174Y-208228616D01*
X381131384Y-208587826D01*
G37*
G36*
X381688160Y-209144602D02*
G01*
X380646450Y-210186312D01*
X380287240Y-209827102D01*
X381328950Y-208785392D01*
X381688160Y-209144602D01*
G37*
G36*
X382262897Y-209719338D02*
G01*
X381221187Y-210761048D01*
X380861977Y-210401838D01*
X381903687Y-209360128D01*
X382262897Y-209719338D01*
G37*
G36*
X382819672Y-210276114D02*
G01*
X381777962Y-211317824D01*
X381418752Y-210958614D01*
X382460462Y-209916904D01*
X382819672Y-210276114D01*
G37*
G36*
X383394409Y-210850850D02*
G01*
X382352699Y-211892560D01*
X381993489Y-211533350D01*
X383035199Y-210491640D01*
X383394409Y-210850850D01*
G37*
G36*
X383951185Y-211407626D02*
G01*
X382909475Y-212449336D01*
X382550265Y-212090126D01*
X383591975Y-211048416D01*
X383951185Y-211407626D01*
G37*
G36*
X386070525Y-212449336D02*
G01*
X385028815Y-211407626D01*
X385388025Y-211048416D01*
X386429735Y-212090126D01*
X386070525Y-212449336D01*
G37*
G36*
X386627301Y-211892560D02*
G01*
X385585591Y-210850850D01*
X385944801Y-210491640D01*
X386986511Y-211533350D01*
X386627301Y-211892560D01*
G37*
G36*
X387202038Y-211317824D02*
G01*
X386160328Y-210276114D01*
X386519538Y-209916904D01*
X387561248Y-210958614D01*
X387202038Y-211317824D01*
G37*
G36*
X387758813Y-210761048D02*
G01*
X386717103Y-209719338D01*
X387076313Y-209360128D01*
X388118023Y-210401838D01*
X387758813Y-210761048D01*
G37*
G36*
X388333550Y-210186312D02*
G01*
X387291840Y-209144602D01*
X387651050Y-208785392D01*
X388692760Y-209827102D01*
X388333550Y-210186312D01*
G37*
G36*
X388890326Y-209629536D02*
G01*
X387848616Y-208587826D01*
X388207826Y-208228616D01*
X389249536Y-209270326D01*
X388890326Y-209629536D01*
G37*
G36*
X389447102Y-209072760D02*
G01*
X388405392Y-208031050D01*
X388764602Y-207671840D01*
X389806312Y-208713550D01*
X389447102Y-209072760D01*
G37*
G36*
X390021838Y-208498023D02*
G01*
X388980128Y-207456313D01*
X389339338Y-207097103D01*
X390381048Y-208138813D01*
X390021838Y-208498023D01*
G37*
G36*
X390578614Y-207941248D02*
G01*
X389536904Y-206899538D01*
X389896114Y-206540328D01*
X390937824Y-207582038D01*
X390578614Y-207941248D01*
G37*
G36*
X391153350Y-207366511D02*
G01*
X390111640Y-206324801D01*
X390470850Y-205965591D01*
X391512560Y-207007301D01*
X391153350Y-207366511D01*
G37*
G36*
X391710126Y-206809735D02*
G01*
X390668416Y-205768025D01*
X391027626Y-205408815D01*
X392069336Y-206450525D01*
X391710126Y-206809735D01*
G37*
G36*
X392069336Y-203289475D02*
G01*
X391027626Y-204331185D01*
X390668416Y-203971975D01*
X391710126Y-202930265D01*
X392069336Y-203289475D01*
G37*
G36*
X391512560Y-202732699D02*
G01*
X390470850Y-203774409D01*
X390111640Y-203415199D01*
X391153350Y-202373489D01*
X391512560Y-202732699D01*
G37*
G36*
X390937824Y-202157962D02*
G01*
X389896114Y-203199672D01*
X389536904Y-202840462D01*
X390578614Y-201798752D01*
X390937824Y-202157962D01*
G37*
G36*
X390381048Y-201601187D02*
G01*
X389339338Y-202642897D01*
X388980128Y-202283687D01*
X390021838Y-201241977D01*
X390381048Y-201601187D01*
G37*
G36*
X389806312Y-201026450D02*
G01*
X388764602Y-202068160D01*
X388405392Y-201708950D01*
X389447102Y-200667240D01*
X389806312Y-201026450D01*
G37*
G36*
X389249536Y-200469674D02*
G01*
X388207826Y-201511384D01*
X387848616Y-201152174D01*
X388890326Y-200110464D01*
X389249536Y-200469674D01*
G37*
G36*
X388692760Y-199912898D02*
G01*
X387651050Y-200954608D01*
X387291840Y-200595398D01*
X388333550Y-199553688D01*
X388692760Y-199912898D01*
G37*
G36*
X388118023Y-199338162D02*
G01*
X387076313Y-200379872D01*
X386717103Y-200020662D01*
X387758813Y-198978952D01*
X388118023Y-199338162D01*
G37*
G36*
X387561248Y-198781386D02*
G01*
X386519538Y-199823096D01*
X386160328Y-199463886D01*
X387202038Y-198422176D01*
X387561248Y-198781386D01*
G37*
G36*
X386986511Y-198206650D02*
G01*
X385944801Y-199248360D01*
X385585591Y-198889150D01*
X386627301Y-197847440D01*
X386986511Y-198206650D01*
G37*
G36*
X386429735Y-197649874D02*
G01*
X385388025Y-198691584D01*
X385028815Y-198332374D01*
X386070525Y-197290664D01*
X386429735Y-197649874D01*
G37*
G36*
X383591975Y-198691584D02*
G01*
X382550265Y-197649874D01*
X382909475Y-197290664D01*
X383951185Y-198332374D01*
X383591975Y-198691584D01*
G37*
G36*
X383035199Y-199248360D02*
G01*
X381993489Y-198206650D01*
X382352699Y-197847440D01*
X383394409Y-198889150D01*
X383035199Y-199248360D01*
G37*
G36*
X382460462Y-199823096D02*
G01*
X381418752Y-198781386D01*
X381777962Y-198422176D01*
X382819672Y-199463886D01*
X382460462Y-199823096D01*
G37*
G36*
X381903687Y-200379872D02*
G01*
X380861977Y-199338162D01*
X381221187Y-198978952D01*
X382262897Y-200020662D01*
X381903687Y-200379872D01*
G37*
G36*
X381328950Y-200954608D02*
G01*
X380287240Y-199912898D01*
X380646450Y-199553688D01*
X381688160Y-200595398D01*
X381328950Y-200954608D01*
G37*
G36*
X380772174Y-201511384D02*
G01*
X379730464Y-200469674D01*
X380089674Y-200110464D01*
X381131384Y-201152174D01*
X380772174Y-201511384D01*
G37*
G36*
X380215398Y-202068160D02*
G01*
X379173688Y-201026450D01*
X379532898Y-200667240D01*
X380574608Y-201708950D01*
X380215398Y-202068160D01*
G37*
G36*
X379640662Y-202642897D02*
G01*
X378598952Y-201601187D01*
X378958162Y-201241977D01*
X379999872Y-202283687D01*
X379640662Y-202642897D01*
G37*
G36*
X379083886Y-203199672D02*
G01*
X378042176Y-202157962D01*
X378401386Y-201798752D01*
X379443096Y-202840462D01*
X379083886Y-203199672D01*
G37*
G36*
X378509150Y-203774409D02*
G01*
X377467440Y-202732699D01*
X377826650Y-202373489D01*
X378868360Y-203415199D01*
X378509150Y-203774409D01*
G37*
G36*
X377952374Y-204331185D02*
G01*
X376910664Y-203289475D01*
X377269874Y-202930265D01*
X378311584Y-203971975D01*
X377952374Y-204331185D01*
G37*
D26*
X391078000Y-185858000D03*
X388678000Y-185858000D03*
X391078000Y-187558000D03*
X388678000Y-187558000D03*
D10*
X153020000Y-164222000D03*
D19*
X158100000Y-166762000D03*
D10*
X155560000Y-170572000D03*
D22*
X158100000Y-171842000D03*
X158100000Y-161682000D03*
D23*
X155560000Y-173847000D03*
X153020000Y-160920000D03*
M02*
