G04 #@! TF.GenerationSoftware,KiCad,Pcbnew,(5.1.6)-1*
G04 #@! TF.CreationDate,2020-07-30T14:32:44-07:00*
G04 #@! TF.ProjectId,keyboard_test6,6b657962-6f61-4726-945f-74657374362e,rev?*
G04 #@! TF.SameCoordinates,Original*
G04 #@! TF.FileFunction,Paste,Bot*
G04 #@! TF.FilePolarity,Positive*
%FSLAX46Y46*%
G04 Gerber Fmt 4.6, Leading zero omitted, Abs format (unit mm)*
G04 Created by KiCad (PCBNEW (5.1.6)-1) date 2020-07-30 14:32:44*
%MOMM*%
%LPD*%
G01*
G04 APERTURE LIST*
%ADD10C,3.000000*%
%ADD11R,2.180000X2.000000*%
%ADD12R,0.300000X1.150000*%
%ADD13R,0.600000X1.150000*%
%ADD14R,2.550000X2.500000*%
%ADD15R,2.500000X2.550000*%
%ADD16R,1.000000X1.700000*%
%ADD17C,0.100000*%
%ADD18R,1.400000X1.200000*%
G04 APERTURE END LIST*
D10*
X426146000Y-183534000D03*
X419034000Y-183534000D03*
X386014000Y-220364000D03*
D11*
X167972000Y-139570000D03*
X157752000Y-139570000D03*
X167972000Y-143500000D03*
X157752000Y-143500000D03*
D12*
X163112000Y-144075000D03*
X162612000Y-144075000D03*
X163612000Y-144075000D03*
X162112000Y-144075000D03*
X164112000Y-144075000D03*
X161612000Y-144075000D03*
X164612000Y-144075000D03*
X161112000Y-144075000D03*
D13*
X166062000Y-144075000D03*
X165262000Y-144075000D03*
X160462000Y-144075000D03*
X159662000Y-144075000D03*
D14*
X159402000Y-209942000D03*
X172329000Y-207402000D03*
X404670000Y-152792000D03*
X417597000Y-150252000D03*
X402289000Y-190892000D03*
X415216000Y-188352000D03*
X397527000Y-209942000D03*
X410454000Y-207402000D03*
X230839000Y-228992000D03*
X243766000Y-226452000D03*
X315204000Y-226452000D03*
X302277000Y-228992000D03*
X411814000Y-228992000D03*
X424741000Y-226452000D03*
X154639000Y-190892000D03*
X167566000Y-188352000D03*
X409433000Y-171842000D03*
X422360000Y-169302000D03*
D15*
X148258000Y-141870000D03*
X150798000Y-154797000D03*
D14*
X166546000Y-152792000D03*
X179473000Y-150252000D03*
X185596000Y-152792000D03*
X198523000Y-150252000D03*
X204646000Y-152792000D03*
X217573000Y-150252000D03*
X223696000Y-152792000D03*
X236623000Y-150252000D03*
X242746000Y-152792000D03*
X255673000Y-150252000D03*
X261796000Y-152792000D03*
X274723000Y-150252000D03*
X280846000Y-152792000D03*
X293773000Y-150252000D03*
X299896000Y-152792000D03*
X312823000Y-150252000D03*
X318946000Y-152792000D03*
X331873000Y-150252000D03*
X337996000Y-152792000D03*
X350923000Y-150252000D03*
X357046000Y-152792000D03*
X369973000Y-150252000D03*
X376096000Y-152792000D03*
X389023000Y-150252000D03*
X176070000Y-171842000D03*
X188997000Y-169302000D03*
X195120000Y-171842000D03*
X208047000Y-169302000D03*
X214170000Y-171842000D03*
X227097000Y-169302000D03*
X233220000Y-171842000D03*
X246147000Y-169302000D03*
X252270000Y-171842000D03*
X265197000Y-169302000D03*
X271320000Y-171842000D03*
X284247000Y-169302000D03*
X290370000Y-171842000D03*
X303297000Y-169302000D03*
X309420000Y-171842000D03*
X322347000Y-169302000D03*
X328470000Y-171842000D03*
X341397000Y-169302000D03*
X347520000Y-171842000D03*
X360447000Y-169302000D03*
X366570000Y-171842000D03*
X379497000Y-169302000D03*
D15*
X386382000Y-160920000D03*
X388922000Y-173847000D03*
D14*
X180833000Y-190892000D03*
X193760000Y-188352000D03*
X199883000Y-190892000D03*
X212810000Y-188352000D03*
X218933000Y-190892000D03*
X231860000Y-188352000D03*
X237983000Y-190892000D03*
X250910000Y-188352000D03*
D15*
X257795000Y-179970000D03*
X260335000Y-192897000D03*
X287005000Y-191654000D03*
X284465000Y-178727000D03*
D14*
X295133000Y-190892000D03*
X308060000Y-188352000D03*
X314183000Y-190892000D03*
X327110000Y-188352000D03*
X333233000Y-190892000D03*
X346160000Y-188352000D03*
X352283000Y-190892000D03*
X365210000Y-188352000D03*
X371333000Y-190892000D03*
X384260000Y-188352000D03*
X190358000Y-209942000D03*
X203285000Y-207402000D03*
X209408000Y-209942000D03*
X222335000Y-207402000D03*
X228458000Y-209942000D03*
X241385000Y-207402000D03*
X247508000Y-209942000D03*
X260435000Y-207402000D03*
X266558000Y-209942000D03*
X279485000Y-207402000D03*
X285608000Y-209942000D03*
X298535000Y-207402000D03*
X304658000Y-209942000D03*
X317585000Y-207402000D03*
X323708000Y-209942000D03*
X336635000Y-207402000D03*
X342758000Y-209942000D03*
X355685000Y-207402000D03*
X374735000Y-207402000D03*
X361808000Y-209942000D03*
X186616000Y-226452000D03*
X173689000Y-228992000D03*
X210429000Y-226452000D03*
X197502000Y-228992000D03*
X264177000Y-228992000D03*
X277104000Y-226452000D03*
X340377000Y-228992000D03*
X353304000Y-226452000D03*
X364189000Y-228992000D03*
X377116000Y-226452000D03*
X388002000Y-228992000D03*
X400929000Y-226452000D03*
X162804000Y-226452000D03*
X149877000Y-228992000D03*
G36*
G01*
X389900000Y-191257999D02*
X389900000Y-192158001D01*
G75*
G02*
X389650001Y-192408000I-249999J0D01*
G01*
X388999999Y-192408000D01*
G75*
G02*
X388750000Y-192158001I0J249999D01*
G01*
X388750000Y-191257999D01*
G75*
G02*
X388999999Y-191008000I249999J0D01*
G01*
X389650001Y-191008000D01*
G75*
G02*
X389900000Y-191257999I0J-249999D01*
G01*
G37*
G36*
G01*
X387850000Y-191257999D02*
X387850000Y-192158001D01*
G75*
G02*
X387600001Y-192408000I-249999J0D01*
G01*
X386949999Y-192408000D01*
G75*
G02*
X386700000Y-192158001I0J249999D01*
G01*
X386700000Y-191257999D01*
G75*
G02*
X386949999Y-191008000I249999J0D01*
G01*
X387600001Y-191008000D01*
G75*
G02*
X387850000Y-191257999I0J-249999D01*
G01*
G37*
G36*
G01*
X394320000Y-188810001D02*
X394320000Y-187909999D01*
G75*
G02*
X394569999Y-187660000I249999J0D01*
G01*
X395220001Y-187660000D01*
G75*
G02*
X395470000Y-187909999I0J-249999D01*
G01*
X395470000Y-188810001D01*
G75*
G02*
X395220001Y-189060000I-249999J0D01*
G01*
X394569999Y-189060000D01*
G75*
G02*
X394320000Y-188810001I0J249999D01*
G01*
G37*
G36*
G01*
X396370000Y-188810001D02*
X396370000Y-187909999D01*
G75*
G02*
X396619999Y-187660000I249999J0D01*
G01*
X397270001Y-187660000D01*
G75*
G02*
X397520000Y-187909999I0J-249999D01*
G01*
X397520000Y-188810001D01*
G75*
G02*
X397270001Y-189060000I-249999J0D01*
G01*
X396619999Y-189060000D01*
G75*
G02*
X396370000Y-188810001I0J249999D01*
G01*
G37*
D16*
X171700000Y-182662000D03*
X171700000Y-188962000D03*
X175500000Y-182662000D03*
X175500000Y-188962000D03*
G36*
G01*
X374508000Y-199605001D02*
X374508000Y-198704999D01*
G75*
G02*
X374757999Y-198455000I249999J0D01*
G01*
X375408001Y-198455000D01*
G75*
G02*
X375658000Y-198704999I0J-249999D01*
G01*
X375658000Y-199605001D01*
G75*
G02*
X375408001Y-199855000I-249999J0D01*
G01*
X374757999Y-199855000D01*
G75*
G02*
X374508000Y-199605001I0J249999D01*
G01*
G37*
G36*
G01*
X376558000Y-199605001D02*
X376558000Y-198704999D01*
G75*
G02*
X376807999Y-198455000I249999J0D01*
G01*
X377458001Y-198455000D01*
G75*
G02*
X377708000Y-198704999I0J-249999D01*
G01*
X377708000Y-199605001D01*
G75*
G02*
X377458001Y-199855000I-249999J0D01*
G01*
X376807999Y-199855000D01*
G75*
G02*
X376558000Y-199605001I0J249999D01*
G01*
G37*
G36*
G01*
X414400000Y-203450001D02*
X414400000Y-202549999D01*
G75*
G02*
X414649999Y-202300000I249999J0D01*
G01*
X415300001Y-202300000D01*
G75*
G02*
X415550000Y-202549999I0J-249999D01*
G01*
X415550000Y-203450001D01*
G75*
G02*
X415300001Y-203700000I-249999J0D01*
G01*
X414649999Y-203700000D01*
G75*
G02*
X414400000Y-203450001I0J249999D01*
G01*
G37*
G36*
G01*
X416450000Y-203450001D02*
X416450000Y-202549999D01*
G75*
G02*
X416699999Y-202300000I249999J0D01*
G01*
X417350001Y-202300000D01*
G75*
G02*
X417600000Y-202549999I0J-249999D01*
G01*
X417600000Y-203450001D01*
G75*
G02*
X417350001Y-203700000I-249999J0D01*
G01*
X416699999Y-203700000D01*
G75*
G02*
X416450000Y-203450001I0J249999D01*
G01*
G37*
G36*
G01*
X417719000Y-208128001D02*
X417719000Y-207227999D01*
G75*
G02*
X417968999Y-206978000I249999J0D01*
G01*
X418619001Y-206978000D01*
G75*
G02*
X418869000Y-207227999I0J-249999D01*
G01*
X418869000Y-208128001D01*
G75*
G02*
X418619001Y-208378000I-249999J0D01*
G01*
X417968999Y-208378000D01*
G75*
G02*
X417719000Y-208128001I0J249999D01*
G01*
G37*
G36*
G01*
X419769000Y-208128001D02*
X419769000Y-207227999D01*
G75*
G02*
X420018999Y-206978000I249999J0D01*
G01*
X420669001Y-206978000D01*
G75*
G02*
X420919000Y-207227999I0J-249999D01*
G01*
X420919000Y-208128001D01*
G75*
G02*
X420669001Y-208378000I-249999J0D01*
G01*
X420018999Y-208378000D01*
G75*
G02*
X419769000Y-208128001I0J249999D01*
G01*
G37*
G36*
G01*
X424094000Y-214502001D02*
X424094000Y-213601999D01*
G75*
G02*
X424343999Y-213352000I249999J0D01*
G01*
X424994001Y-213352000D01*
G75*
G02*
X425244000Y-213601999I0J-249999D01*
G01*
X425244000Y-214502001D01*
G75*
G02*
X424994001Y-214752000I-249999J0D01*
G01*
X424343999Y-214752000D01*
G75*
G02*
X424094000Y-214502001I0J249999D01*
G01*
G37*
G36*
G01*
X426144000Y-214502001D02*
X426144000Y-213601999D01*
G75*
G02*
X426393999Y-213352000I249999J0D01*
G01*
X427044001Y-213352000D01*
G75*
G02*
X427294000Y-213601999I0J-249999D01*
G01*
X427294000Y-214502001D01*
G75*
G02*
X427044001Y-214752000I-249999J0D01*
G01*
X426393999Y-214752000D01*
G75*
G02*
X426144000Y-214502001I0J249999D01*
G01*
G37*
G36*
G01*
X424094000Y-208128001D02*
X424094000Y-207227999D01*
G75*
G02*
X424343999Y-206978000I249999J0D01*
G01*
X424994001Y-206978000D01*
G75*
G02*
X425244000Y-207227999I0J-249999D01*
G01*
X425244000Y-208128001D01*
G75*
G02*
X424994001Y-208378000I-249999J0D01*
G01*
X424343999Y-208378000D01*
G75*
G02*
X424094000Y-208128001I0J249999D01*
G01*
G37*
G36*
G01*
X426144000Y-208128001D02*
X426144000Y-207227999D01*
G75*
G02*
X426393999Y-206978000I249999J0D01*
G01*
X427044001Y-206978000D01*
G75*
G02*
X427294000Y-207227999I0J-249999D01*
G01*
X427294000Y-208128001D01*
G75*
G02*
X427044001Y-208378000I-249999J0D01*
G01*
X426393999Y-208378000D01*
G75*
G02*
X426144000Y-208128001I0J249999D01*
G01*
G37*
G36*
G01*
X424094000Y-201846001D02*
X424094000Y-200945999D01*
G75*
G02*
X424343999Y-200696000I249999J0D01*
G01*
X424994001Y-200696000D01*
G75*
G02*
X425244000Y-200945999I0J-249999D01*
G01*
X425244000Y-201846001D01*
G75*
G02*
X424994001Y-202096000I-249999J0D01*
G01*
X424343999Y-202096000D01*
G75*
G02*
X424094000Y-201846001I0J249999D01*
G01*
G37*
G36*
G01*
X426144000Y-201846001D02*
X426144000Y-200945999D01*
G75*
G02*
X426393999Y-200696000I249999J0D01*
G01*
X427044001Y-200696000D01*
G75*
G02*
X427294000Y-200945999I0J-249999D01*
G01*
X427294000Y-201846001D01*
G75*
G02*
X427044001Y-202096000I-249999J0D01*
G01*
X426393999Y-202096000D01*
G75*
G02*
X426144000Y-201846001I0J249999D01*
G01*
G37*
G36*
G01*
X381391000Y-195529999D02*
X381391000Y-196430001D01*
G75*
G02*
X381141001Y-196680000I-249999J0D01*
G01*
X380490999Y-196680000D01*
G75*
G02*
X380241000Y-196430001I0J249999D01*
G01*
X380241000Y-195529999D01*
G75*
G02*
X380490999Y-195280000I249999J0D01*
G01*
X381141001Y-195280000D01*
G75*
G02*
X381391000Y-195529999I0J-249999D01*
G01*
G37*
G36*
G01*
X379341000Y-195529999D02*
X379341000Y-196430001D01*
G75*
G02*
X379091001Y-196680000I-249999J0D01*
G01*
X378440999Y-196680000D01*
G75*
G02*
X378191000Y-196430001I0J249999D01*
G01*
X378191000Y-195529999D01*
G75*
G02*
X378440999Y-195280000I249999J0D01*
G01*
X379091001Y-195280000D01*
G75*
G02*
X379341000Y-195529999I0J-249999D01*
G01*
G37*
G36*
G01*
X381130000Y-221068001D02*
X381130000Y-220167999D01*
G75*
G02*
X381379999Y-219918000I249999J0D01*
G01*
X382030001Y-219918000D01*
G75*
G02*
X382280000Y-220167999I0J-249999D01*
G01*
X382280000Y-221068001D01*
G75*
G02*
X382030001Y-221318000I-249999J0D01*
G01*
X381379999Y-221318000D01*
G75*
G02*
X381130000Y-221068001I0J249999D01*
G01*
G37*
G36*
G01*
X379080000Y-221068001D02*
X379080000Y-220167999D01*
G75*
G02*
X379329999Y-219918000I249999J0D01*
G01*
X379980001Y-219918000D01*
G75*
G02*
X380230000Y-220167999I0J-249999D01*
G01*
X380230000Y-221068001D01*
G75*
G02*
X379980001Y-221318000I-249999J0D01*
G01*
X379329999Y-221318000D01*
G75*
G02*
X379080000Y-221068001I0J249999D01*
G01*
G37*
G36*
G01*
X171949999Y-157550000D02*
X172850001Y-157550000D01*
G75*
G02*
X173100000Y-157799999I0J-249999D01*
G01*
X173100000Y-158450001D01*
G75*
G02*
X172850001Y-158700000I-249999J0D01*
G01*
X171949999Y-158700000D01*
G75*
G02*
X171700000Y-158450001I0J249999D01*
G01*
X171700000Y-157799999D01*
G75*
G02*
X171949999Y-157550000I249999J0D01*
G01*
G37*
G36*
G01*
X171949999Y-159600000D02*
X172850001Y-159600000D01*
G75*
G02*
X173100000Y-159849999I0J-249999D01*
G01*
X173100000Y-160500001D01*
G75*
G02*
X172850001Y-160750000I-249999J0D01*
G01*
X171949999Y-160750000D01*
G75*
G02*
X171700000Y-160500001I0J249999D01*
G01*
X171700000Y-159849999D01*
G75*
G02*
X171949999Y-159600000I249999J0D01*
G01*
G37*
G36*
G01*
X165599999Y-159600000D02*
X166500001Y-159600000D01*
G75*
G02*
X166750000Y-159849999I0J-249999D01*
G01*
X166750000Y-160500001D01*
G75*
G02*
X166500001Y-160750000I-249999J0D01*
G01*
X165599999Y-160750000D01*
G75*
G02*
X165350000Y-160500001I0J249999D01*
G01*
X165350000Y-159849999D01*
G75*
G02*
X165599999Y-159600000I249999J0D01*
G01*
G37*
G36*
G01*
X165599999Y-157550000D02*
X166500001Y-157550000D01*
G75*
G02*
X166750000Y-157799999I0J-249999D01*
G01*
X166750000Y-158450001D01*
G75*
G02*
X166500001Y-158700000I-249999J0D01*
G01*
X165599999Y-158700000D01*
G75*
G02*
X165350000Y-158450001I0J249999D01*
G01*
X165350000Y-157799999D01*
G75*
G02*
X165599999Y-157550000I249999J0D01*
G01*
G37*
G36*
G01*
X148720001Y-181070000D02*
X147819999Y-181070000D01*
G75*
G02*
X147570000Y-180820001I0J249999D01*
G01*
X147570000Y-180169999D01*
G75*
G02*
X147819999Y-179920000I249999J0D01*
G01*
X148720001Y-179920000D01*
G75*
G02*
X148970000Y-180169999I0J-249999D01*
G01*
X148970000Y-180820001D01*
G75*
G02*
X148720001Y-181070000I-249999J0D01*
G01*
G37*
G36*
G01*
X148720001Y-179020000D02*
X147819999Y-179020000D01*
G75*
G02*
X147570000Y-178770001I0J249999D01*
G01*
X147570000Y-178119999D01*
G75*
G02*
X147819999Y-177870000I249999J0D01*
G01*
X148720001Y-177870000D01*
G75*
G02*
X148970000Y-178119999I0J-249999D01*
G01*
X148970000Y-178770001D01*
G75*
G02*
X148720001Y-179020000I-249999J0D01*
G01*
G37*
G36*
G01*
X147819999Y-189350000D02*
X148720001Y-189350000D01*
G75*
G02*
X148970000Y-189599999I0J-249999D01*
G01*
X148970000Y-190250001D01*
G75*
G02*
X148720001Y-190500000I-249999J0D01*
G01*
X147819999Y-190500000D01*
G75*
G02*
X147570000Y-190250001I0J249999D01*
G01*
X147570000Y-189599999D01*
G75*
G02*
X147819999Y-189350000I249999J0D01*
G01*
G37*
G36*
G01*
X147819999Y-187300000D02*
X148720001Y-187300000D01*
G75*
G02*
X148970000Y-187549999I0J-249999D01*
G01*
X148970000Y-188200001D01*
G75*
G02*
X148720001Y-188450000I-249999J0D01*
G01*
X147819999Y-188450000D01*
G75*
G02*
X147570000Y-188200001I0J249999D01*
G01*
X147570000Y-187549999D01*
G75*
G02*
X147819999Y-187300000I249999J0D01*
G01*
G37*
D17*
G36*
X378311584Y-205768025D02*
G01*
X377269874Y-206809735D01*
X376910664Y-206450525D01*
X377952374Y-205408815D01*
X378311584Y-205768025D01*
G37*
G36*
X378868360Y-206324801D02*
G01*
X377826650Y-207366511D01*
X377467440Y-207007301D01*
X378509150Y-205965591D01*
X378868360Y-206324801D01*
G37*
G36*
X379443096Y-206899538D02*
G01*
X378401386Y-207941248D01*
X378042176Y-207582038D01*
X379083886Y-206540328D01*
X379443096Y-206899538D01*
G37*
G36*
X379999872Y-207456313D02*
G01*
X378958162Y-208498023D01*
X378598952Y-208138813D01*
X379640662Y-207097103D01*
X379999872Y-207456313D01*
G37*
G36*
X380574608Y-208031050D02*
G01*
X379532898Y-209072760D01*
X379173688Y-208713550D01*
X380215398Y-207671840D01*
X380574608Y-208031050D01*
G37*
G36*
X381131384Y-208587826D02*
G01*
X380089674Y-209629536D01*
X379730464Y-209270326D01*
X380772174Y-208228616D01*
X381131384Y-208587826D01*
G37*
G36*
X381688160Y-209144602D02*
G01*
X380646450Y-210186312D01*
X380287240Y-209827102D01*
X381328950Y-208785392D01*
X381688160Y-209144602D01*
G37*
G36*
X382262897Y-209719338D02*
G01*
X381221187Y-210761048D01*
X380861977Y-210401838D01*
X381903687Y-209360128D01*
X382262897Y-209719338D01*
G37*
G36*
X382819672Y-210276114D02*
G01*
X381777962Y-211317824D01*
X381418752Y-210958614D01*
X382460462Y-209916904D01*
X382819672Y-210276114D01*
G37*
G36*
X383394409Y-210850850D02*
G01*
X382352699Y-211892560D01*
X381993489Y-211533350D01*
X383035199Y-210491640D01*
X383394409Y-210850850D01*
G37*
G36*
X383951185Y-211407626D02*
G01*
X382909475Y-212449336D01*
X382550265Y-212090126D01*
X383591975Y-211048416D01*
X383951185Y-211407626D01*
G37*
G36*
X386070525Y-212449336D02*
G01*
X385028815Y-211407626D01*
X385388025Y-211048416D01*
X386429735Y-212090126D01*
X386070525Y-212449336D01*
G37*
G36*
X386627301Y-211892560D02*
G01*
X385585591Y-210850850D01*
X385944801Y-210491640D01*
X386986511Y-211533350D01*
X386627301Y-211892560D01*
G37*
G36*
X387202038Y-211317824D02*
G01*
X386160328Y-210276114D01*
X386519538Y-209916904D01*
X387561248Y-210958614D01*
X387202038Y-211317824D01*
G37*
G36*
X387758813Y-210761048D02*
G01*
X386717103Y-209719338D01*
X387076313Y-209360128D01*
X388118023Y-210401838D01*
X387758813Y-210761048D01*
G37*
G36*
X388333550Y-210186312D02*
G01*
X387291840Y-209144602D01*
X387651050Y-208785392D01*
X388692760Y-209827102D01*
X388333550Y-210186312D01*
G37*
G36*
X388890326Y-209629536D02*
G01*
X387848616Y-208587826D01*
X388207826Y-208228616D01*
X389249536Y-209270326D01*
X388890326Y-209629536D01*
G37*
G36*
X389447102Y-209072760D02*
G01*
X388405392Y-208031050D01*
X388764602Y-207671840D01*
X389806312Y-208713550D01*
X389447102Y-209072760D01*
G37*
G36*
X390021838Y-208498023D02*
G01*
X388980128Y-207456313D01*
X389339338Y-207097103D01*
X390381048Y-208138813D01*
X390021838Y-208498023D01*
G37*
G36*
X390578614Y-207941248D02*
G01*
X389536904Y-206899538D01*
X389896114Y-206540328D01*
X390937824Y-207582038D01*
X390578614Y-207941248D01*
G37*
G36*
X391153350Y-207366511D02*
G01*
X390111640Y-206324801D01*
X390470850Y-205965591D01*
X391512560Y-207007301D01*
X391153350Y-207366511D01*
G37*
G36*
X391710126Y-206809735D02*
G01*
X390668416Y-205768025D01*
X391027626Y-205408815D01*
X392069336Y-206450525D01*
X391710126Y-206809735D01*
G37*
G36*
X392069336Y-203289475D02*
G01*
X391027626Y-204331185D01*
X390668416Y-203971975D01*
X391710126Y-202930265D01*
X392069336Y-203289475D01*
G37*
G36*
X391512560Y-202732699D02*
G01*
X390470850Y-203774409D01*
X390111640Y-203415199D01*
X391153350Y-202373489D01*
X391512560Y-202732699D01*
G37*
G36*
X390937824Y-202157962D02*
G01*
X389896114Y-203199672D01*
X389536904Y-202840462D01*
X390578614Y-201798752D01*
X390937824Y-202157962D01*
G37*
G36*
X390381048Y-201601187D02*
G01*
X389339338Y-202642897D01*
X388980128Y-202283687D01*
X390021838Y-201241977D01*
X390381048Y-201601187D01*
G37*
G36*
X389806312Y-201026450D02*
G01*
X388764602Y-202068160D01*
X388405392Y-201708950D01*
X389447102Y-200667240D01*
X389806312Y-201026450D01*
G37*
G36*
X389249536Y-200469674D02*
G01*
X388207826Y-201511384D01*
X387848616Y-201152174D01*
X388890326Y-200110464D01*
X389249536Y-200469674D01*
G37*
G36*
X388692760Y-199912898D02*
G01*
X387651050Y-200954608D01*
X387291840Y-200595398D01*
X388333550Y-199553688D01*
X388692760Y-199912898D01*
G37*
G36*
X388118023Y-199338162D02*
G01*
X387076313Y-200379872D01*
X386717103Y-200020662D01*
X387758813Y-198978952D01*
X388118023Y-199338162D01*
G37*
G36*
X387561248Y-198781386D02*
G01*
X386519538Y-199823096D01*
X386160328Y-199463886D01*
X387202038Y-198422176D01*
X387561248Y-198781386D01*
G37*
G36*
X386986511Y-198206650D02*
G01*
X385944801Y-199248360D01*
X385585591Y-198889150D01*
X386627301Y-197847440D01*
X386986511Y-198206650D01*
G37*
G36*
X386429735Y-197649874D02*
G01*
X385388025Y-198691584D01*
X385028815Y-198332374D01*
X386070525Y-197290664D01*
X386429735Y-197649874D01*
G37*
G36*
X383591975Y-198691584D02*
G01*
X382550265Y-197649874D01*
X382909475Y-197290664D01*
X383951185Y-198332374D01*
X383591975Y-198691584D01*
G37*
G36*
X383035199Y-199248360D02*
G01*
X381993489Y-198206650D01*
X382352699Y-197847440D01*
X383394409Y-198889150D01*
X383035199Y-199248360D01*
G37*
G36*
X382460462Y-199823096D02*
G01*
X381418752Y-198781386D01*
X381777962Y-198422176D01*
X382819672Y-199463886D01*
X382460462Y-199823096D01*
G37*
G36*
X381903687Y-200379872D02*
G01*
X380861977Y-199338162D01*
X381221187Y-198978952D01*
X382262897Y-200020662D01*
X381903687Y-200379872D01*
G37*
G36*
X381328950Y-200954608D02*
G01*
X380287240Y-199912898D01*
X380646450Y-199553688D01*
X381688160Y-200595398D01*
X381328950Y-200954608D01*
G37*
G36*
X380772174Y-201511384D02*
G01*
X379730464Y-200469674D01*
X380089674Y-200110464D01*
X381131384Y-201152174D01*
X380772174Y-201511384D01*
G37*
G36*
X380215398Y-202068160D02*
G01*
X379173688Y-201026450D01*
X379532898Y-200667240D01*
X380574608Y-201708950D01*
X380215398Y-202068160D01*
G37*
G36*
X379640662Y-202642897D02*
G01*
X378598952Y-201601187D01*
X378958162Y-201241977D01*
X379999872Y-202283687D01*
X379640662Y-202642897D01*
G37*
G36*
X379083886Y-203199672D02*
G01*
X378042176Y-202157962D01*
X378401386Y-201798752D01*
X379443096Y-202840462D01*
X379083886Y-203199672D01*
G37*
G36*
X378509150Y-203774409D02*
G01*
X377467440Y-202732699D01*
X377826650Y-202373489D01*
X378868360Y-203415199D01*
X378509150Y-203774409D01*
G37*
G36*
X377952374Y-204331185D02*
G01*
X376910664Y-203289475D01*
X377269874Y-202930265D01*
X378311584Y-203971975D01*
X377952374Y-204331185D01*
G37*
D18*
X391078000Y-185858000D03*
X388678000Y-185858000D03*
X391078000Y-187558000D03*
X388678000Y-187558000D03*
D15*
X155560000Y-173847000D03*
X153020000Y-160920000D03*
M02*
