G04 #@! TF.GenerationSoftware,KiCad,Pcbnew,(5.1.6)-1*
G04 #@! TF.CreationDate,2020-07-30T14:32:44-07:00*
G04 #@! TF.ProjectId,keyboard_test6,6b657962-6f61-4726-945f-74657374362e,rev?*
G04 #@! TF.SameCoordinates,Original*
G04 #@! TF.FileFunction,Legend,Bot*
G04 #@! TF.FilePolarity,Positive*
%FSLAX46Y46*%
G04 Gerber Fmt 4.6, Leading zero omitted, Abs format (unit mm)*
G04 Created by KiCad (PCBNEW (5.1.6)-1) date 2020-07-30 14:32:44*
%MOMM*%
%LPD*%
G01*
G04 APERTURE LIST*
%ADD10C,0.500000*%
%ADD11C,0.200000*%
%ADD12C,0.120000*%
%ADD13C,0.152400*%
%ADD14C,0.150000*%
%ADD15C,0.050000*%
G04 APERTURE END LIST*
D10*
X298158732Y-225269142D02*
X297783732Y-222269142D01*
X296640875Y-222269142D01*
X296373017Y-222412000D01*
X296248017Y-222554857D01*
X296140875Y-222840571D01*
X296194446Y-223269142D01*
X296373017Y-223554857D01*
X296533732Y-223697714D01*
X296837303Y-223840571D01*
X297980160Y-223840571D01*
X295158732Y-225269142D02*
X294783732Y-222269142D01*
X293873017Y-225269142D02*
X293676589Y-223697714D01*
X293783732Y-223412000D01*
X294051589Y-223269142D01*
X294480160Y-223269142D01*
X294783732Y-223412000D01*
X294944446Y-223554857D01*
X292015875Y-225269142D02*
X292283732Y-225126285D01*
X292390875Y-224840571D01*
X292069446Y-222269142D01*
X290444446Y-225269142D02*
X290712303Y-225126285D01*
X290837303Y-224983428D01*
X290944446Y-224697714D01*
X290837303Y-223840571D01*
X290658732Y-223554857D01*
X290498017Y-223412000D01*
X290194446Y-223269142D01*
X289765875Y-223269142D01*
X289498017Y-223412000D01*
X289373017Y-223554857D01*
X289265875Y-223840571D01*
X289373017Y-224697714D01*
X289551589Y-224983428D01*
X289712303Y-225126285D01*
X290015875Y-225269142D01*
X290444446Y-225269142D01*
X286873017Y-225269142D02*
X286676589Y-223697714D01*
X286783732Y-223412000D01*
X287051589Y-223269142D01*
X287623017Y-223269142D01*
X287926589Y-223412000D01*
X286855160Y-225126285D02*
X287158732Y-225269142D01*
X287873017Y-225269142D01*
X288140875Y-225126285D01*
X288248017Y-224840571D01*
X288212303Y-224554857D01*
X288033732Y-224269142D01*
X287730160Y-224126285D01*
X287015875Y-224126285D01*
X286712303Y-223983428D01*
X285444446Y-225269142D02*
X285194446Y-223269142D01*
X285230160Y-223554857D02*
X285069446Y-223412000D01*
X284765875Y-223269142D01*
X284337303Y-223269142D01*
X284069446Y-223412000D01*
X283962303Y-223697714D01*
X284158732Y-225269142D01*
X283962303Y-223697714D02*
X283783732Y-223412000D01*
X283480160Y-223269142D01*
X283051589Y-223269142D01*
X282783732Y-223412000D01*
X282676589Y-223697714D01*
X282873017Y-225269142D01*
X281480160Y-223269142D02*
X281015875Y-225269142D01*
X280051589Y-223269142D02*
X281015875Y-225269142D01*
X281390875Y-225983428D01*
X281551589Y-226126285D01*
X281855160Y-226269142D01*
D11*
X159182000Y-145230000D02*
G75*
G03*
X159182000Y-145230000I-100000J0D01*
G01*
X167332000Y-142140000D02*
X167332000Y-140930000D01*
X158392000Y-142140000D02*
X158392000Y-140930000D01*
X167332000Y-136720000D02*
X167332000Y-138210000D01*
X158392000Y-136720000D02*
X167332000Y-136720000D01*
X158392000Y-138210000D02*
X158392000Y-136720000D01*
X345913000Y-140012000D02*
X345913000Y-142412000D01*
X346013000Y-140012000D02*
X346013000Y-142412000D01*
X346113000Y-140012000D02*
X346113000Y-142412000D01*
X346288000Y-140012000D02*
X346288000Y-142412000D01*
X346463000Y-140012000D02*
X346463000Y-142412000D01*
X346638000Y-140012000D02*
X346638000Y-142412000D01*
X346638000Y-140012000D02*
X341038000Y-140012000D01*
X341038000Y-140012000D02*
X341038000Y-142412000D01*
X341038000Y-142412000D02*
X346638000Y-142412000D01*
X177463000Y-140012000D02*
X177463000Y-142412000D01*
X177563000Y-140012000D02*
X177563000Y-142412000D01*
X177663000Y-140012000D02*
X177663000Y-142412000D01*
X177838000Y-140012000D02*
X177838000Y-142412000D01*
X178013000Y-140012000D02*
X178013000Y-142412000D01*
X178188000Y-140012000D02*
X178188000Y-142412000D01*
X178188000Y-140012000D02*
X172588000Y-140012000D01*
X172588000Y-140012000D02*
X172588000Y-142412000D01*
X172588000Y-142412000D02*
X178188000Y-142412000D01*
X193513000Y-140012000D02*
X193513000Y-142412000D01*
X193613000Y-140012000D02*
X193613000Y-142412000D01*
X193713000Y-140012000D02*
X193713000Y-142412000D01*
X193888000Y-140012000D02*
X193888000Y-142412000D01*
X194063000Y-140012000D02*
X194063000Y-142412000D01*
X194238000Y-140012000D02*
X194238000Y-142412000D01*
X194238000Y-140012000D02*
X188638000Y-140012000D01*
X188638000Y-140012000D02*
X188638000Y-142412000D01*
X188638000Y-142412000D02*
X194238000Y-142412000D01*
X212563000Y-140012000D02*
X212563000Y-142412000D01*
X212663000Y-140012000D02*
X212663000Y-142412000D01*
X212763000Y-140012000D02*
X212763000Y-142412000D01*
X212938000Y-140012000D02*
X212938000Y-142412000D01*
X213113000Y-140012000D02*
X213113000Y-142412000D01*
X213288000Y-140012000D02*
X213288000Y-142412000D01*
X213288000Y-140012000D02*
X207688000Y-140012000D01*
X207688000Y-140012000D02*
X207688000Y-142412000D01*
X207688000Y-142412000D02*
X213288000Y-142412000D01*
X231613000Y-140012000D02*
X231613000Y-142412000D01*
X231713000Y-140012000D02*
X231713000Y-142412000D01*
X231813000Y-140012000D02*
X231813000Y-142412000D01*
X231988000Y-140012000D02*
X231988000Y-142412000D01*
X232163000Y-140012000D02*
X232163000Y-142412000D01*
X232338000Y-140012000D02*
X232338000Y-142412000D01*
X232338000Y-140012000D02*
X226738000Y-140012000D01*
X226738000Y-140012000D02*
X226738000Y-142412000D01*
X226738000Y-142412000D02*
X232338000Y-142412000D01*
X250663000Y-140012000D02*
X250663000Y-142412000D01*
X250763000Y-140012000D02*
X250763000Y-142412000D01*
X250863000Y-140012000D02*
X250863000Y-142412000D01*
X251038000Y-140012000D02*
X251038000Y-142412000D01*
X251213000Y-140012000D02*
X251213000Y-142412000D01*
X251388000Y-140012000D02*
X251388000Y-142412000D01*
X251388000Y-140012000D02*
X245788000Y-140012000D01*
X245788000Y-140012000D02*
X245788000Y-142412000D01*
X245788000Y-142412000D02*
X251388000Y-142412000D01*
X269713000Y-140012000D02*
X269713000Y-142412000D01*
X269813000Y-140012000D02*
X269813000Y-142412000D01*
X269913000Y-140012000D02*
X269913000Y-142412000D01*
X270088000Y-140012000D02*
X270088000Y-142412000D01*
X270263000Y-140012000D02*
X270263000Y-142412000D01*
X270438000Y-140012000D02*
X270438000Y-142412000D01*
X270438000Y-140012000D02*
X264838000Y-140012000D01*
X264838000Y-140012000D02*
X264838000Y-142412000D01*
X264838000Y-142412000D02*
X270438000Y-142412000D01*
X288763000Y-140012000D02*
X288763000Y-142412000D01*
X288863000Y-140012000D02*
X288863000Y-142412000D01*
X288963000Y-140012000D02*
X288963000Y-142412000D01*
X289138000Y-140012000D02*
X289138000Y-142412000D01*
X289313000Y-140012000D02*
X289313000Y-142412000D01*
X289488000Y-140012000D02*
X289488000Y-142412000D01*
X289488000Y-140012000D02*
X283888000Y-140012000D01*
X283888000Y-140012000D02*
X283888000Y-142412000D01*
X283888000Y-142412000D02*
X289488000Y-142412000D01*
X307813000Y-140012000D02*
X307813000Y-142412000D01*
X307913000Y-140012000D02*
X307913000Y-142412000D01*
X308013000Y-140012000D02*
X308013000Y-142412000D01*
X308188000Y-140012000D02*
X308188000Y-142412000D01*
X308363000Y-140012000D02*
X308363000Y-142412000D01*
X308538000Y-140012000D02*
X308538000Y-142412000D01*
X308538000Y-140012000D02*
X302938000Y-140012000D01*
X302938000Y-140012000D02*
X302938000Y-142412000D01*
X302938000Y-142412000D02*
X308538000Y-142412000D01*
X326863000Y-140012000D02*
X326863000Y-142412000D01*
X326963000Y-140012000D02*
X326963000Y-142412000D01*
X327063000Y-140012000D02*
X327063000Y-142412000D01*
X327238000Y-140012000D02*
X327238000Y-142412000D01*
X327413000Y-140012000D02*
X327413000Y-142412000D01*
X327588000Y-140012000D02*
X327588000Y-142412000D01*
X327588000Y-140012000D02*
X321988000Y-140012000D01*
X321988000Y-140012000D02*
X321988000Y-142412000D01*
X321988000Y-142412000D02*
X327588000Y-142412000D01*
X188750000Y-178112000D02*
X188750000Y-180512000D01*
X188850000Y-178112000D02*
X188850000Y-180512000D01*
X188950000Y-178112000D02*
X188950000Y-180512000D01*
X189125000Y-178112000D02*
X189125000Y-180512000D01*
X189300000Y-178112000D02*
X189300000Y-180512000D01*
X189475000Y-178112000D02*
X189475000Y-180512000D01*
X189475000Y-178112000D02*
X183875000Y-178112000D01*
X183875000Y-178112000D02*
X183875000Y-180512000D01*
X183875000Y-180512000D02*
X189475000Y-180512000D01*
X348294000Y-216212000D02*
X348294000Y-218612000D01*
X348394000Y-216212000D02*
X348394000Y-218612000D01*
X348494000Y-216212000D02*
X348494000Y-218612000D01*
X348669000Y-216212000D02*
X348669000Y-218612000D01*
X348844000Y-216212000D02*
X348844000Y-218612000D01*
X349019000Y-216212000D02*
X349019000Y-218612000D01*
X349019000Y-216212000D02*
X343419000Y-216212000D01*
X343419000Y-216212000D02*
X343419000Y-218612000D01*
X343419000Y-218612000D02*
X349019000Y-218612000D01*
X205419000Y-216212000D02*
X205419000Y-218612000D01*
X205519000Y-216212000D02*
X205519000Y-218612000D01*
X205619000Y-216212000D02*
X205619000Y-218612000D01*
X205794000Y-216212000D02*
X205794000Y-218612000D01*
X205969000Y-216212000D02*
X205969000Y-218612000D01*
X206144000Y-216212000D02*
X206144000Y-218612000D01*
X206144000Y-216212000D02*
X200544000Y-216212000D01*
X200544000Y-216212000D02*
X200544000Y-218612000D01*
X200544000Y-218612000D02*
X206144000Y-218612000D01*
X274475000Y-197162000D02*
X274475000Y-199562000D01*
X274575000Y-197162000D02*
X274575000Y-199562000D01*
X274675000Y-197162000D02*
X274675000Y-199562000D01*
X274850000Y-197162000D02*
X274850000Y-199562000D01*
X275025000Y-197162000D02*
X275025000Y-199562000D01*
X275200000Y-197162000D02*
X275200000Y-199562000D01*
X275200000Y-197162000D02*
X269600000Y-197162000D01*
X269600000Y-197162000D02*
X269600000Y-199562000D01*
X269600000Y-199562000D02*
X275200000Y-199562000D01*
X238756000Y-216212000D02*
X238756000Y-218612000D01*
X238856000Y-216212000D02*
X238856000Y-218612000D01*
X238956000Y-216212000D02*
X238956000Y-218612000D01*
X239131000Y-216212000D02*
X239131000Y-218612000D01*
X239306000Y-216212000D02*
X239306000Y-218612000D01*
X239481000Y-216212000D02*
X239481000Y-218612000D01*
X239481000Y-216212000D02*
X233881000Y-216212000D01*
X233881000Y-216212000D02*
X233881000Y-218612000D01*
X233881000Y-218612000D02*
X239481000Y-218612000D01*
X412587000Y-140012000D02*
X412587000Y-142412000D01*
X412687000Y-140012000D02*
X412687000Y-142412000D01*
X412787000Y-140012000D02*
X412787000Y-142412000D01*
X412962000Y-140012000D02*
X412962000Y-142412000D01*
X413137000Y-140012000D02*
X413137000Y-142412000D01*
X413312000Y-140012000D02*
X413312000Y-142412000D01*
X413312000Y-140012000D02*
X407712000Y-140012000D01*
X407712000Y-140012000D02*
X407712000Y-142412000D01*
X407712000Y-142412000D02*
X413312000Y-142412000D01*
X417350000Y-159062000D02*
X417350000Y-161462000D01*
X417450000Y-159062000D02*
X417450000Y-161462000D01*
X417550000Y-159062000D02*
X417550000Y-161462000D01*
X417725000Y-159062000D02*
X417725000Y-161462000D01*
X417900000Y-159062000D02*
X417900000Y-161462000D01*
X418075000Y-159062000D02*
X418075000Y-161462000D01*
X418075000Y-159062000D02*
X412475000Y-159062000D01*
X412475000Y-159062000D02*
X412475000Y-161462000D01*
X412475000Y-161462000D02*
X418075000Y-161462000D01*
X236375000Y-197162000D02*
X236375000Y-199562000D01*
X236475000Y-197162000D02*
X236475000Y-199562000D01*
X236575000Y-197162000D02*
X236575000Y-199562000D01*
X236750000Y-197162000D02*
X236750000Y-199562000D01*
X236925000Y-197162000D02*
X236925000Y-199562000D01*
X237100000Y-197162000D02*
X237100000Y-199562000D01*
X237100000Y-197162000D02*
X231500000Y-197162000D01*
X231500000Y-197162000D02*
X231500000Y-199562000D01*
X231500000Y-199562000D02*
X237100000Y-199562000D01*
X162556000Y-178112000D02*
X162556000Y-180512000D01*
X162656000Y-178112000D02*
X162656000Y-180512000D01*
X162756000Y-178112000D02*
X162756000Y-180512000D01*
X162931000Y-178112000D02*
X162931000Y-180512000D01*
X163106000Y-178112000D02*
X163106000Y-180512000D01*
X163281000Y-178112000D02*
X163281000Y-180512000D01*
X163281000Y-178112000D02*
X157681000Y-178112000D01*
X157681000Y-178112000D02*
X157681000Y-180512000D01*
X157681000Y-180512000D02*
X163281000Y-180512000D01*
X374487000Y-159062000D02*
X374487000Y-161462000D01*
X374587000Y-159062000D02*
X374587000Y-161462000D01*
X374687000Y-159062000D02*
X374687000Y-161462000D01*
X374862000Y-159062000D02*
X374862000Y-161462000D01*
X375037000Y-159062000D02*
X375037000Y-161462000D01*
X375212000Y-159062000D02*
X375212000Y-161462000D01*
X375212000Y-159062000D02*
X369612000Y-159062000D01*
X369612000Y-159062000D02*
X369612000Y-161462000D01*
X369612000Y-161462000D02*
X375212000Y-161462000D01*
X331625000Y-197162000D02*
X331625000Y-199562000D01*
X331725000Y-197162000D02*
X331725000Y-199562000D01*
X331825000Y-197162000D02*
X331825000Y-199562000D01*
X332000000Y-197162000D02*
X332000000Y-199562000D01*
X332175000Y-197162000D02*
X332175000Y-199562000D01*
X332350000Y-197162000D02*
X332350000Y-199562000D01*
X332350000Y-197162000D02*
X326750000Y-197162000D01*
X326750000Y-197162000D02*
X326750000Y-199562000D01*
X326750000Y-199562000D02*
X332350000Y-199562000D01*
X272094000Y-216212000D02*
X272094000Y-218612000D01*
X272194000Y-216212000D02*
X272194000Y-218612000D01*
X272294000Y-216212000D02*
X272294000Y-218612000D01*
X272469000Y-216212000D02*
X272469000Y-218612000D01*
X272644000Y-216212000D02*
X272644000Y-218612000D01*
X272819000Y-216212000D02*
X272819000Y-218612000D01*
X272819000Y-216212000D02*
X267219000Y-216212000D01*
X267219000Y-216212000D02*
X267219000Y-218612000D01*
X267219000Y-218612000D02*
X272819000Y-218612000D01*
X419731000Y-216212000D02*
X419731000Y-218612000D01*
X419831000Y-216212000D02*
X419831000Y-218612000D01*
X419931000Y-216212000D02*
X419931000Y-218612000D01*
X420106000Y-216212000D02*
X420106000Y-218612000D01*
X420281000Y-216212000D02*
X420281000Y-218612000D01*
X420456000Y-216212000D02*
X420456000Y-218612000D01*
X420456000Y-216212000D02*
X414856000Y-216212000D01*
X414856000Y-216212000D02*
X414856000Y-218612000D01*
X414856000Y-218612000D02*
X420456000Y-218612000D01*
X157794000Y-216212000D02*
X157794000Y-218612000D01*
X157894000Y-216212000D02*
X157894000Y-218612000D01*
X157994000Y-216212000D02*
X157994000Y-218612000D01*
X158169000Y-216212000D02*
X158169000Y-218612000D01*
X158344000Y-216212000D02*
X158344000Y-218612000D01*
X158519000Y-216212000D02*
X158519000Y-218612000D01*
X158519000Y-216212000D02*
X152919000Y-216212000D01*
X152919000Y-216212000D02*
X152919000Y-218612000D01*
X152919000Y-218612000D02*
X158519000Y-218612000D01*
X226850000Y-178112000D02*
X226850000Y-180512000D01*
X226950000Y-178112000D02*
X226950000Y-180512000D01*
X227050000Y-178112000D02*
X227050000Y-180512000D01*
X227225000Y-178112000D02*
X227225000Y-180512000D01*
X227400000Y-178112000D02*
X227400000Y-180512000D01*
X227575000Y-178112000D02*
X227575000Y-180512000D01*
X227575000Y-178112000D02*
X221975000Y-178112000D01*
X221975000Y-178112000D02*
X221975000Y-180512000D01*
X221975000Y-180512000D02*
X227575000Y-180512000D01*
X350675000Y-197162000D02*
X350675000Y-199562000D01*
X350775000Y-197162000D02*
X350775000Y-199562000D01*
X350875000Y-197162000D02*
X350875000Y-199562000D01*
X351050000Y-197162000D02*
X351050000Y-199562000D01*
X351225000Y-197162000D02*
X351225000Y-199562000D01*
X351400000Y-197162000D02*
X351400000Y-199562000D01*
X351400000Y-197162000D02*
X345800000Y-197162000D01*
X345800000Y-197162000D02*
X345800000Y-199562000D01*
X345800000Y-199562000D02*
X351400000Y-199562000D01*
X222087000Y-159062000D02*
X222087000Y-161462000D01*
X222187000Y-159062000D02*
X222187000Y-161462000D01*
X222287000Y-159062000D02*
X222287000Y-161462000D01*
X222462000Y-159062000D02*
X222462000Y-161462000D01*
X222637000Y-159062000D02*
X222637000Y-161462000D01*
X222812000Y-159062000D02*
X222812000Y-161462000D01*
X222812000Y-159062000D02*
X217212000Y-159062000D01*
X217212000Y-159062000D02*
X217212000Y-161462000D01*
X217212000Y-161462000D02*
X222812000Y-161462000D01*
X410206000Y-178112000D02*
X410206000Y-180512000D01*
X410306000Y-178112000D02*
X410306000Y-180512000D01*
X410406000Y-178112000D02*
X410406000Y-180512000D01*
X410581000Y-178112000D02*
X410581000Y-180512000D01*
X410756000Y-178112000D02*
X410756000Y-180512000D01*
X410931000Y-178112000D02*
X410931000Y-180512000D01*
X410931000Y-178112000D02*
X405331000Y-178112000D01*
X405331000Y-178112000D02*
X405331000Y-180512000D01*
X405331000Y-180512000D02*
X410931000Y-180512000D01*
X384013000Y-140012000D02*
X384013000Y-142412000D01*
X384113000Y-140012000D02*
X384113000Y-142412000D01*
X384213000Y-140012000D02*
X384213000Y-142412000D01*
X384388000Y-140012000D02*
X384388000Y-142412000D01*
X384563000Y-140012000D02*
X384563000Y-142412000D01*
X384738000Y-140012000D02*
X384738000Y-142412000D01*
X384738000Y-140012000D02*
X379138000Y-140012000D01*
X379138000Y-140012000D02*
X379138000Y-142412000D01*
X379138000Y-142412000D02*
X384738000Y-142412000D01*
X162170000Y-153605000D02*
X159770000Y-153605000D01*
X162170000Y-153705000D02*
X159770000Y-153705000D01*
X162170000Y-153805000D02*
X159770000Y-153805000D01*
X162170000Y-153980000D02*
X159770000Y-153980000D01*
X162170000Y-154155000D02*
X159770000Y-154155000D01*
X162170000Y-154330000D02*
X159770000Y-154330000D01*
X162170000Y-154330000D02*
X162170000Y-148730000D01*
X162170000Y-148730000D02*
X159770000Y-148730000D01*
X159770000Y-148730000D02*
X159770000Y-154330000D01*
X245900000Y-178112000D02*
X245900000Y-180512000D01*
X246000000Y-178112000D02*
X246000000Y-180512000D01*
X246100000Y-178112000D02*
X246100000Y-180512000D01*
X246275000Y-178112000D02*
X246275000Y-180512000D01*
X246450000Y-178112000D02*
X246450000Y-180512000D01*
X246625000Y-178112000D02*
X246625000Y-180512000D01*
X246625000Y-178112000D02*
X241025000Y-178112000D01*
X241025000Y-178112000D02*
X241025000Y-180512000D01*
X241025000Y-180512000D02*
X246625000Y-180512000D01*
X272950000Y-176112000D02*
X272950000Y-178512000D01*
X273050000Y-176112000D02*
X273050000Y-178512000D01*
X273150000Y-176112000D02*
X273150000Y-178512000D01*
X273325000Y-176112000D02*
X273325000Y-178512000D01*
X273500000Y-176112000D02*
X273500000Y-178512000D01*
X273675000Y-176112000D02*
X273675000Y-178512000D01*
X273675000Y-176112000D02*
X268075000Y-176112000D01*
X268075000Y-176112000D02*
X268075000Y-178512000D01*
X268075000Y-178512000D02*
X273675000Y-178512000D01*
X292980000Y-185572000D02*
X292980000Y-179972000D01*
X290580000Y-185572000D02*
X292980000Y-185572000D01*
X290580000Y-179972000D02*
X290580000Y-185572000D01*
X290580000Y-179972000D02*
X292980000Y-179972000D01*
X290580000Y-180147000D02*
X292980000Y-180147000D01*
X290580000Y-180322000D02*
X292980000Y-180322000D01*
X290580000Y-180497000D02*
X292980000Y-180497000D01*
X290580000Y-180597000D02*
X292980000Y-180597000D01*
X290580000Y-180697000D02*
X292980000Y-180697000D01*
X317337000Y-159062000D02*
X317337000Y-161462000D01*
X317437000Y-159062000D02*
X317437000Y-161462000D01*
X317537000Y-159062000D02*
X317537000Y-161462000D01*
X317712000Y-159062000D02*
X317712000Y-161462000D01*
X317887000Y-159062000D02*
X317887000Y-161462000D01*
X318062000Y-159062000D02*
X318062000Y-161462000D01*
X318062000Y-159062000D02*
X312462000Y-159062000D01*
X312462000Y-159062000D02*
X312462000Y-161462000D01*
X312462000Y-161462000D02*
X318062000Y-161462000D01*
X303050000Y-178112000D02*
X303050000Y-180512000D01*
X303150000Y-178112000D02*
X303150000Y-180512000D01*
X303250000Y-178112000D02*
X303250000Y-180512000D01*
X303425000Y-178112000D02*
X303425000Y-180512000D01*
X303600000Y-178112000D02*
X303600000Y-180512000D01*
X303775000Y-178112000D02*
X303775000Y-180512000D01*
X303775000Y-178112000D02*
X298175000Y-178112000D01*
X298175000Y-178112000D02*
X298175000Y-180512000D01*
X298175000Y-180512000D02*
X303775000Y-180512000D01*
X322100000Y-178112000D02*
X322100000Y-180512000D01*
X322200000Y-178112000D02*
X322200000Y-180512000D01*
X322300000Y-178112000D02*
X322300000Y-180512000D01*
X322475000Y-178112000D02*
X322475000Y-180512000D01*
X322650000Y-178112000D02*
X322650000Y-180512000D01*
X322825000Y-178112000D02*
X322825000Y-180512000D01*
X322825000Y-178112000D02*
X317225000Y-178112000D01*
X317225000Y-178112000D02*
X317225000Y-180512000D01*
X317225000Y-180512000D02*
X322825000Y-180512000D01*
X341150000Y-178112000D02*
X341150000Y-180512000D01*
X341250000Y-178112000D02*
X341250000Y-180512000D01*
X341350000Y-178112000D02*
X341350000Y-180512000D01*
X341525000Y-178112000D02*
X341525000Y-180512000D01*
X341700000Y-178112000D02*
X341700000Y-180512000D01*
X341875000Y-178112000D02*
X341875000Y-180512000D01*
X341875000Y-178112000D02*
X336275000Y-178112000D01*
X336275000Y-178112000D02*
X336275000Y-180512000D01*
X336275000Y-180512000D02*
X341875000Y-180512000D01*
X312575000Y-197162000D02*
X312575000Y-199562000D01*
X312675000Y-197162000D02*
X312675000Y-199562000D01*
X312775000Y-197162000D02*
X312775000Y-199562000D01*
X312950000Y-197162000D02*
X312950000Y-199562000D01*
X313125000Y-197162000D02*
X313125000Y-199562000D01*
X313300000Y-197162000D02*
X313300000Y-199562000D01*
X313300000Y-197162000D02*
X307700000Y-197162000D01*
X307700000Y-197162000D02*
X307700000Y-199562000D01*
X307700000Y-199562000D02*
X313300000Y-199562000D01*
X395919000Y-216212000D02*
X395919000Y-218612000D01*
X396019000Y-216212000D02*
X396019000Y-218612000D01*
X396119000Y-216212000D02*
X396119000Y-218612000D01*
X396294000Y-216212000D02*
X396294000Y-218612000D01*
X396469000Y-216212000D02*
X396469000Y-218612000D01*
X396644000Y-216212000D02*
X396644000Y-218612000D01*
X396644000Y-216212000D02*
X391044000Y-216212000D01*
X391044000Y-216212000D02*
X391044000Y-218612000D01*
X391044000Y-218612000D02*
X396644000Y-218612000D01*
X364963000Y-140012000D02*
X364963000Y-142412000D01*
X365063000Y-140012000D02*
X365063000Y-142412000D01*
X365163000Y-140012000D02*
X365163000Y-142412000D01*
X365338000Y-140012000D02*
X365338000Y-142412000D01*
X365513000Y-140012000D02*
X365513000Y-142412000D01*
X365688000Y-140012000D02*
X365688000Y-142412000D01*
X365688000Y-140012000D02*
X360088000Y-140012000D01*
X360088000Y-140012000D02*
X360088000Y-142412000D01*
X360088000Y-142412000D02*
X365688000Y-142412000D01*
X293525000Y-197162000D02*
X293525000Y-199562000D01*
X293625000Y-197162000D02*
X293625000Y-199562000D01*
X293725000Y-197162000D02*
X293725000Y-199562000D01*
X293900000Y-197162000D02*
X293900000Y-199562000D01*
X294075000Y-197162000D02*
X294075000Y-199562000D01*
X294250000Y-197162000D02*
X294250000Y-199562000D01*
X294250000Y-197162000D02*
X288650000Y-197162000D01*
X288650000Y-197162000D02*
X288650000Y-199562000D01*
X288650000Y-199562000D02*
X294250000Y-199562000D01*
X336387000Y-159062000D02*
X336387000Y-161462000D01*
X336487000Y-159062000D02*
X336487000Y-161462000D01*
X336587000Y-159062000D02*
X336587000Y-161462000D01*
X336762000Y-159062000D02*
X336762000Y-161462000D01*
X336937000Y-159062000D02*
X336937000Y-161462000D01*
X337112000Y-159062000D02*
X337112000Y-161462000D01*
X337112000Y-159062000D02*
X331512000Y-159062000D01*
X331512000Y-159062000D02*
X331512000Y-161462000D01*
X331512000Y-161462000D02*
X337112000Y-161462000D01*
X385168000Y-174337000D02*
X382768000Y-174337000D01*
X385168000Y-174437000D02*
X382768000Y-174437000D01*
X385168000Y-174537000D02*
X382768000Y-174537000D01*
X385168000Y-174712000D02*
X382768000Y-174712000D01*
X385168000Y-174887000D02*
X382768000Y-174887000D01*
X385168000Y-175062000D02*
X382768000Y-175062000D01*
X385168000Y-175062000D02*
X385168000Y-169462000D01*
X385168000Y-169462000D02*
X382768000Y-169462000D01*
X382768000Y-169462000D02*
X382768000Y-175062000D01*
X355437000Y-159062000D02*
X355437000Y-161462000D01*
X355537000Y-159062000D02*
X355537000Y-161462000D01*
X355637000Y-159062000D02*
X355637000Y-161462000D01*
X355812000Y-159062000D02*
X355812000Y-161462000D01*
X355987000Y-159062000D02*
X355987000Y-161462000D01*
X356162000Y-159062000D02*
X356162000Y-161462000D01*
X356162000Y-159062000D02*
X350562000Y-159062000D01*
X350562000Y-159062000D02*
X350562000Y-161462000D01*
X350562000Y-161462000D02*
X356162000Y-161462000D01*
X183987000Y-159062000D02*
X183987000Y-161462000D01*
X184087000Y-159062000D02*
X184087000Y-161462000D01*
X184187000Y-159062000D02*
X184187000Y-161462000D01*
X184362000Y-159062000D02*
X184362000Y-161462000D01*
X184537000Y-159062000D02*
X184537000Y-161462000D01*
X184712000Y-159062000D02*
X184712000Y-161462000D01*
X184712000Y-159062000D02*
X179112000Y-159062000D01*
X179112000Y-159062000D02*
X179112000Y-161462000D01*
X179112000Y-161462000D02*
X184712000Y-161462000D01*
X379250000Y-178112000D02*
X379250000Y-180512000D01*
X379350000Y-178112000D02*
X379350000Y-180512000D01*
X379450000Y-178112000D02*
X379450000Y-180512000D01*
X379625000Y-178112000D02*
X379625000Y-180512000D01*
X379800000Y-178112000D02*
X379800000Y-180512000D01*
X379975000Y-178112000D02*
X379975000Y-180512000D01*
X379975000Y-178112000D02*
X374375000Y-178112000D01*
X374375000Y-178112000D02*
X374375000Y-180512000D01*
X374375000Y-180512000D02*
X379975000Y-180512000D01*
X241137000Y-159062000D02*
X241137000Y-161462000D01*
X241237000Y-159062000D02*
X241237000Y-161462000D01*
X241337000Y-159062000D02*
X241337000Y-161462000D01*
X241512000Y-159062000D02*
X241512000Y-161462000D01*
X241687000Y-159062000D02*
X241687000Y-161462000D01*
X241862000Y-159062000D02*
X241862000Y-161462000D01*
X241862000Y-159062000D02*
X236262000Y-159062000D01*
X236262000Y-159062000D02*
X236262000Y-161462000D01*
X236262000Y-161462000D02*
X241862000Y-161462000D01*
X207800000Y-178112000D02*
X207800000Y-180512000D01*
X207900000Y-178112000D02*
X207900000Y-180512000D01*
X208000000Y-178112000D02*
X208000000Y-180512000D01*
X208175000Y-178112000D02*
X208175000Y-180512000D01*
X208350000Y-178112000D02*
X208350000Y-180512000D01*
X208525000Y-178112000D02*
X208525000Y-180512000D01*
X208525000Y-178112000D02*
X202925000Y-178112000D01*
X202925000Y-178112000D02*
X202925000Y-180512000D01*
X202925000Y-180512000D02*
X208525000Y-180512000D01*
X360200000Y-178112000D02*
X360200000Y-180512000D01*
X360300000Y-178112000D02*
X360300000Y-180512000D01*
X360400000Y-178112000D02*
X360400000Y-180512000D01*
X360575000Y-178112000D02*
X360575000Y-180512000D01*
X360750000Y-178112000D02*
X360750000Y-180512000D01*
X360925000Y-178112000D02*
X360925000Y-180512000D01*
X360925000Y-178112000D02*
X355325000Y-178112000D01*
X355325000Y-178112000D02*
X355325000Y-180512000D01*
X355325000Y-180512000D02*
X360925000Y-180512000D01*
X405775000Y-197162000D02*
X405775000Y-199562000D01*
X405875000Y-197162000D02*
X405875000Y-199562000D01*
X405975000Y-197162000D02*
X405975000Y-199562000D01*
X406150000Y-197162000D02*
X406150000Y-199562000D01*
X406325000Y-197162000D02*
X406325000Y-199562000D01*
X406500000Y-197162000D02*
X406500000Y-199562000D01*
X406500000Y-197162000D02*
X400900000Y-197162000D01*
X400900000Y-197162000D02*
X400900000Y-199562000D01*
X400900000Y-199562000D02*
X406500000Y-199562000D01*
X167319000Y-197162000D02*
X167319000Y-199562000D01*
X167419000Y-197162000D02*
X167419000Y-199562000D01*
X167519000Y-197162000D02*
X167519000Y-199562000D01*
X167694000Y-197162000D02*
X167694000Y-199562000D01*
X167869000Y-197162000D02*
X167869000Y-199562000D01*
X168044000Y-197162000D02*
X168044000Y-199562000D01*
X168044000Y-197162000D02*
X162444000Y-197162000D01*
X162444000Y-197162000D02*
X162444000Y-199562000D01*
X162444000Y-199562000D02*
X168044000Y-199562000D01*
X369725000Y-197162000D02*
X369725000Y-199562000D01*
X369825000Y-197162000D02*
X369825000Y-199562000D01*
X369925000Y-197162000D02*
X369925000Y-199562000D01*
X370100000Y-197162000D02*
X370100000Y-199562000D01*
X370275000Y-197162000D02*
X370275000Y-199562000D01*
X370450000Y-197162000D02*
X370450000Y-199562000D01*
X370450000Y-197162000D02*
X364850000Y-197162000D01*
X364850000Y-197162000D02*
X364850000Y-199562000D01*
X364850000Y-199562000D02*
X370450000Y-199562000D01*
X310194000Y-216212000D02*
X310194000Y-218612000D01*
X310294000Y-216212000D02*
X310294000Y-218612000D01*
X310394000Y-216212000D02*
X310394000Y-218612000D01*
X310569000Y-216212000D02*
X310569000Y-218612000D01*
X310744000Y-216212000D02*
X310744000Y-218612000D01*
X310919000Y-216212000D02*
X310919000Y-218612000D01*
X310919000Y-216212000D02*
X305319000Y-216212000D01*
X305319000Y-216212000D02*
X305319000Y-218612000D01*
X305319000Y-218612000D02*
X310919000Y-218612000D01*
X260187000Y-159062000D02*
X260187000Y-161462000D01*
X260287000Y-159062000D02*
X260287000Y-161462000D01*
X260387000Y-159062000D02*
X260387000Y-161462000D01*
X260562000Y-159062000D02*
X260562000Y-161462000D01*
X260737000Y-159062000D02*
X260737000Y-161462000D01*
X260912000Y-159062000D02*
X260912000Y-161462000D01*
X260912000Y-159062000D02*
X255312000Y-159062000D01*
X255312000Y-159062000D02*
X255312000Y-161462000D01*
X255312000Y-161462000D02*
X260912000Y-161462000D01*
X148700000Y-168837000D02*
X146300000Y-168837000D01*
X148700000Y-168937000D02*
X146300000Y-168937000D01*
X148700000Y-169037000D02*
X146300000Y-169037000D01*
X148700000Y-169212000D02*
X146300000Y-169212000D01*
X148700000Y-169387000D02*
X146300000Y-169387000D01*
X148700000Y-169562000D02*
X146300000Y-169562000D01*
X148700000Y-169562000D02*
X148700000Y-163962000D01*
X148700000Y-163962000D02*
X146300000Y-163962000D01*
X146300000Y-163962000D02*
X146300000Y-169562000D01*
X298287000Y-159062000D02*
X298287000Y-161462000D01*
X298387000Y-159062000D02*
X298387000Y-161462000D01*
X298487000Y-159062000D02*
X298487000Y-161462000D01*
X298662000Y-159062000D02*
X298662000Y-161462000D01*
X298837000Y-159062000D02*
X298837000Y-161462000D01*
X299012000Y-159062000D02*
X299012000Y-161462000D01*
X299012000Y-159062000D02*
X293412000Y-159062000D01*
X293412000Y-159062000D02*
X293412000Y-161462000D01*
X293412000Y-161462000D02*
X299012000Y-161462000D01*
X255425000Y-197162000D02*
X255425000Y-199562000D01*
X255525000Y-197162000D02*
X255525000Y-199562000D01*
X255625000Y-197162000D02*
X255625000Y-199562000D01*
X255800000Y-197162000D02*
X255800000Y-199562000D01*
X255975000Y-197162000D02*
X255975000Y-199562000D01*
X256150000Y-197162000D02*
X256150000Y-199562000D01*
X256150000Y-197162000D02*
X250550000Y-197162000D01*
X250550000Y-197162000D02*
X250550000Y-199562000D01*
X250550000Y-199562000D02*
X256150000Y-199562000D01*
X203037000Y-159062000D02*
X203037000Y-161462000D01*
X203137000Y-159062000D02*
X203137000Y-161462000D01*
X203237000Y-159062000D02*
X203237000Y-161462000D01*
X203412000Y-159062000D02*
X203412000Y-161462000D01*
X203587000Y-159062000D02*
X203587000Y-161462000D01*
X203762000Y-159062000D02*
X203762000Y-161462000D01*
X203762000Y-159062000D02*
X198162000Y-159062000D01*
X198162000Y-159062000D02*
X198162000Y-161462000D01*
X198162000Y-161462000D02*
X203762000Y-161462000D01*
X372106000Y-216212000D02*
X372106000Y-218612000D01*
X372206000Y-216212000D02*
X372206000Y-218612000D01*
X372306000Y-216212000D02*
X372306000Y-218612000D01*
X372481000Y-216212000D02*
X372481000Y-218612000D01*
X372656000Y-216212000D02*
X372656000Y-218612000D01*
X372831000Y-216212000D02*
X372831000Y-218612000D01*
X372831000Y-216212000D02*
X367231000Y-216212000D01*
X367231000Y-216212000D02*
X367231000Y-218612000D01*
X367231000Y-218612000D02*
X372831000Y-218612000D01*
X181606000Y-216212000D02*
X181606000Y-218612000D01*
X181706000Y-216212000D02*
X181706000Y-218612000D01*
X181806000Y-216212000D02*
X181806000Y-218612000D01*
X181981000Y-216212000D02*
X181981000Y-218612000D01*
X182156000Y-216212000D02*
X182156000Y-218612000D01*
X182331000Y-216212000D02*
X182331000Y-218612000D01*
X182331000Y-216212000D02*
X176731000Y-216212000D01*
X176731000Y-216212000D02*
X176731000Y-218612000D01*
X176731000Y-218612000D02*
X182331000Y-218612000D01*
X217325000Y-197162000D02*
X217325000Y-199562000D01*
X217425000Y-197162000D02*
X217425000Y-199562000D01*
X217525000Y-197162000D02*
X217525000Y-199562000D01*
X217700000Y-197162000D02*
X217700000Y-199562000D01*
X217875000Y-197162000D02*
X217875000Y-199562000D01*
X218050000Y-197162000D02*
X218050000Y-199562000D01*
X218050000Y-197162000D02*
X212450000Y-197162000D01*
X212450000Y-197162000D02*
X212450000Y-199562000D01*
X212450000Y-199562000D02*
X218050000Y-199562000D01*
X279237000Y-159062000D02*
X279237000Y-161462000D01*
X279337000Y-159062000D02*
X279337000Y-161462000D01*
X279437000Y-159062000D02*
X279437000Y-161462000D01*
X279612000Y-159062000D02*
X279612000Y-161462000D01*
X279787000Y-159062000D02*
X279787000Y-161462000D01*
X279962000Y-159062000D02*
X279962000Y-161462000D01*
X279962000Y-159062000D02*
X274362000Y-159062000D01*
X274362000Y-159062000D02*
X274362000Y-161462000D01*
X274362000Y-161462000D02*
X279962000Y-161462000D01*
X198275000Y-197162000D02*
X198275000Y-199562000D01*
X198375000Y-197162000D02*
X198375000Y-199562000D01*
X198475000Y-197162000D02*
X198475000Y-199562000D01*
X198650000Y-197162000D02*
X198650000Y-199562000D01*
X198825000Y-197162000D02*
X198825000Y-199562000D01*
X199000000Y-197162000D02*
X199000000Y-199562000D01*
X199000000Y-197162000D02*
X193400000Y-197162000D01*
X193400000Y-197162000D02*
X193400000Y-199562000D01*
X193400000Y-199562000D02*
X199000000Y-199562000D01*
D12*
X388561252Y-192418000D02*
X388038748Y-192418000D01*
X388561252Y-190998000D02*
X388038748Y-190998000D01*
X395658748Y-187650000D02*
X396181252Y-187650000D01*
X395658748Y-189070000D02*
X396181252Y-189070000D01*
X175900000Y-184112000D02*
X176350000Y-184562000D01*
X175900000Y-187512000D02*
X176350000Y-187062000D01*
X171300000Y-187512000D02*
X170850000Y-187062000D01*
X171300000Y-184112000D02*
X170850000Y-184562000D01*
X172600000Y-188562000D02*
X174600000Y-188562000D01*
X176350000Y-184562000D02*
X176350000Y-187062000D01*
X172600000Y-183062000D02*
X174600000Y-183062000D01*
X170850000Y-184562000D02*
X170850000Y-187062000D01*
X375846748Y-198445000D02*
X376369252Y-198445000D01*
X375846748Y-199865000D02*
X376369252Y-199865000D01*
X415738748Y-202290000D02*
X416261252Y-202290000D01*
X415738748Y-203710000D02*
X416261252Y-203710000D01*
X419057748Y-206968000D02*
X419580252Y-206968000D01*
X419057748Y-208388000D02*
X419580252Y-208388000D01*
X425432748Y-213342000D02*
X425955252Y-213342000D01*
X425432748Y-214762000D02*
X425955252Y-214762000D01*
X425432748Y-206968000D02*
X425955252Y-206968000D01*
X425432748Y-208388000D02*
X425955252Y-208388000D01*
X425432748Y-202106000D02*
X425955252Y-202106000D01*
X425432748Y-200686000D02*
X425955252Y-200686000D01*
X380052252Y-195270000D02*
X379529748Y-195270000D01*
X380052252Y-196690000D02*
X379529748Y-196690000D01*
X380418748Y-219908000D02*
X380941252Y-219908000D01*
X380418748Y-221328000D02*
X380941252Y-221328000D01*
X171690000Y-158888748D02*
X171690000Y-159411252D01*
X173110000Y-158888748D02*
X173110000Y-159411252D01*
X166760000Y-158888748D02*
X166760000Y-159411252D01*
X165340000Y-158888748D02*
X165340000Y-159411252D01*
X148980000Y-179731252D02*
X148980000Y-179208748D01*
X147560000Y-179731252D02*
X147560000Y-179208748D01*
X148980000Y-188638748D02*
X148980000Y-189161252D01*
X147560000Y-188638748D02*
X147560000Y-189161252D01*
D13*
X384148750Y-198062966D02*
X384490000Y-197721716D01*
X377341716Y-204870000D02*
X377682966Y-204528750D01*
X384490000Y-212018284D02*
X384148750Y-211677034D01*
X391638284Y-204870000D02*
X391297034Y-205211250D01*
X384490000Y-197721716D02*
X384831250Y-198062966D01*
X391297034Y-204528750D02*
X391638284Y-204870000D01*
X384831250Y-211677034D02*
X384490000Y-212018284D01*
X377682966Y-205211250D02*
X377341716Y-204870000D01*
D11*
X392253000Y-188583000D02*
X392253000Y-184833000D01*
X392253000Y-184833000D02*
X387503000Y-184833000D01*
X387503000Y-184833000D02*
X387503000Y-188583000D01*
X387503000Y-188583000D02*
X392253000Y-188583000D01*
D14*
X429193619Y-182534000D02*
X429288857Y-182486380D01*
X429431714Y-182486380D01*
X429574571Y-182534000D01*
X429669809Y-182629238D01*
X429717428Y-182724476D01*
X429765047Y-182914952D01*
X429765047Y-183057809D01*
X429717428Y-183248285D01*
X429669809Y-183343523D01*
X429574571Y-183438761D01*
X429431714Y-183486380D01*
X429336476Y-183486380D01*
X429193619Y-183438761D01*
X429146000Y-183391142D01*
X429146000Y-183057809D01*
X429336476Y-183057809D01*
X428717428Y-183486380D02*
X428717428Y-182486380D01*
X428146000Y-183486380D01*
X428146000Y-182486380D01*
X427669809Y-183486380D02*
X427669809Y-182486380D01*
X427431714Y-182486380D01*
X427288857Y-182534000D01*
X427193619Y-182629238D01*
X427146000Y-182724476D01*
X427098380Y-182914952D01*
X427098380Y-183057809D01*
X427146000Y-183248285D01*
X427193619Y-183343523D01*
X427288857Y-183438761D01*
X427431714Y-183486380D01*
X427669809Y-183486380D01*
X426907904Y-183581619D02*
X426146000Y-183581619D01*
X425907904Y-183486380D02*
X425907904Y-182486380D01*
X425526952Y-182486380D01*
X425431714Y-182534000D01*
X425384095Y-182581619D01*
X425336476Y-182676857D01*
X425336476Y-182819714D01*
X425384095Y-182914952D01*
X425431714Y-182962571D01*
X425526952Y-183010190D01*
X425907904Y-183010190D01*
X424955523Y-183200666D02*
X424479333Y-183200666D01*
X425050761Y-183486380D02*
X424717428Y-182486380D01*
X424384095Y-183486380D01*
X424050761Y-183486380D02*
X424050761Y-182486380D01*
X423812666Y-182486380D01*
X423669809Y-182534000D01*
X423574571Y-182629238D01*
X423526952Y-182724476D01*
X423479333Y-182914952D01*
X423479333Y-183057809D01*
X423526952Y-183248285D01*
X423574571Y-183343523D01*
X423669809Y-183438761D01*
X423812666Y-183486380D01*
X424050761Y-183486380D01*
X422526952Y-183486380D02*
X423098380Y-183486380D01*
X422812666Y-183486380D02*
X422812666Y-182486380D01*
X422907904Y-182629238D01*
X423003142Y-182724476D01*
X423098380Y-182772095D01*
X422653047Y-182486380D02*
X422319714Y-183486380D01*
X421986380Y-182486380D01*
X421081619Y-183391142D02*
X421129238Y-183438761D01*
X421272095Y-183486380D01*
X421367333Y-183486380D01*
X421510190Y-183438761D01*
X421605428Y-183343523D01*
X421653047Y-183248285D01*
X421700666Y-183057809D01*
X421700666Y-182914952D01*
X421653047Y-182724476D01*
X421605428Y-182629238D01*
X421510190Y-182534000D01*
X421367333Y-182486380D01*
X421272095Y-182486380D01*
X421129238Y-182534000D01*
X421081619Y-182581619D01*
X420081619Y-183391142D02*
X420129238Y-183438761D01*
X420272095Y-183486380D01*
X420367333Y-183486380D01*
X420510190Y-183438761D01*
X420605428Y-183343523D01*
X420653047Y-183248285D01*
X420700666Y-183057809D01*
X420700666Y-182914952D01*
X420653047Y-182724476D01*
X420605428Y-182629238D01*
X420510190Y-182534000D01*
X420367333Y-182486380D01*
X420272095Y-182486380D01*
X420129238Y-182534000D01*
X420081619Y-182581619D01*
X419891142Y-183581619D02*
X419129238Y-183581619D01*
X418891142Y-183486380D02*
X418891142Y-182486380D01*
X418510190Y-182486380D01*
X418414952Y-182534000D01*
X418367333Y-182581619D01*
X418319714Y-182676857D01*
X418319714Y-182819714D01*
X418367333Y-182914952D01*
X418414952Y-182962571D01*
X418510190Y-183010190D01*
X418891142Y-183010190D01*
X417938761Y-183200666D02*
X417462571Y-183200666D01*
X418034000Y-183486380D02*
X417700666Y-182486380D01*
X417367333Y-183486380D01*
X417034000Y-183486380D02*
X417034000Y-182486380D01*
X416795904Y-182486380D01*
X416653047Y-182534000D01*
X416557809Y-182629238D01*
X416510190Y-182724476D01*
X416462571Y-182914952D01*
X416462571Y-183057809D01*
X416510190Y-183248285D01*
X416557809Y-183343523D01*
X416653047Y-183438761D01*
X416795904Y-183486380D01*
X417034000Y-183486380D01*
X415510190Y-183486380D02*
X416081619Y-183486380D01*
X415795904Y-183486380D02*
X415795904Y-182486380D01*
X415891142Y-182629238D01*
X415986380Y-182724476D01*
X416081619Y-182772095D01*
X388942571Y-220316380D02*
X389418761Y-220316380D01*
X389418761Y-219316380D01*
X388609238Y-219792571D02*
X388275904Y-219792571D01*
X388133047Y-220316380D02*
X388609238Y-220316380D01*
X388609238Y-219316380D01*
X388133047Y-219316380D01*
X387704476Y-220316380D02*
X387704476Y-219316380D01*
X387466380Y-219316380D01*
X387323523Y-219364000D01*
X387228285Y-219459238D01*
X387180666Y-219554476D01*
X387133047Y-219744952D01*
X387133047Y-219887809D01*
X387180666Y-220078285D01*
X387228285Y-220173523D01*
X387323523Y-220268761D01*
X387466380Y-220316380D01*
X387704476Y-220316380D01*
X386942571Y-220411619D02*
X386180666Y-220411619D01*
X385942571Y-220316380D02*
X385942571Y-219316380D01*
X385561619Y-219316380D01*
X385466380Y-219364000D01*
X385418761Y-219411619D01*
X385371142Y-219506857D01*
X385371142Y-219649714D01*
X385418761Y-219744952D01*
X385466380Y-219792571D01*
X385561619Y-219840190D01*
X385942571Y-219840190D01*
X384990190Y-220030666D02*
X384514000Y-220030666D01*
X385085428Y-220316380D02*
X384752095Y-219316380D01*
X384418761Y-220316380D01*
X384085428Y-220316380D02*
X384085428Y-219316380D01*
X383847333Y-219316380D01*
X383704476Y-219364000D01*
X383609238Y-219459238D01*
X383561619Y-219554476D01*
X383514000Y-219744952D01*
X383514000Y-219887809D01*
X383561619Y-220078285D01*
X383609238Y-220173523D01*
X383704476Y-220268761D01*
X383847333Y-220316380D01*
X384085428Y-220316380D01*
X382561619Y-220316380D02*
X383133047Y-220316380D01*
X382847333Y-220316380D02*
X382847333Y-219316380D01*
X382942571Y-219459238D01*
X383037809Y-219554476D01*
X383133047Y-219602095D01*
X163195333Y-154452380D02*
X163195333Y-155166666D01*
X163242952Y-155309523D01*
X163338190Y-155404761D01*
X163481047Y-155452380D01*
X163576285Y-155452380D01*
X162195333Y-155452380D02*
X162766761Y-155452380D01*
X162481047Y-155452380D02*
X162481047Y-154452380D01*
X162576285Y-154595238D01*
X162671523Y-154690476D01*
X162766761Y-154738095D01*
X344733238Y-143498904D02*
X344733238Y-142698904D01*
X344542761Y-142698904D01*
X344428476Y-142737000D01*
X344352285Y-142813190D01*
X344314190Y-142889380D01*
X344276095Y-143041761D01*
X344276095Y-143156047D01*
X344314190Y-143308428D01*
X344352285Y-143384619D01*
X344428476Y-143460809D01*
X344542761Y-143498904D01*
X344733238Y-143498904D01*
X344123714Y-143575095D02*
X343514190Y-143575095D01*
X343171333Y-142698904D02*
X343095142Y-142698904D01*
X343018952Y-142737000D01*
X342980857Y-142775095D01*
X342942761Y-142851285D01*
X342904666Y-143003666D01*
X342904666Y-143194142D01*
X342942761Y-143346523D01*
X342980857Y-143422714D01*
X343018952Y-143460809D01*
X343095142Y-143498904D01*
X343171333Y-143498904D01*
X343247523Y-143460809D01*
X343285619Y-143422714D01*
X343323714Y-143346523D01*
X343361809Y-143194142D01*
X343361809Y-143003666D01*
X343323714Y-142851285D01*
X343285619Y-142775095D01*
X343247523Y-142737000D01*
X343171333Y-142698904D01*
X176283238Y-143498904D02*
X176283238Y-142698904D01*
X176092761Y-142698904D01*
X175978476Y-142737000D01*
X175902285Y-142813190D01*
X175864190Y-142889380D01*
X175826095Y-143041761D01*
X175826095Y-143156047D01*
X175864190Y-143308428D01*
X175902285Y-143384619D01*
X175978476Y-143460809D01*
X176092761Y-143498904D01*
X176283238Y-143498904D01*
X175673714Y-143575095D02*
X175064190Y-143575095D01*
X174454666Y-143498904D02*
X174911809Y-143498904D01*
X174683238Y-143498904D02*
X174683238Y-142698904D01*
X174759428Y-142813190D01*
X174835619Y-142889380D01*
X174911809Y-142927476D01*
X192333238Y-143498904D02*
X192333238Y-142698904D01*
X192142761Y-142698904D01*
X192028476Y-142737000D01*
X191952285Y-142813190D01*
X191914190Y-142889380D01*
X191876095Y-143041761D01*
X191876095Y-143156047D01*
X191914190Y-143308428D01*
X191952285Y-143384619D01*
X192028476Y-143460809D01*
X192142761Y-143498904D01*
X192333238Y-143498904D01*
X191723714Y-143575095D02*
X191114190Y-143575095D01*
X190961809Y-142775095D02*
X190923714Y-142737000D01*
X190847523Y-142698904D01*
X190657047Y-142698904D01*
X190580857Y-142737000D01*
X190542761Y-142775095D01*
X190504666Y-142851285D01*
X190504666Y-142927476D01*
X190542761Y-143041761D01*
X190999904Y-143498904D01*
X190504666Y-143498904D01*
X211383238Y-143498904D02*
X211383238Y-142698904D01*
X211192761Y-142698904D01*
X211078476Y-142737000D01*
X211002285Y-142813190D01*
X210964190Y-142889380D01*
X210926095Y-143041761D01*
X210926095Y-143156047D01*
X210964190Y-143308428D01*
X211002285Y-143384619D01*
X211078476Y-143460809D01*
X211192761Y-143498904D01*
X211383238Y-143498904D01*
X210773714Y-143575095D02*
X210164190Y-143575095D01*
X210049904Y-142698904D02*
X209554666Y-142698904D01*
X209821333Y-143003666D01*
X209707047Y-143003666D01*
X209630857Y-143041761D01*
X209592761Y-143079857D01*
X209554666Y-143156047D01*
X209554666Y-143346523D01*
X209592761Y-143422714D01*
X209630857Y-143460809D01*
X209707047Y-143498904D01*
X209935619Y-143498904D01*
X210011809Y-143460809D01*
X210049904Y-143422714D01*
X230433238Y-143498904D02*
X230433238Y-142698904D01*
X230242761Y-142698904D01*
X230128476Y-142737000D01*
X230052285Y-142813190D01*
X230014190Y-142889380D01*
X229976095Y-143041761D01*
X229976095Y-143156047D01*
X230014190Y-143308428D01*
X230052285Y-143384619D01*
X230128476Y-143460809D01*
X230242761Y-143498904D01*
X230433238Y-143498904D01*
X229823714Y-143575095D02*
X229214190Y-143575095D01*
X228680857Y-142965571D02*
X228680857Y-143498904D01*
X228871333Y-142660809D02*
X229061809Y-143232238D01*
X228566571Y-143232238D01*
X249483238Y-143498904D02*
X249483238Y-142698904D01*
X249292761Y-142698904D01*
X249178476Y-142737000D01*
X249102285Y-142813190D01*
X249064190Y-142889380D01*
X249026095Y-143041761D01*
X249026095Y-143156047D01*
X249064190Y-143308428D01*
X249102285Y-143384619D01*
X249178476Y-143460809D01*
X249292761Y-143498904D01*
X249483238Y-143498904D01*
X248873714Y-143575095D02*
X248264190Y-143575095D01*
X247692761Y-142698904D02*
X248073714Y-142698904D01*
X248111809Y-143079857D01*
X248073714Y-143041761D01*
X247997523Y-143003666D01*
X247807047Y-143003666D01*
X247730857Y-143041761D01*
X247692761Y-143079857D01*
X247654666Y-143156047D01*
X247654666Y-143346523D01*
X247692761Y-143422714D01*
X247730857Y-143460809D01*
X247807047Y-143498904D01*
X247997523Y-143498904D01*
X248073714Y-143460809D01*
X248111809Y-143422714D01*
X268533238Y-143498904D02*
X268533238Y-142698904D01*
X268342761Y-142698904D01*
X268228476Y-142737000D01*
X268152285Y-142813190D01*
X268114190Y-142889380D01*
X268076095Y-143041761D01*
X268076095Y-143156047D01*
X268114190Y-143308428D01*
X268152285Y-143384619D01*
X268228476Y-143460809D01*
X268342761Y-143498904D01*
X268533238Y-143498904D01*
X267923714Y-143575095D02*
X267314190Y-143575095D01*
X266780857Y-142698904D02*
X266933238Y-142698904D01*
X267009428Y-142737000D01*
X267047523Y-142775095D01*
X267123714Y-142889380D01*
X267161809Y-143041761D01*
X267161809Y-143346523D01*
X267123714Y-143422714D01*
X267085619Y-143460809D01*
X267009428Y-143498904D01*
X266857047Y-143498904D01*
X266780857Y-143460809D01*
X266742761Y-143422714D01*
X266704666Y-143346523D01*
X266704666Y-143156047D01*
X266742761Y-143079857D01*
X266780857Y-143041761D01*
X266857047Y-143003666D01*
X267009428Y-143003666D01*
X267085619Y-143041761D01*
X267123714Y-143079857D01*
X267161809Y-143156047D01*
X287583238Y-143498904D02*
X287583238Y-142698904D01*
X287392761Y-142698904D01*
X287278476Y-142737000D01*
X287202285Y-142813190D01*
X287164190Y-142889380D01*
X287126095Y-143041761D01*
X287126095Y-143156047D01*
X287164190Y-143308428D01*
X287202285Y-143384619D01*
X287278476Y-143460809D01*
X287392761Y-143498904D01*
X287583238Y-143498904D01*
X286973714Y-143575095D02*
X286364190Y-143575095D01*
X286249904Y-142698904D02*
X285716571Y-142698904D01*
X286059428Y-143498904D01*
X306633238Y-143498904D02*
X306633238Y-142698904D01*
X306442761Y-142698904D01*
X306328476Y-142737000D01*
X306252285Y-142813190D01*
X306214190Y-142889380D01*
X306176095Y-143041761D01*
X306176095Y-143156047D01*
X306214190Y-143308428D01*
X306252285Y-143384619D01*
X306328476Y-143460809D01*
X306442761Y-143498904D01*
X306633238Y-143498904D01*
X306023714Y-143575095D02*
X305414190Y-143575095D01*
X305109428Y-143041761D02*
X305185619Y-143003666D01*
X305223714Y-142965571D01*
X305261809Y-142889380D01*
X305261809Y-142851285D01*
X305223714Y-142775095D01*
X305185619Y-142737000D01*
X305109428Y-142698904D01*
X304957047Y-142698904D01*
X304880857Y-142737000D01*
X304842761Y-142775095D01*
X304804666Y-142851285D01*
X304804666Y-142889380D01*
X304842761Y-142965571D01*
X304880857Y-143003666D01*
X304957047Y-143041761D01*
X305109428Y-143041761D01*
X305185619Y-143079857D01*
X305223714Y-143117952D01*
X305261809Y-143194142D01*
X305261809Y-143346523D01*
X305223714Y-143422714D01*
X305185619Y-143460809D01*
X305109428Y-143498904D01*
X304957047Y-143498904D01*
X304880857Y-143460809D01*
X304842761Y-143422714D01*
X304804666Y-143346523D01*
X304804666Y-143194142D01*
X304842761Y-143117952D01*
X304880857Y-143079857D01*
X304957047Y-143041761D01*
X325683238Y-143498904D02*
X325683238Y-142698904D01*
X325492761Y-142698904D01*
X325378476Y-142737000D01*
X325302285Y-142813190D01*
X325264190Y-142889380D01*
X325226095Y-143041761D01*
X325226095Y-143156047D01*
X325264190Y-143308428D01*
X325302285Y-143384619D01*
X325378476Y-143460809D01*
X325492761Y-143498904D01*
X325683238Y-143498904D01*
X325073714Y-143575095D02*
X324464190Y-143575095D01*
X324235619Y-143498904D02*
X324083238Y-143498904D01*
X324007047Y-143460809D01*
X323968952Y-143422714D01*
X323892761Y-143308428D01*
X323854666Y-143156047D01*
X323854666Y-142851285D01*
X323892761Y-142775095D01*
X323930857Y-142737000D01*
X324007047Y-142698904D01*
X324159428Y-142698904D01*
X324235619Y-142737000D01*
X324273714Y-142775095D01*
X324311809Y-142851285D01*
X324311809Y-143041761D01*
X324273714Y-143117952D01*
X324235619Y-143156047D01*
X324159428Y-143194142D01*
X324007047Y-143194142D01*
X323930857Y-143156047D01*
X323892761Y-143117952D01*
X323854666Y-143041761D01*
X187913095Y-181598904D02*
X187913095Y-180798904D01*
X187722619Y-180798904D01*
X187608333Y-180837000D01*
X187532142Y-180913190D01*
X187494047Y-180989380D01*
X187455952Y-181141761D01*
X187455952Y-181256047D01*
X187494047Y-181408428D01*
X187532142Y-181484619D01*
X187608333Y-181560809D01*
X187722619Y-181598904D01*
X187913095Y-181598904D01*
X187303571Y-181675095D02*
X186694047Y-181675095D01*
X186541666Y-181370333D02*
X186160714Y-181370333D01*
X186617857Y-181598904D02*
X186351190Y-180798904D01*
X186084523Y-181598904D01*
X185398809Y-181598904D02*
X185855952Y-181598904D01*
X185627380Y-181598904D02*
X185627380Y-180798904D01*
X185703571Y-180913190D01*
X185779761Y-180989380D01*
X185855952Y-181027476D01*
X348085666Y-219698904D02*
X348085666Y-218898904D01*
X347895190Y-218898904D01*
X347780904Y-218937000D01*
X347704714Y-219013190D01*
X347666619Y-219089380D01*
X347628523Y-219241761D01*
X347628523Y-219356047D01*
X347666619Y-219508428D01*
X347704714Y-219584619D01*
X347780904Y-219660809D01*
X347895190Y-219698904D01*
X348085666Y-219698904D01*
X347476142Y-219775095D02*
X346866619Y-219775095D01*
X346714238Y-219470333D02*
X346333285Y-219470333D01*
X346790428Y-219698904D02*
X346523761Y-218898904D01*
X346257095Y-219698904D01*
X345609476Y-219698904D02*
X345990428Y-219698904D01*
X345990428Y-218898904D01*
X345457095Y-218898904D02*
X344999952Y-218898904D01*
X345228523Y-219698904D02*
X345228523Y-218898904D01*
X344314238Y-219698904D02*
X344771380Y-219698904D01*
X344542809Y-219698904D02*
X344542809Y-218898904D01*
X344619000Y-219013190D01*
X344695190Y-219089380D01*
X344771380Y-219127476D01*
X205210666Y-219698904D02*
X205210666Y-218898904D01*
X205020190Y-218898904D01*
X204905904Y-218937000D01*
X204829714Y-219013190D01*
X204791619Y-219089380D01*
X204753523Y-219241761D01*
X204753523Y-219356047D01*
X204791619Y-219508428D01*
X204829714Y-219584619D01*
X204905904Y-219660809D01*
X205020190Y-219698904D01*
X205210666Y-219698904D01*
X204601142Y-219775095D02*
X203991619Y-219775095D01*
X203839238Y-219470333D02*
X203458285Y-219470333D01*
X203915428Y-219698904D02*
X203648761Y-218898904D01*
X203382095Y-219698904D01*
X202734476Y-219698904D02*
X203115428Y-219698904D01*
X203115428Y-218898904D01*
X202582095Y-218898904D02*
X202124952Y-218898904D01*
X202353523Y-219698904D02*
X202353523Y-218898904D01*
X201896380Y-218975095D02*
X201858285Y-218937000D01*
X201782095Y-218898904D01*
X201591619Y-218898904D01*
X201515428Y-218937000D01*
X201477333Y-218975095D01*
X201439238Y-219051285D01*
X201439238Y-219127476D01*
X201477333Y-219241761D01*
X201934476Y-219698904D01*
X201439238Y-219698904D01*
X273695238Y-200648904D02*
X273695238Y-199848904D01*
X273504761Y-199848904D01*
X273390476Y-199887000D01*
X273314285Y-199963190D01*
X273276190Y-200039380D01*
X273238095Y-200191761D01*
X273238095Y-200306047D01*
X273276190Y-200458428D01*
X273314285Y-200534619D01*
X273390476Y-200610809D01*
X273504761Y-200648904D01*
X273695238Y-200648904D01*
X273085714Y-200725095D02*
X272476190Y-200725095D01*
X272019047Y-200229857D02*
X271904761Y-200267952D01*
X271866666Y-200306047D01*
X271828571Y-200382238D01*
X271828571Y-200496523D01*
X271866666Y-200572714D01*
X271904761Y-200610809D01*
X271980952Y-200648904D01*
X272285714Y-200648904D01*
X272285714Y-199848904D01*
X272019047Y-199848904D01*
X271942857Y-199887000D01*
X271904761Y-199925095D01*
X271866666Y-200001285D01*
X271866666Y-200077476D01*
X271904761Y-200153666D01*
X271942857Y-200191761D01*
X272019047Y-200229857D01*
X272285714Y-200229857D01*
X271066666Y-200648904D02*
X271523809Y-200648904D01*
X271295238Y-200648904D02*
X271295238Y-199848904D01*
X271371428Y-199963190D01*
X271447619Y-200039380D01*
X271523809Y-200077476D01*
X241004809Y-219698904D02*
X241004809Y-218898904D01*
X240814333Y-218898904D01*
X240700047Y-218937000D01*
X240623857Y-219013190D01*
X240585761Y-219089380D01*
X240547666Y-219241761D01*
X240547666Y-219356047D01*
X240585761Y-219508428D01*
X240623857Y-219584619D01*
X240700047Y-219660809D01*
X240814333Y-219698904D01*
X241004809Y-219698904D01*
X240395285Y-219775095D02*
X239785761Y-219775095D01*
X239328619Y-219279857D02*
X239214333Y-219317952D01*
X239176238Y-219356047D01*
X239138142Y-219432238D01*
X239138142Y-219546523D01*
X239176238Y-219622714D01*
X239214333Y-219660809D01*
X239290523Y-219698904D01*
X239595285Y-219698904D01*
X239595285Y-218898904D01*
X239328619Y-218898904D01*
X239252428Y-218937000D01*
X239214333Y-218975095D01*
X239176238Y-219051285D01*
X239176238Y-219127476D01*
X239214333Y-219203666D01*
X239252428Y-219241761D01*
X239328619Y-219279857D01*
X239595285Y-219279857D01*
X238833380Y-219470333D02*
X238452428Y-219470333D01*
X238909571Y-219698904D02*
X238642904Y-218898904D01*
X238376238Y-219698904D01*
X237652428Y-219622714D02*
X237690523Y-219660809D01*
X237804809Y-219698904D01*
X237881000Y-219698904D01*
X237995285Y-219660809D01*
X238071476Y-219584619D01*
X238109571Y-219508428D01*
X238147666Y-219356047D01*
X238147666Y-219241761D01*
X238109571Y-219089380D01*
X238071476Y-219013190D01*
X237995285Y-218937000D01*
X237881000Y-218898904D01*
X237804809Y-218898904D01*
X237690523Y-218937000D01*
X237652428Y-218975095D01*
X237309571Y-219698904D02*
X237309571Y-218898904D01*
X236852428Y-219698904D02*
X237195285Y-219241761D01*
X236852428Y-218898904D02*
X237309571Y-219356047D01*
X236547666Y-219660809D02*
X236433380Y-219698904D01*
X236242904Y-219698904D01*
X236166714Y-219660809D01*
X236128619Y-219622714D01*
X236090523Y-219546523D01*
X236090523Y-219470333D01*
X236128619Y-219394142D01*
X236166714Y-219356047D01*
X236242904Y-219317952D01*
X236395285Y-219279857D01*
X236471476Y-219241761D01*
X236509571Y-219203666D01*
X236547666Y-219127476D01*
X236547666Y-219051285D01*
X236509571Y-218975095D01*
X236471476Y-218937000D01*
X236395285Y-218898904D01*
X236204809Y-218898904D01*
X236090523Y-218937000D01*
X235747666Y-219698904D02*
X235747666Y-218898904D01*
X235442904Y-218898904D01*
X235366714Y-218937000D01*
X235328619Y-218975095D01*
X235290523Y-219051285D01*
X235290523Y-219165571D01*
X235328619Y-219241761D01*
X235366714Y-219279857D01*
X235442904Y-219317952D01*
X235747666Y-219317952D01*
X234985761Y-219470333D02*
X234604809Y-219470333D01*
X235061952Y-219698904D02*
X234795285Y-218898904D01*
X234528619Y-219698904D01*
X233804809Y-219622714D02*
X233842904Y-219660809D01*
X233957190Y-219698904D01*
X234033380Y-219698904D01*
X234147666Y-219660809D01*
X234223857Y-219584619D01*
X234261952Y-219508428D01*
X234300047Y-219356047D01*
X234300047Y-219241761D01*
X234261952Y-219089380D01*
X234223857Y-219013190D01*
X234147666Y-218937000D01*
X234033380Y-218898904D01*
X233957190Y-218898904D01*
X233842904Y-218937000D01*
X233804809Y-218975095D01*
X233461952Y-219279857D02*
X233195285Y-219279857D01*
X233081000Y-219698904D02*
X233461952Y-219698904D01*
X233461952Y-218898904D01*
X233081000Y-218898904D01*
X232319095Y-219698904D02*
X232776238Y-219698904D01*
X232547666Y-219698904D02*
X232547666Y-218898904D01*
X232623857Y-219013190D01*
X232700047Y-219089380D01*
X232776238Y-219127476D01*
X414835809Y-143498904D02*
X414835809Y-142698904D01*
X414645333Y-142698904D01*
X414531047Y-142737000D01*
X414454857Y-142813190D01*
X414416761Y-142889380D01*
X414378666Y-143041761D01*
X414378666Y-143156047D01*
X414416761Y-143308428D01*
X414454857Y-143384619D01*
X414531047Y-143460809D01*
X414645333Y-143498904D01*
X414835809Y-143498904D01*
X414226285Y-143575095D02*
X413616761Y-143575095D01*
X413159619Y-143079857D02*
X413045333Y-143117952D01*
X413007238Y-143156047D01*
X412969142Y-143232238D01*
X412969142Y-143346523D01*
X413007238Y-143422714D01*
X413045333Y-143460809D01*
X413121523Y-143498904D01*
X413426285Y-143498904D01*
X413426285Y-142698904D01*
X413159619Y-142698904D01*
X413083428Y-142737000D01*
X413045333Y-142775095D01*
X413007238Y-142851285D01*
X413007238Y-142927476D01*
X413045333Y-143003666D01*
X413083428Y-143041761D01*
X413159619Y-143079857D01*
X413426285Y-143079857D01*
X412664380Y-143270333D02*
X412283428Y-143270333D01*
X412740571Y-143498904D02*
X412473904Y-142698904D01*
X412207238Y-143498904D01*
X411483428Y-143422714D02*
X411521523Y-143460809D01*
X411635809Y-143498904D01*
X411712000Y-143498904D01*
X411826285Y-143460809D01*
X411902476Y-143384619D01*
X411940571Y-143308428D01*
X411978666Y-143156047D01*
X411978666Y-143041761D01*
X411940571Y-142889380D01*
X411902476Y-142813190D01*
X411826285Y-142737000D01*
X411712000Y-142698904D01*
X411635809Y-142698904D01*
X411521523Y-142737000D01*
X411483428Y-142775095D01*
X411140571Y-143498904D02*
X411140571Y-142698904D01*
X410683428Y-143498904D02*
X411026285Y-143041761D01*
X410683428Y-142698904D02*
X411140571Y-143156047D01*
X410378666Y-143460809D02*
X410264380Y-143498904D01*
X410073904Y-143498904D01*
X409997714Y-143460809D01*
X409959619Y-143422714D01*
X409921523Y-143346523D01*
X409921523Y-143270333D01*
X409959619Y-143194142D01*
X409997714Y-143156047D01*
X410073904Y-143117952D01*
X410226285Y-143079857D01*
X410302476Y-143041761D01*
X410340571Y-143003666D01*
X410378666Y-142927476D01*
X410378666Y-142851285D01*
X410340571Y-142775095D01*
X410302476Y-142737000D01*
X410226285Y-142698904D01*
X410035809Y-142698904D01*
X409921523Y-142737000D01*
X409578666Y-143498904D02*
X409578666Y-142698904D01*
X409273904Y-142698904D01*
X409197714Y-142737000D01*
X409159619Y-142775095D01*
X409121523Y-142851285D01*
X409121523Y-142965571D01*
X409159619Y-143041761D01*
X409197714Y-143079857D01*
X409273904Y-143117952D01*
X409578666Y-143117952D01*
X408816761Y-143270333D02*
X408435809Y-143270333D01*
X408892952Y-143498904D02*
X408626285Y-142698904D01*
X408359619Y-143498904D01*
X407635809Y-143422714D02*
X407673904Y-143460809D01*
X407788190Y-143498904D01*
X407864380Y-143498904D01*
X407978666Y-143460809D01*
X408054857Y-143384619D01*
X408092952Y-143308428D01*
X408131047Y-143156047D01*
X408131047Y-143041761D01*
X408092952Y-142889380D01*
X408054857Y-142813190D01*
X407978666Y-142737000D01*
X407864380Y-142698904D01*
X407788190Y-142698904D01*
X407673904Y-142737000D01*
X407635809Y-142775095D01*
X407292952Y-143079857D02*
X407026285Y-143079857D01*
X406912000Y-143498904D02*
X407292952Y-143498904D01*
X407292952Y-142698904D01*
X406912000Y-142698904D01*
X406607238Y-142775095D02*
X406569142Y-142737000D01*
X406492952Y-142698904D01*
X406302476Y-142698904D01*
X406226285Y-142737000D01*
X406188190Y-142775095D01*
X406150095Y-142851285D01*
X406150095Y-142927476D01*
X406188190Y-143041761D01*
X406645333Y-143498904D01*
X406150095Y-143498904D01*
X418075000Y-162548904D02*
X418075000Y-161748904D01*
X417884523Y-161748904D01*
X417770238Y-161787000D01*
X417694047Y-161863190D01*
X417655952Y-161939380D01*
X417617857Y-162091761D01*
X417617857Y-162206047D01*
X417655952Y-162358428D01*
X417694047Y-162434619D01*
X417770238Y-162510809D01*
X417884523Y-162548904D01*
X418075000Y-162548904D01*
X417465476Y-162625095D02*
X416855952Y-162625095D01*
X416398809Y-162129857D02*
X416284523Y-162167952D01*
X416246428Y-162206047D01*
X416208333Y-162282238D01*
X416208333Y-162396523D01*
X416246428Y-162472714D01*
X416284523Y-162510809D01*
X416360714Y-162548904D01*
X416665476Y-162548904D01*
X416665476Y-161748904D01*
X416398809Y-161748904D01*
X416322619Y-161787000D01*
X416284523Y-161825095D01*
X416246428Y-161901285D01*
X416246428Y-161977476D01*
X416284523Y-162053666D01*
X416322619Y-162091761D01*
X416398809Y-162129857D01*
X416665476Y-162129857D01*
X415903571Y-162510809D02*
X415789285Y-162548904D01*
X415598809Y-162548904D01*
X415522619Y-162510809D01*
X415484523Y-162472714D01*
X415446428Y-162396523D01*
X415446428Y-162320333D01*
X415484523Y-162244142D01*
X415522619Y-162206047D01*
X415598809Y-162167952D01*
X415751190Y-162129857D01*
X415827380Y-162091761D01*
X415865476Y-162053666D01*
X415903571Y-161977476D01*
X415903571Y-161901285D01*
X415865476Y-161825095D01*
X415827380Y-161787000D01*
X415751190Y-161748904D01*
X415560714Y-161748904D01*
X415446428Y-161787000D01*
X414722619Y-162548904D02*
X415103571Y-162548904D01*
X415103571Y-161748904D01*
X414494047Y-162510809D02*
X414379761Y-162548904D01*
X414189285Y-162548904D01*
X414113095Y-162510809D01*
X414075000Y-162472714D01*
X414036904Y-162396523D01*
X414036904Y-162320333D01*
X414075000Y-162244142D01*
X414113095Y-162206047D01*
X414189285Y-162167952D01*
X414341666Y-162129857D01*
X414417857Y-162091761D01*
X414455952Y-162053666D01*
X414494047Y-161977476D01*
X414494047Y-161901285D01*
X414455952Y-161825095D01*
X414417857Y-161787000D01*
X414341666Y-161748904D01*
X414151190Y-161748904D01*
X414036904Y-161787000D01*
X413694047Y-162548904D02*
X413694047Y-161748904D01*
X413694047Y-162129857D02*
X413236904Y-162129857D01*
X413236904Y-162548904D02*
X413236904Y-161748904D01*
X412436904Y-162548904D02*
X412894047Y-162548904D01*
X412665476Y-162548904D02*
X412665476Y-161748904D01*
X412741666Y-161863190D01*
X412817857Y-161939380D01*
X412894047Y-161977476D01*
X235595238Y-200648904D02*
X235595238Y-199848904D01*
X235404761Y-199848904D01*
X235290476Y-199887000D01*
X235214285Y-199963190D01*
X235176190Y-200039380D01*
X235138095Y-200191761D01*
X235138095Y-200306047D01*
X235176190Y-200458428D01*
X235214285Y-200534619D01*
X235290476Y-200610809D01*
X235404761Y-200648904D01*
X235595238Y-200648904D01*
X234985714Y-200725095D02*
X234376190Y-200725095D01*
X233728571Y-200572714D02*
X233766666Y-200610809D01*
X233880952Y-200648904D01*
X233957142Y-200648904D01*
X234071428Y-200610809D01*
X234147619Y-200534619D01*
X234185714Y-200458428D01*
X234223809Y-200306047D01*
X234223809Y-200191761D01*
X234185714Y-200039380D01*
X234147619Y-199963190D01*
X234071428Y-199887000D01*
X233957142Y-199848904D01*
X233880952Y-199848904D01*
X233766666Y-199887000D01*
X233728571Y-199925095D01*
X232966666Y-200648904D02*
X233423809Y-200648904D01*
X233195238Y-200648904D02*
X233195238Y-199848904D01*
X233271428Y-199963190D01*
X233347619Y-200039380D01*
X233423809Y-200077476D01*
X162900047Y-181598904D02*
X162900047Y-180798904D01*
X162709571Y-180798904D01*
X162595285Y-180837000D01*
X162519095Y-180913190D01*
X162481000Y-180989380D01*
X162442904Y-181141761D01*
X162442904Y-181256047D01*
X162481000Y-181408428D01*
X162519095Y-181484619D01*
X162595285Y-181560809D01*
X162709571Y-181598904D01*
X162900047Y-181598904D01*
X162290523Y-181675095D02*
X161681000Y-181675095D01*
X161033380Y-181522714D02*
X161071476Y-181560809D01*
X161185761Y-181598904D01*
X161261952Y-181598904D01*
X161376238Y-181560809D01*
X161452428Y-181484619D01*
X161490523Y-181408428D01*
X161528619Y-181256047D01*
X161528619Y-181141761D01*
X161490523Y-180989380D01*
X161452428Y-180913190D01*
X161376238Y-180837000D01*
X161261952Y-180798904D01*
X161185761Y-180798904D01*
X161071476Y-180837000D01*
X161033380Y-180875095D01*
X160728619Y-181370333D02*
X160347666Y-181370333D01*
X160804809Y-181598904D02*
X160538142Y-180798904D01*
X160271476Y-181598904D01*
X160004809Y-181598904D02*
X160004809Y-180798904D01*
X159700047Y-180798904D01*
X159623857Y-180837000D01*
X159585761Y-180875095D01*
X159547666Y-180951285D01*
X159547666Y-181065571D01*
X159585761Y-181141761D01*
X159623857Y-181179857D01*
X159700047Y-181217952D01*
X160004809Y-181217952D01*
X159242904Y-181560809D02*
X159128619Y-181598904D01*
X158938142Y-181598904D01*
X158861952Y-181560809D01*
X158823857Y-181522714D01*
X158785761Y-181446523D01*
X158785761Y-181370333D01*
X158823857Y-181294142D01*
X158861952Y-181256047D01*
X158938142Y-181217952D01*
X159090523Y-181179857D01*
X159166714Y-181141761D01*
X159204809Y-181103666D01*
X159242904Y-181027476D01*
X159242904Y-180951285D01*
X159204809Y-180875095D01*
X159166714Y-180837000D01*
X159090523Y-180798904D01*
X158900047Y-180798904D01*
X158785761Y-180837000D01*
X158023857Y-181598904D02*
X158481000Y-181598904D01*
X158252428Y-181598904D02*
X158252428Y-180798904D01*
X158328619Y-180913190D01*
X158404809Y-180989380D01*
X158481000Y-181027476D01*
X375250095Y-162548904D02*
X375250095Y-161748904D01*
X375059619Y-161748904D01*
X374945333Y-161787000D01*
X374869142Y-161863190D01*
X374831047Y-161939380D01*
X374792952Y-162091761D01*
X374792952Y-162206047D01*
X374831047Y-162358428D01*
X374869142Y-162434619D01*
X374945333Y-162510809D01*
X375059619Y-162548904D01*
X375250095Y-162548904D01*
X374640571Y-162625095D02*
X374031047Y-162625095D01*
X373383428Y-162472714D02*
X373421523Y-162510809D01*
X373535809Y-162548904D01*
X373612000Y-162548904D01*
X373726285Y-162510809D01*
X373802476Y-162434619D01*
X373840571Y-162358428D01*
X373878666Y-162206047D01*
X373878666Y-162091761D01*
X373840571Y-161939380D01*
X373802476Y-161863190D01*
X373726285Y-161787000D01*
X373612000Y-161748904D01*
X373535809Y-161748904D01*
X373421523Y-161787000D01*
X373383428Y-161825095D01*
X372773904Y-162129857D02*
X372659619Y-162167952D01*
X372621523Y-162206047D01*
X372583428Y-162282238D01*
X372583428Y-162396523D01*
X372621523Y-162472714D01*
X372659619Y-162510809D01*
X372735809Y-162548904D01*
X373040571Y-162548904D01*
X373040571Y-161748904D01*
X372773904Y-161748904D01*
X372697714Y-161787000D01*
X372659619Y-161825095D01*
X372621523Y-161901285D01*
X372621523Y-161977476D01*
X372659619Y-162053666D01*
X372697714Y-162091761D01*
X372773904Y-162129857D01*
X373040571Y-162129857D01*
X371783428Y-162548904D02*
X372050095Y-162167952D01*
X372240571Y-162548904D02*
X372240571Y-161748904D01*
X371935809Y-161748904D01*
X371859619Y-161787000D01*
X371821523Y-161825095D01*
X371783428Y-161901285D01*
X371783428Y-162015571D01*
X371821523Y-162091761D01*
X371859619Y-162129857D01*
X371935809Y-162167952D01*
X372240571Y-162167952D01*
X371478666Y-162320333D02*
X371097714Y-162320333D01*
X371554857Y-162548904D02*
X371288190Y-161748904D01*
X371021523Y-162548904D01*
X370297714Y-162472714D02*
X370335809Y-162510809D01*
X370450095Y-162548904D01*
X370526285Y-162548904D01*
X370640571Y-162510809D01*
X370716761Y-162434619D01*
X370754857Y-162358428D01*
X370792952Y-162206047D01*
X370792952Y-162091761D01*
X370754857Y-161939380D01*
X370716761Y-161863190D01*
X370640571Y-161787000D01*
X370526285Y-161748904D01*
X370450095Y-161748904D01*
X370335809Y-161787000D01*
X370297714Y-161825095D01*
X369535809Y-162548904D02*
X369992952Y-162548904D01*
X369764380Y-162548904D02*
X369764380Y-161748904D01*
X369840571Y-161863190D01*
X369916761Y-161939380D01*
X369992952Y-161977476D01*
X332521428Y-200648904D02*
X332521428Y-199848904D01*
X332330952Y-199848904D01*
X332216666Y-199887000D01*
X332140476Y-199963190D01*
X332102380Y-200039380D01*
X332064285Y-200191761D01*
X332064285Y-200306047D01*
X332102380Y-200458428D01*
X332140476Y-200534619D01*
X332216666Y-200610809D01*
X332330952Y-200648904D01*
X332521428Y-200648904D01*
X331911904Y-200725095D02*
X331302380Y-200725095D01*
X330654761Y-200572714D02*
X330692857Y-200610809D01*
X330807142Y-200648904D01*
X330883333Y-200648904D01*
X330997619Y-200610809D01*
X331073809Y-200534619D01*
X331111904Y-200458428D01*
X331150000Y-200306047D01*
X331150000Y-200191761D01*
X331111904Y-200039380D01*
X331073809Y-199963190D01*
X330997619Y-199887000D01*
X330883333Y-199848904D01*
X330807142Y-199848904D01*
X330692857Y-199887000D01*
X330654761Y-199925095D01*
X330159523Y-199848904D02*
X330007142Y-199848904D01*
X329930952Y-199887000D01*
X329854761Y-199963190D01*
X329816666Y-200115571D01*
X329816666Y-200382238D01*
X329854761Y-200534619D01*
X329930952Y-200610809D01*
X330007142Y-200648904D01*
X330159523Y-200648904D01*
X330235714Y-200610809D01*
X330311904Y-200534619D01*
X330350000Y-200382238D01*
X330350000Y-200115571D01*
X330311904Y-199963190D01*
X330235714Y-199887000D01*
X330159523Y-199848904D01*
X329473809Y-200648904D02*
X329473809Y-199848904D01*
X329207142Y-200420333D01*
X328940476Y-199848904D01*
X328940476Y-200648904D01*
X328559523Y-200648904D02*
X328559523Y-199848904D01*
X328292857Y-200420333D01*
X328026190Y-199848904D01*
X328026190Y-200648904D01*
X327683333Y-200420333D02*
X327302380Y-200420333D01*
X327759523Y-200648904D02*
X327492857Y-199848904D01*
X327226190Y-200648904D01*
X326540476Y-200648904D02*
X326997619Y-200648904D01*
X326769047Y-200648904D02*
X326769047Y-199848904D01*
X326845238Y-199963190D01*
X326921428Y-200039380D01*
X326997619Y-200077476D01*
X272342809Y-219698904D02*
X272342809Y-218898904D01*
X272152333Y-218898904D01*
X272038047Y-218937000D01*
X271961857Y-219013190D01*
X271923761Y-219089380D01*
X271885666Y-219241761D01*
X271885666Y-219356047D01*
X271923761Y-219508428D01*
X271961857Y-219584619D01*
X272038047Y-219660809D01*
X272152333Y-219698904D01*
X272342809Y-219698904D01*
X271733285Y-219775095D02*
X271123761Y-219775095D01*
X270476142Y-219622714D02*
X270514238Y-219660809D01*
X270628523Y-219698904D01*
X270704714Y-219698904D01*
X270819000Y-219660809D01*
X270895190Y-219584619D01*
X270933285Y-219508428D01*
X270971380Y-219356047D01*
X270971380Y-219241761D01*
X270933285Y-219089380D01*
X270895190Y-219013190D01*
X270819000Y-218937000D01*
X270704714Y-218898904D01*
X270628523Y-218898904D01*
X270514238Y-218937000D01*
X270476142Y-218975095D01*
X270247571Y-218898904D02*
X269790428Y-218898904D01*
X270019000Y-219698904D02*
X270019000Y-218898904D01*
X269066619Y-219698904D02*
X269333285Y-219317952D01*
X269523761Y-219698904D02*
X269523761Y-218898904D01*
X269219000Y-218898904D01*
X269142809Y-218937000D01*
X269104714Y-218975095D01*
X269066619Y-219051285D01*
X269066619Y-219165571D01*
X269104714Y-219241761D01*
X269142809Y-219279857D01*
X269219000Y-219317952D01*
X269523761Y-219317952D01*
X268342809Y-219698904D02*
X268723761Y-219698904D01*
X268723761Y-218898904D01*
X267657095Y-219698904D02*
X268114238Y-219698904D01*
X267885666Y-219698904D02*
X267885666Y-218898904D01*
X267961857Y-219013190D01*
X268038047Y-219089380D01*
X268114238Y-219127476D01*
X419979809Y-219698904D02*
X419979809Y-218898904D01*
X419789333Y-218898904D01*
X419675047Y-218937000D01*
X419598857Y-219013190D01*
X419560761Y-219089380D01*
X419522666Y-219241761D01*
X419522666Y-219356047D01*
X419560761Y-219508428D01*
X419598857Y-219584619D01*
X419675047Y-219660809D01*
X419789333Y-219698904D01*
X419979809Y-219698904D01*
X419370285Y-219775095D02*
X418760761Y-219775095D01*
X418113142Y-219622714D02*
X418151238Y-219660809D01*
X418265523Y-219698904D01*
X418341714Y-219698904D01*
X418456000Y-219660809D01*
X418532190Y-219584619D01*
X418570285Y-219508428D01*
X418608380Y-219356047D01*
X418608380Y-219241761D01*
X418570285Y-219089380D01*
X418532190Y-219013190D01*
X418456000Y-218937000D01*
X418341714Y-218898904D01*
X418265523Y-218898904D01*
X418151238Y-218937000D01*
X418113142Y-218975095D01*
X417884571Y-218898904D02*
X417427428Y-218898904D01*
X417656000Y-219698904D02*
X417656000Y-218898904D01*
X416703619Y-219698904D02*
X416970285Y-219317952D01*
X417160761Y-219698904D02*
X417160761Y-218898904D01*
X416856000Y-218898904D01*
X416779809Y-218937000D01*
X416741714Y-218975095D01*
X416703619Y-219051285D01*
X416703619Y-219165571D01*
X416741714Y-219241761D01*
X416779809Y-219279857D01*
X416856000Y-219317952D01*
X417160761Y-219317952D01*
X415979809Y-219698904D02*
X416360761Y-219698904D01*
X416360761Y-218898904D01*
X415751238Y-218975095D02*
X415713142Y-218937000D01*
X415636952Y-218898904D01*
X415446476Y-218898904D01*
X415370285Y-218937000D01*
X415332190Y-218975095D01*
X415294095Y-219051285D01*
X415294095Y-219127476D01*
X415332190Y-219241761D01*
X415789333Y-219698904D01*
X415294095Y-219698904D01*
X158042809Y-219698904D02*
X158042809Y-218898904D01*
X157852333Y-218898904D01*
X157738047Y-218937000D01*
X157661857Y-219013190D01*
X157623761Y-219089380D01*
X157585666Y-219241761D01*
X157585666Y-219356047D01*
X157623761Y-219508428D01*
X157661857Y-219584619D01*
X157738047Y-219660809D01*
X157852333Y-219698904D01*
X158042809Y-219698904D01*
X157433285Y-219775095D02*
X156823761Y-219775095D01*
X156176142Y-219622714D02*
X156214238Y-219660809D01*
X156328523Y-219698904D01*
X156404714Y-219698904D01*
X156519000Y-219660809D01*
X156595190Y-219584619D01*
X156633285Y-219508428D01*
X156671380Y-219356047D01*
X156671380Y-219241761D01*
X156633285Y-219089380D01*
X156595190Y-219013190D01*
X156519000Y-218937000D01*
X156404714Y-218898904D01*
X156328523Y-218898904D01*
X156214238Y-218937000D01*
X156176142Y-218975095D01*
X155947571Y-218898904D02*
X155490428Y-218898904D01*
X155719000Y-219698904D02*
X155719000Y-218898904D01*
X154766619Y-219698904D02*
X155033285Y-219317952D01*
X155223761Y-219698904D02*
X155223761Y-218898904D01*
X154919000Y-218898904D01*
X154842809Y-218937000D01*
X154804714Y-218975095D01*
X154766619Y-219051285D01*
X154766619Y-219165571D01*
X154804714Y-219241761D01*
X154842809Y-219279857D01*
X154919000Y-219317952D01*
X155223761Y-219317952D01*
X154042809Y-219698904D02*
X154423761Y-219698904D01*
X154423761Y-218898904D01*
X153852333Y-218898904D02*
X153357095Y-218898904D01*
X153623761Y-219203666D01*
X153509476Y-219203666D01*
X153433285Y-219241761D01*
X153395190Y-219279857D01*
X153357095Y-219356047D01*
X153357095Y-219546523D01*
X153395190Y-219622714D01*
X153433285Y-219660809D01*
X153509476Y-219698904D01*
X153738047Y-219698904D01*
X153814238Y-219660809D01*
X153852333Y-219622714D01*
X226070238Y-181598904D02*
X226070238Y-180798904D01*
X225879761Y-180798904D01*
X225765476Y-180837000D01*
X225689285Y-180913190D01*
X225651190Y-180989380D01*
X225613095Y-181141761D01*
X225613095Y-181256047D01*
X225651190Y-181408428D01*
X225689285Y-181484619D01*
X225765476Y-181560809D01*
X225879761Y-181598904D01*
X226070238Y-181598904D01*
X225460714Y-181675095D02*
X224851190Y-181675095D01*
X224660714Y-181598904D02*
X224660714Y-180798904D01*
X224470238Y-180798904D01*
X224355952Y-180837000D01*
X224279761Y-180913190D01*
X224241666Y-180989380D01*
X224203571Y-181141761D01*
X224203571Y-181256047D01*
X224241666Y-181408428D01*
X224279761Y-181484619D01*
X224355952Y-181560809D01*
X224470238Y-181598904D01*
X224660714Y-181598904D01*
X223441666Y-181598904D02*
X223898809Y-181598904D01*
X223670238Y-181598904D02*
X223670238Y-180798904D01*
X223746428Y-180913190D01*
X223822619Y-180989380D01*
X223898809Y-181027476D01*
X350619047Y-200648904D02*
X350619047Y-199848904D01*
X350428571Y-199848904D01*
X350314285Y-199887000D01*
X350238095Y-199963190D01*
X350200000Y-200039380D01*
X350161904Y-200191761D01*
X350161904Y-200306047D01*
X350200000Y-200458428D01*
X350238095Y-200534619D01*
X350314285Y-200610809D01*
X350428571Y-200648904D01*
X350619047Y-200648904D01*
X350009523Y-200725095D02*
X349400000Y-200725095D01*
X349209523Y-200648904D02*
X349209523Y-199848904D01*
X349019047Y-199848904D01*
X348904761Y-199887000D01*
X348828571Y-199963190D01*
X348790476Y-200039380D01*
X348752380Y-200191761D01*
X348752380Y-200306047D01*
X348790476Y-200458428D01*
X348828571Y-200534619D01*
X348904761Y-200610809D01*
X349019047Y-200648904D01*
X349209523Y-200648904D01*
X348257142Y-199848904D02*
X348104761Y-199848904D01*
X348028571Y-199887000D01*
X347952380Y-199963190D01*
X347914285Y-200115571D01*
X347914285Y-200382238D01*
X347952380Y-200534619D01*
X348028571Y-200610809D01*
X348104761Y-200648904D01*
X348257142Y-200648904D01*
X348333333Y-200610809D01*
X348409523Y-200534619D01*
X348447619Y-200382238D01*
X348447619Y-200115571D01*
X348409523Y-199963190D01*
X348333333Y-199887000D01*
X348257142Y-199848904D01*
X347685714Y-199848904D02*
X347228571Y-199848904D01*
X347457142Y-200648904D02*
X347457142Y-199848904D01*
X346542857Y-200648904D02*
X347000000Y-200648904D01*
X346771428Y-200648904D02*
X346771428Y-199848904D01*
X346847619Y-199963190D01*
X346923809Y-200039380D01*
X347000000Y-200077476D01*
X221269142Y-162548904D02*
X221269142Y-161748904D01*
X221078666Y-161748904D01*
X220964380Y-161787000D01*
X220888190Y-161863190D01*
X220850095Y-161939380D01*
X220812000Y-162091761D01*
X220812000Y-162206047D01*
X220850095Y-162358428D01*
X220888190Y-162434619D01*
X220964380Y-162510809D01*
X221078666Y-162548904D01*
X221269142Y-162548904D01*
X220659619Y-162625095D02*
X220050095Y-162625095D01*
X219859619Y-162129857D02*
X219592952Y-162129857D01*
X219478666Y-162548904D02*
X219859619Y-162548904D01*
X219859619Y-161748904D01*
X219478666Y-161748904D01*
X218716761Y-162548904D02*
X219173904Y-162548904D01*
X218945333Y-162548904D02*
X218945333Y-161748904D01*
X219021523Y-161863190D01*
X219097714Y-161939380D01*
X219173904Y-161977476D01*
X410873857Y-181598904D02*
X410873857Y-180798904D01*
X410683380Y-180798904D01*
X410569095Y-180837000D01*
X410492904Y-180913190D01*
X410454809Y-180989380D01*
X410416714Y-181141761D01*
X410416714Y-181256047D01*
X410454809Y-181408428D01*
X410492904Y-181484619D01*
X410569095Y-181560809D01*
X410683380Y-181598904D01*
X410873857Y-181598904D01*
X410264333Y-181675095D02*
X409654809Y-181675095D01*
X409464333Y-181179857D02*
X409197666Y-181179857D01*
X409083380Y-181598904D02*
X409464333Y-181598904D01*
X409464333Y-180798904D01*
X409083380Y-180798904D01*
X408740523Y-181598904D02*
X408740523Y-180798904D01*
X408283380Y-181598904D01*
X408283380Y-180798904D01*
X408016714Y-180798904D02*
X407559571Y-180798904D01*
X407788142Y-181598904D02*
X407788142Y-180798904D01*
X407292904Y-181179857D02*
X407026238Y-181179857D01*
X406911952Y-181598904D02*
X407292904Y-181598904D01*
X407292904Y-180798904D01*
X406911952Y-180798904D01*
X406111952Y-181598904D02*
X406378619Y-181217952D01*
X406569095Y-181598904D02*
X406569095Y-180798904D01*
X406264333Y-180798904D01*
X406188142Y-180837000D01*
X406150047Y-180875095D01*
X406111952Y-180951285D01*
X406111952Y-181065571D01*
X406150047Y-181141761D01*
X406188142Y-181179857D01*
X406264333Y-181217952D01*
X406569095Y-181217952D01*
X405350047Y-181598904D02*
X405807190Y-181598904D01*
X405578619Y-181598904D02*
X405578619Y-180798904D01*
X405654809Y-180913190D01*
X405731000Y-180989380D01*
X405807190Y-181027476D01*
X384699904Y-143498904D02*
X384699904Y-142698904D01*
X384509428Y-142698904D01*
X384395142Y-142737000D01*
X384318952Y-142813190D01*
X384280857Y-142889380D01*
X384242761Y-143041761D01*
X384242761Y-143156047D01*
X384280857Y-143308428D01*
X384318952Y-143384619D01*
X384395142Y-143460809D01*
X384509428Y-143498904D01*
X384699904Y-143498904D01*
X384090380Y-143575095D02*
X383480857Y-143575095D01*
X383290380Y-143079857D02*
X383023714Y-143079857D01*
X382909428Y-143498904D02*
X383290380Y-143498904D01*
X383290380Y-142698904D01*
X382909428Y-142698904D01*
X382033238Y-143575095D02*
X382109428Y-143537000D01*
X382185619Y-143460809D01*
X382299904Y-143346523D01*
X382376095Y-143308428D01*
X382452285Y-143308428D01*
X382414190Y-143498904D02*
X382490380Y-143460809D01*
X382566571Y-143384619D01*
X382604666Y-143232238D01*
X382604666Y-142965571D01*
X382566571Y-142813190D01*
X382490380Y-142737000D01*
X382414190Y-142698904D01*
X382261809Y-142698904D01*
X382185619Y-142737000D01*
X382109428Y-142813190D01*
X382071333Y-142965571D01*
X382071333Y-143232238D01*
X382109428Y-143384619D01*
X382185619Y-143460809D01*
X382261809Y-143498904D01*
X382414190Y-143498904D01*
X381728476Y-142698904D02*
X381728476Y-143346523D01*
X381690380Y-143422714D01*
X381652285Y-143460809D01*
X381576095Y-143498904D01*
X381423714Y-143498904D01*
X381347523Y-143460809D01*
X381309428Y-143422714D01*
X381271333Y-143346523D01*
X381271333Y-142698904D01*
X380928476Y-143270333D02*
X380547523Y-143270333D01*
X381004666Y-143498904D02*
X380738000Y-142698904D01*
X380471333Y-143498904D01*
X379823714Y-143498904D02*
X380204666Y-143498904D01*
X380204666Y-142698904D01*
X379138000Y-143498904D02*
X379595142Y-143498904D01*
X379366571Y-143498904D02*
X379366571Y-142698904D01*
X379442761Y-142813190D01*
X379518952Y-142889380D01*
X379595142Y-142927476D01*
X159406904Y-149491904D02*
X158606904Y-149491904D01*
X158606904Y-149682380D01*
X158645000Y-149796666D01*
X158721190Y-149872857D01*
X158797380Y-149910952D01*
X158949761Y-149949047D01*
X159064047Y-149949047D01*
X159216428Y-149910952D01*
X159292619Y-149872857D01*
X159368809Y-149796666D01*
X159406904Y-149682380D01*
X159406904Y-149491904D01*
X159483095Y-150101428D02*
X159483095Y-150710952D01*
X158987857Y-150901428D02*
X158987857Y-151168095D01*
X159406904Y-151282380D02*
X159406904Y-150901428D01*
X158606904Y-150901428D01*
X158606904Y-151282380D01*
X159368809Y-151587142D02*
X159406904Y-151701428D01*
X159406904Y-151891904D01*
X159368809Y-151968095D01*
X159330714Y-152006190D01*
X159254523Y-152044285D01*
X159178333Y-152044285D01*
X159102142Y-152006190D01*
X159064047Y-151968095D01*
X159025952Y-151891904D01*
X158987857Y-151739523D01*
X158949761Y-151663333D01*
X158911666Y-151625238D01*
X158835476Y-151587142D01*
X158759285Y-151587142D01*
X158683095Y-151625238D01*
X158645000Y-151663333D01*
X158606904Y-151739523D01*
X158606904Y-151930000D01*
X158645000Y-152044285D01*
X159330714Y-152844285D02*
X159368809Y-152806190D01*
X159406904Y-152691904D01*
X159406904Y-152615714D01*
X159368809Y-152501428D01*
X159292619Y-152425238D01*
X159216428Y-152387142D01*
X159064047Y-152349047D01*
X158949761Y-152349047D01*
X158797380Y-152387142D01*
X158721190Y-152425238D01*
X158645000Y-152501428D01*
X158606904Y-152615714D01*
X158606904Y-152691904D01*
X158645000Y-152806190D01*
X158683095Y-152844285D01*
X159406904Y-153606190D02*
X159406904Y-153149047D01*
X159406904Y-153377619D02*
X158606904Y-153377619D01*
X158721190Y-153301428D01*
X158797380Y-153225238D01*
X158835476Y-153149047D01*
X245063095Y-181598904D02*
X245063095Y-180798904D01*
X244872619Y-180798904D01*
X244758333Y-180837000D01*
X244682142Y-180913190D01*
X244644047Y-180989380D01*
X244605952Y-181141761D01*
X244605952Y-181256047D01*
X244644047Y-181408428D01*
X244682142Y-181484619D01*
X244758333Y-181560809D01*
X244872619Y-181598904D01*
X245063095Y-181598904D01*
X244453571Y-181675095D02*
X243844047Y-181675095D01*
X243386904Y-181179857D02*
X243653571Y-181179857D01*
X243653571Y-181598904D02*
X243653571Y-180798904D01*
X243272619Y-180798904D01*
X242548809Y-181598904D02*
X243005952Y-181598904D01*
X242777380Y-181598904D02*
X242777380Y-180798904D01*
X242853571Y-180913190D01*
X242929761Y-180989380D01*
X243005952Y-181027476D01*
X272170238Y-179598904D02*
X272170238Y-178798904D01*
X271979761Y-178798904D01*
X271865476Y-178837000D01*
X271789285Y-178913190D01*
X271751190Y-178989380D01*
X271713095Y-179141761D01*
X271713095Y-179256047D01*
X271751190Y-179408428D01*
X271789285Y-179484619D01*
X271865476Y-179560809D01*
X271979761Y-179598904D01*
X272170238Y-179598904D01*
X271560714Y-179675095D02*
X270951190Y-179675095D01*
X270341666Y-178837000D02*
X270417857Y-178798904D01*
X270532142Y-178798904D01*
X270646428Y-178837000D01*
X270722619Y-178913190D01*
X270760714Y-178989380D01*
X270798809Y-179141761D01*
X270798809Y-179256047D01*
X270760714Y-179408428D01*
X270722619Y-179484619D01*
X270646428Y-179560809D01*
X270532142Y-179598904D01*
X270455952Y-179598904D01*
X270341666Y-179560809D01*
X270303571Y-179522714D01*
X270303571Y-179256047D01*
X270455952Y-179256047D01*
X269541666Y-179598904D02*
X269998809Y-179598904D01*
X269770238Y-179598904D02*
X269770238Y-178798904D01*
X269846428Y-178913190D01*
X269922619Y-178989380D01*
X269998809Y-179027476D01*
X294066904Y-181457714D02*
X293266904Y-181457714D01*
X293266904Y-181648190D01*
X293305000Y-181762476D01*
X293381190Y-181838666D01*
X293457380Y-181876761D01*
X293609761Y-181914857D01*
X293724047Y-181914857D01*
X293876428Y-181876761D01*
X293952619Y-181838666D01*
X294028809Y-181762476D01*
X294066904Y-181648190D01*
X294066904Y-181457714D01*
X294143095Y-182067238D02*
X294143095Y-182676761D01*
X294066904Y-182867238D02*
X293266904Y-182867238D01*
X293647857Y-182867238D02*
X293647857Y-183324380D01*
X294066904Y-183324380D02*
X293266904Y-183324380D01*
X294066904Y-184124380D02*
X294066904Y-183667238D01*
X294066904Y-183895809D02*
X293266904Y-183895809D01*
X293381190Y-183819619D01*
X293457380Y-183743428D01*
X293495476Y-183667238D01*
X316347714Y-162548904D02*
X316347714Y-161748904D01*
X316157238Y-161748904D01*
X316042952Y-161787000D01*
X315966761Y-161863190D01*
X315928666Y-161939380D01*
X315890571Y-162091761D01*
X315890571Y-162206047D01*
X315928666Y-162358428D01*
X315966761Y-162434619D01*
X316042952Y-162510809D01*
X316157238Y-162548904D01*
X316347714Y-162548904D01*
X315738190Y-162625095D02*
X315128666Y-162625095D01*
X314938190Y-162548904D02*
X314938190Y-161748904D01*
X314138190Y-162548904D02*
X314595333Y-162548904D01*
X314366761Y-162548904D02*
X314366761Y-161748904D01*
X314442952Y-161863190D01*
X314519142Y-161939380D01*
X314595333Y-161977476D01*
X302175000Y-181598904D02*
X302175000Y-180798904D01*
X301984523Y-180798904D01*
X301870238Y-180837000D01*
X301794047Y-180913190D01*
X301755952Y-180989380D01*
X301717857Y-181141761D01*
X301717857Y-181256047D01*
X301755952Y-181408428D01*
X301794047Y-181484619D01*
X301870238Y-181560809D01*
X301984523Y-181598904D01*
X302175000Y-181598904D01*
X301565476Y-181675095D02*
X300955952Y-181675095D01*
X300536904Y-180798904D02*
X300536904Y-181370333D01*
X300575000Y-181484619D01*
X300651190Y-181560809D01*
X300765476Y-181598904D01*
X300841666Y-181598904D01*
X299736904Y-181598904D02*
X300194047Y-181598904D01*
X299965476Y-181598904D02*
X299965476Y-180798904D01*
X300041666Y-180913190D01*
X300117857Y-180989380D01*
X300194047Y-181027476D01*
X321320238Y-181598904D02*
X321320238Y-180798904D01*
X321129761Y-180798904D01*
X321015476Y-180837000D01*
X320939285Y-180913190D01*
X320901190Y-180989380D01*
X320863095Y-181141761D01*
X320863095Y-181256047D01*
X320901190Y-181408428D01*
X320939285Y-181484619D01*
X321015476Y-181560809D01*
X321129761Y-181598904D01*
X321320238Y-181598904D01*
X320710714Y-181675095D02*
X320101190Y-181675095D01*
X319910714Y-181598904D02*
X319910714Y-180798904D01*
X319453571Y-181598904D02*
X319796428Y-181141761D01*
X319453571Y-180798904D02*
X319910714Y-181256047D01*
X318691666Y-181598904D02*
X319148809Y-181598904D01*
X318920238Y-181598904D02*
X318920238Y-180798904D01*
X318996428Y-180913190D01*
X319072619Y-180989380D01*
X319148809Y-181027476D01*
X340294047Y-181598904D02*
X340294047Y-180798904D01*
X340103571Y-180798904D01*
X339989285Y-180837000D01*
X339913095Y-180913190D01*
X339875000Y-180989380D01*
X339836904Y-181141761D01*
X339836904Y-181256047D01*
X339875000Y-181408428D01*
X339913095Y-181484619D01*
X339989285Y-181560809D01*
X340103571Y-181598904D01*
X340294047Y-181598904D01*
X339684523Y-181675095D02*
X339075000Y-181675095D01*
X338503571Y-181598904D02*
X338884523Y-181598904D01*
X338884523Y-180798904D01*
X337817857Y-181598904D02*
X338275000Y-181598904D01*
X338046428Y-181598904D02*
X338046428Y-180798904D01*
X338122619Y-180913190D01*
X338198809Y-180989380D01*
X338275000Y-181027476D01*
X311852380Y-200648904D02*
X311852380Y-199848904D01*
X311661904Y-199848904D01*
X311547619Y-199887000D01*
X311471428Y-199963190D01*
X311433333Y-200039380D01*
X311395238Y-200191761D01*
X311395238Y-200306047D01*
X311433333Y-200458428D01*
X311471428Y-200534619D01*
X311547619Y-200610809D01*
X311661904Y-200648904D01*
X311852380Y-200648904D01*
X311242857Y-200725095D02*
X310633333Y-200725095D01*
X310442857Y-200648904D02*
X310442857Y-199848904D01*
X310176190Y-200420333D01*
X309909523Y-199848904D01*
X309909523Y-200648904D01*
X309109523Y-200648904D02*
X309566666Y-200648904D01*
X309338095Y-200648904D02*
X309338095Y-199848904D01*
X309414285Y-199963190D01*
X309490476Y-200039380D01*
X309566666Y-200077476D01*
X396396380Y-219698904D02*
X396396380Y-218898904D01*
X396205904Y-218898904D01*
X396091619Y-218937000D01*
X396015428Y-219013190D01*
X395977333Y-219089380D01*
X395939238Y-219241761D01*
X395939238Y-219356047D01*
X395977333Y-219508428D01*
X396015428Y-219584619D01*
X396091619Y-219660809D01*
X396205904Y-219698904D01*
X396396380Y-219698904D01*
X395786857Y-219775095D02*
X395177333Y-219775095D01*
X394986857Y-219698904D02*
X394986857Y-218898904D01*
X394720190Y-219470333D01*
X394453523Y-218898904D01*
X394453523Y-219698904D01*
X394072571Y-219279857D02*
X393805904Y-219279857D01*
X393691619Y-219698904D02*
X394072571Y-219698904D01*
X394072571Y-218898904D01*
X393691619Y-218898904D01*
X393348761Y-219698904D02*
X393348761Y-218898904D01*
X392891619Y-219698904D01*
X392891619Y-218898904D01*
X392510666Y-218898904D02*
X392510666Y-219546523D01*
X392472571Y-219622714D01*
X392434476Y-219660809D01*
X392358285Y-219698904D01*
X392205904Y-219698904D01*
X392129714Y-219660809D01*
X392091619Y-219622714D01*
X392053523Y-219546523D01*
X392053523Y-218898904D01*
X391253523Y-219698904D02*
X391710666Y-219698904D01*
X391482095Y-219698904D02*
X391482095Y-218898904D01*
X391558285Y-219013190D01*
X391634476Y-219089380D01*
X391710666Y-219127476D01*
X365649904Y-143498904D02*
X365649904Y-142698904D01*
X365459428Y-142698904D01*
X365345142Y-142737000D01*
X365268952Y-142813190D01*
X365230857Y-142889380D01*
X365192761Y-143041761D01*
X365192761Y-143156047D01*
X365230857Y-143308428D01*
X365268952Y-143384619D01*
X365345142Y-143460809D01*
X365459428Y-143498904D01*
X365649904Y-143498904D01*
X365040380Y-143575095D02*
X364430857Y-143575095D01*
X364240380Y-143498904D02*
X364240380Y-142698904D01*
X363973714Y-143270333D01*
X363707047Y-142698904D01*
X363707047Y-143498904D01*
X363326095Y-143498904D02*
X363326095Y-142698904D01*
X362945142Y-143498904D02*
X362945142Y-142698904D01*
X362488000Y-143498904D01*
X362488000Y-142698904D01*
X362107047Y-142698904D02*
X362107047Y-143346523D01*
X362068952Y-143422714D01*
X362030857Y-143460809D01*
X361954666Y-143498904D01*
X361802285Y-143498904D01*
X361726095Y-143460809D01*
X361688000Y-143422714D01*
X361649904Y-143346523D01*
X361649904Y-142698904D01*
X361307047Y-143460809D02*
X361192761Y-143498904D01*
X361002285Y-143498904D01*
X360926095Y-143460809D01*
X360888000Y-143422714D01*
X360849904Y-143346523D01*
X360849904Y-143270333D01*
X360888000Y-143194142D01*
X360926095Y-143156047D01*
X361002285Y-143117952D01*
X361154666Y-143079857D01*
X361230857Y-143041761D01*
X361268952Y-143003666D01*
X361307047Y-142927476D01*
X361307047Y-142851285D01*
X361268952Y-142775095D01*
X361230857Y-142737000D01*
X361154666Y-142698904D01*
X360964190Y-142698904D01*
X360849904Y-142737000D01*
X360088000Y-143498904D02*
X360545142Y-143498904D01*
X360316571Y-143498904D02*
X360316571Y-142698904D01*
X360392761Y-142813190D01*
X360468952Y-142889380D01*
X360545142Y-142927476D01*
X292764285Y-200648904D02*
X292764285Y-199848904D01*
X292573809Y-199848904D01*
X292459523Y-199887000D01*
X292383333Y-199963190D01*
X292345238Y-200039380D01*
X292307142Y-200191761D01*
X292307142Y-200306047D01*
X292345238Y-200458428D01*
X292383333Y-200534619D01*
X292459523Y-200610809D01*
X292573809Y-200648904D01*
X292764285Y-200648904D01*
X292154761Y-200725095D02*
X291545238Y-200725095D01*
X291354761Y-200648904D02*
X291354761Y-199848904D01*
X290897619Y-200648904D01*
X290897619Y-199848904D01*
X290097619Y-200648904D02*
X290554761Y-200648904D01*
X290326190Y-200648904D02*
X290326190Y-199848904D01*
X290402380Y-199963190D01*
X290478571Y-200039380D01*
X290554761Y-200077476D01*
X335626285Y-162548904D02*
X335626285Y-161748904D01*
X335435809Y-161748904D01*
X335321523Y-161787000D01*
X335245333Y-161863190D01*
X335207238Y-161939380D01*
X335169142Y-162091761D01*
X335169142Y-162206047D01*
X335207238Y-162358428D01*
X335245333Y-162434619D01*
X335321523Y-162510809D01*
X335435809Y-162548904D01*
X335626285Y-162548904D01*
X335016761Y-162625095D02*
X334407238Y-162625095D01*
X334064380Y-161748904D02*
X333912000Y-161748904D01*
X333835809Y-161787000D01*
X333759619Y-161863190D01*
X333721523Y-162015571D01*
X333721523Y-162282238D01*
X333759619Y-162434619D01*
X333835809Y-162510809D01*
X333912000Y-162548904D01*
X334064380Y-162548904D01*
X334140571Y-162510809D01*
X334216761Y-162434619D01*
X334254857Y-162282238D01*
X334254857Y-162015571D01*
X334216761Y-161863190D01*
X334140571Y-161787000D01*
X334064380Y-161748904D01*
X332959619Y-162548904D02*
X333416761Y-162548904D01*
X333188190Y-162548904D02*
X333188190Y-161748904D01*
X333264380Y-161863190D01*
X333340571Y-161939380D01*
X333416761Y-161977476D01*
X382404904Y-169404857D02*
X381604904Y-169404857D01*
X381604904Y-169595333D01*
X381643000Y-169709619D01*
X381719190Y-169785809D01*
X381795380Y-169823904D01*
X381947761Y-169862000D01*
X382062047Y-169862000D01*
X382214428Y-169823904D01*
X382290619Y-169785809D01*
X382366809Y-169709619D01*
X382404904Y-169595333D01*
X382404904Y-169404857D01*
X382481095Y-170014380D02*
X382481095Y-170623904D01*
X381604904Y-170966761D02*
X381604904Y-171119142D01*
X381643000Y-171195333D01*
X381719190Y-171271523D01*
X381871571Y-171309619D01*
X382138238Y-171309619D01*
X382290619Y-171271523D01*
X382366809Y-171195333D01*
X382404904Y-171119142D01*
X382404904Y-170966761D01*
X382366809Y-170890571D01*
X382290619Y-170814380D01*
X382138238Y-170776285D01*
X381871571Y-170776285D01*
X381719190Y-170814380D01*
X381643000Y-170890571D01*
X381604904Y-170966761D01*
X381985857Y-171919142D02*
X382023952Y-172033428D01*
X382062047Y-172071523D01*
X382138238Y-172109619D01*
X382252523Y-172109619D01*
X382328714Y-172071523D01*
X382366809Y-172033428D01*
X382404904Y-171957238D01*
X382404904Y-171652476D01*
X381604904Y-171652476D01*
X381604904Y-171919142D01*
X381643000Y-171995333D01*
X381681095Y-172033428D01*
X381757285Y-172071523D01*
X381833476Y-172071523D01*
X381909666Y-172033428D01*
X381947761Y-171995333D01*
X381985857Y-171919142D01*
X381985857Y-171652476D01*
X382404904Y-172909619D02*
X382023952Y-172642952D01*
X382404904Y-172452476D02*
X381604904Y-172452476D01*
X381604904Y-172757238D01*
X381643000Y-172833428D01*
X381681095Y-172871523D01*
X381757285Y-172909619D01*
X381871571Y-172909619D01*
X381947761Y-172871523D01*
X381985857Y-172833428D01*
X382023952Y-172757238D01*
X382023952Y-172452476D01*
X382176333Y-173214380D02*
X382176333Y-173595333D01*
X382404904Y-173138190D02*
X381604904Y-173404857D01*
X382404904Y-173671523D01*
X382328714Y-174395333D02*
X382366809Y-174357238D01*
X382404904Y-174242952D01*
X382404904Y-174166761D01*
X382366809Y-174052476D01*
X382290619Y-173976285D01*
X382214428Y-173938190D01*
X382062047Y-173900095D01*
X381947761Y-173900095D01*
X381795380Y-173938190D01*
X381719190Y-173976285D01*
X381643000Y-174052476D01*
X381604904Y-174166761D01*
X381604904Y-174242952D01*
X381643000Y-174357238D01*
X381681095Y-174395333D01*
X382404904Y-175157238D02*
X382404904Y-174700095D01*
X382404904Y-174928666D02*
X381604904Y-174928666D01*
X381719190Y-174852476D01*
X381795380Y-174776285D01*
X381833476Y-174700095D01*
X354657238Y-162548904D02*
X354657238Y-161748904D01*
X354466761Y-161748904D01*
X354352476Y-161787000D01*
X354276285Y-161863190D01*
X354238190Y-161939380D01*
X354200095Y-162091761D01*
X354200095Y-162206047D01*
X354238190Y-162358428D01*
X354276285Y-162434619D01*
X354352476Y-162510809D01*
X354466761Y-162548904D01*
X354657238Y-162548904D01*
X354047714Y-162625095D02*
X353438190Y-162625095D01*
X353247714Y-162548904D02*
X353247714Y-161748904D01*
X352942952Y-161748904D01*
X352866761Y-161787000D01*
X352828666Y-161825095D01*
X352790571Y-161901285D01*
X352790571Y-162015571D01*
X352828666Y-162091761D01*
X352866761Y-162129857D01*
X352942952Y-162167952D01*
X353247714Y-162167952D01*
X352028666Y-162548904D02*
X352485809Y-162548904D01*
X352257238Y-162548904D02*
X352257238Y-161748904D01*
X352333428Y-161863190D01*
X352409619Y-161939380D01*
X352485809Y-161977476D01*
X183226285Y-162548904D02*
X183226285Y-161748904D01*
X183035809Y-161748904D01*
X182921523Y-161787000D01*
X182845333Y-161863190D01*
X182807238Y-161939380D01*
X182769142Y-162091761D01*
X182769142Y-162206047D01*
X182807238Y-162358428D01*
X182845333Y-162434619D01*
X182921523Y-162510809D01*
X183035809Y-162548904D01*
X183226285Y-162548904D01*
X182616761Y-162625095D02*
X182007238Y-162625095D01*
X181283428Y-162625095D02*
X181359619Y-162587000D01*
X181435809Y-162510809D01*
X181550095Y-162396523D01*
X181626285Y-162358428D01*
X181702476Y-162358428D01*
X181664380Y-162548904D02*
X181740571Y-162510809D01*
X181816761Y-162434619D01*
X181854857Y-162282238D01*
X181854857Y-162015571D01*
X181816761Y-161863190D01*
X181740571Y-161787000D01*
X181664380Y-161748904D01*
X181512000Y-161748904D01*
X181435809Y-161787000D01*
X181359619Y-161863190D01*
X181321523Y-162015571D01*
X181321523Y-162282238D01*
X181359619Y-162434619D01*
X181435809Y-162510809D01*
X181512000Y-162548904D01*
X181664380Y-162548904D01*
X180559619Y-162548904D02*
X181016761Y-162548904D01*
X180788190Y-162548904D02*
X180788190Y-161748904D01*
X180864380Y-161863190D01*
X180940571Y-161939380D01*
X181016761Y-161977476D01*
X379994047Y-181598904D02*
X379994047Y-180798904D01*
X379803571Y-180798904D01*
X379689285Y-180837000D01*
X379613095Y-180913190D01*
X379575000Y-180989380D01*
X379536904Y-181141761D01*
X379536904Y-181256047D01*
X379575000Y-181408428D01*
X379613095Y-181484619D01*
X379689285Y-181560809D01*
X379803571Y-181598904D01*
X379994047Y-181598904D01*
X379384523Y-181675095D02*
X378775000Y-181675095D01*
X378051190Y-181675095D02*
X378127380Y-181637000D01*
X378203571Y-181560809D01*
X378317857Y-181446523D01*
X378394047Y-181408428D01*
X378470238Y-181408428D01*
X378432142Y-181598904D02*
X378508333Y-181560809D01*
X378584523Y-181484619D01*
X378622619Y-181332238D01*
X378622619Y-181065571D01*
X378584523Y-180913190D01*
X378508333Y-180837000D01*
X378432142Y-180798904D01*
X378279761Y-180798904D01*
X378203571Y-180837000D01*
X378127380Y-180913190D01*
X378089285Y-181065571D01*
X378089285Y-181332238D01*
X378127380Y-181484619D01*
X378203571Y-181560809D01*
X378279761Y-181598904D01*
X378432142Y-181598904D01*
X377746428Y-180798904D02*
X377746428Y-181446523D01*
X377708333Y-181522714D01*
X377670238Y-181560809D01*
X377594047Y-181598904D01*
X377441666Y-181598904D01*
X377365476Y-181560809D01*
X377327380Y-181522714D01*
X377289285Y-181446523D01*
X377289285Y-180798904D01*
X376755952Y-180798904D02*
X376603571Y-180798904D01*
X376527380Y-180837000D01*
X376451190Y-180913190D01*
X376413095Y-181065571D01*
X376413095Y-181332238D01*
X376451190Y-181484619D01*
X376527380Y-181560809D01*
X376603571Y-181598904D01*
X376755952Y-181598904D01*
X376832142Y-181560809D01*
X376908333Y-181484619D01*
X376946428Y-181332238D01*
X376946428Y-181065571D01*
X376908333Y-180913190D01*
X376832142Y-180837000D01*
X376755952Y-180798904D01*
X376184523Y-180798904D02*
X375727380Y-180798904D01*
X375955952Y-181598904D02*
X375955952Y-180798904D01*
X375460714Y-181179857D02*
X375194047Y-181179857D01*
X375079761Y-181598904D02*
X375460714Y-181598904D01*
X375460714Y-180798904D01*
X375079761Y-180798904D01*
X374317857Y-181598904D02*
X374775000Y-181598904D01*
X374546428Y-181598904D02*
X374546428Y-180798904D01*
X374622619Y-180913190D01*
X374698809Y-180989380D01*
X374775000Y-181027476D01*
X240357238Y-162548904D02*
X240357238Y-161748904D01*
X240166761Y-161748904D01*
X240052476Y-161787000D01*
X239976285Y-161863190D01*
X239938190Y-161939380D01*
X239900095Y-162091761D01*
X239900095Y-162206047D01*
X239938190Y-162358428D01*
X239976285Y-162434619D01*
X240052476Y-162510809D01*
X240166761Y-162548904D01*
X240357238Y-162548904D01*
X239747714Y-162625095D02*
X239138190Y-162625095D01*
X238490571Y-162548904D02*
X238757238Y-162167952D01*
X238947714Y-162548904D02*
X238947714Y-161748904D01*
X238642952Y-161748904D01*
X238566761Y-161787000D01*
X238528666Y-161825095D01*
X238490571Y-161901285D01*
X238490571Y-162015571D01*
X238528666Y-162091761D01*
X238566761Y-162129857D01*
X238642952Y-162167952D01*
X238947714Y-162167952D01*
X237728666Y-162548904D02*
X238185809Y-162548904D01*
X237957238Y-162548904D02*
X237957238Y-161748904D01*
X238033428Y-161863190D01*
X238109619Y-161939380D01*
X238185809Y-161977476D01*
X207001190Y-181598904D02*
X207001190Y-180798904D01*
X206810714Y-180798904D01*
X206696428Y-180837000D01*
X206620238Y-180913190D01*
X206582142Y-180989380D01*
X206544047Y-181141761D01*
X206544047Y-181256047D01*
X206582142Y-181408428D01*
X206620238Y-181484619D01*
X206696428Y-181560809D01*
X206810714Y-181598904D01*
X207001190Y-181598904D01*
X206391666Y-181675095D02*
X205782142Y-181675095D01*
X205629761Y-181560809D02*
X205515476Y-181598904D01*
X205325000Y-181598904D01*
X205248809Y-181560809D01*
X205210714Y-181522714D01*
X205172619Y-181446523D01*
X205172619Y-181370333D01*
X205210714Y-181294142D01*
X205248809Y-181256047D01*
X205325000Y-181217952D01*
X205477380Y-181179857D01*
X205553571Y-181141761D01*
X205591666Y-181103666D01*
X205629761Y-181027476D01*
X205629761Y-180951285D01*
X205591666Y-180875095D01*
X205553571Y-180837000D01*
X205477380Y-180798904D01*
X205286904Y-180798904D01*
X205172619Y-180837000D01*
X204410714Y-181598904D02*
X204867857Y-181598904D01*
X204639285Y-181598904D02*
X204639285Y-180798904D01*
X204715476Y-180913190D01*
X204791666Y-180989380D01*
X204867857Y-181027476D01*
X360810714Y-181598904D02*
X360810714Y-180798904D01*
X360620238Y-180798904D01*
X360505952Y-180837000D01*
X360429761Y-180913190D01*
X360391666Y-180989380D01*
X360353571Y-181141761D01*
X360353571Y-181256047D01*
X360391666Y-181408428D01*
X360429761Y-181484619D01*
X360505952Y-181560809D01*
X360620238Y-181598904D01*
X360810714Y-181598904D01*
X360201190Y-181675095D02*
X359591666Y-181675095D01*
X359439285Y-181560809D02*
X359325000Y-181598904D01*
X359134523Y-181598904D01*
X359058333Y-181560809D01*
X359020238Y-181522714D01*
X358982142Y-181446523D01*
X358982142Y-181370333D01*
X359020238Y-181294142D01*
X359058333Y-181256047D01*
X359134523Y-181217952D01*
X359286904Y-181179857D01*
X359363095Y-181141761D01*
X359401190Y-181103666D01*
X359439285Y-181027476D01*
X359439285Y-180951285D01*
X359401190Y-180875095D01*
X359363095Y-180837000D01*
X359286904Y-180798904D01*
X359096428Y-180798904D01*
X358982142Y-180837000D01*
X358639285Y-181179857D02*
X358372619Y-181179857D01*
X358258333Y-181598904D02*
X358639285Y-181598904D01*
X358639285Y-180798904D01*
X358258333Y-180798904D01*
X357915476Y-181598904D02*
X357915476Y-180798904D01*
X357648809Y-181370333D01*
X357382142Y-180798904D01*
X357382142Y-181598904D01*
X357001190Y-181598904D02*
X357001190Y-180798904D01*
X356163095Y-181522714D02*
X356201190Y-181560809D01*
X356315476Y-181598904D01*
X356391666Y-181598904D01*
X356505952Y-181560809D01*
X356582142Y-181484619D01*
X356620238Y-181408428D01*
X356658333Y-181256047D01*
X356658333Y-181141761D01*
X356620238Y-180989380D01*
X356582142Y-180913190D01*
X356505952Y-180837000D01*
X356391666Y-180798904D01*
X356315476Y-180798904D01*
X356201190Y-180837000D01*
X356163095Y-180875095D01*
X355401190Y-181598904D02*
X355858333Y-181598904D01*
X355629761Y-181598904D02*
X355629761Y-180798904D01*
X355705952Y-180913190D01*
X355782142Y-180989380D01*
X355858333Y-181027476D01*
X406233333Y-200648904D02*
X406233333Y-199848904D01*
X406042857Y-199848904D01*
X405928571Y-199887000D01*
X405852380Y-199963190D01*
X405814285Y-200039380D01*
X405776190Y-200191761D01*
X405776190Y-200306047D01*
X405814285Y-200458428D01*
X405852380Y-200534619D01*
X405928571Y-200610809D01*
X406042857Y-200648904D01*
X406233333Y-200648904D01*
X405623809Y-200725095D02*
X405014285Y-200725095D01*
X404861904Y-200610809D02*
X404747619Y-200648904D01*
X404557142Y-200648904D01*
X404480952Y-200610809D01*
X404442857Y-200572714D01*
X404404761Y-200496523D01*
X404404761Y-200420333D01*
X404442857Y-200344142D01*
X404480952Y-200306047D01*
X404557142Y-200267952D01*
X404709523Y-200229857D01*
X404785714Y-200191761D01*
X404823809Y-200153666D01*
X404861904Y-200077476D01*
X404861904Y-200001285D01*
X404823809Y-199925095D01*
X404785714Y-199887000D01*
X404709523Y-199848904D01*
X404519047Y-199848904D01*
X404404761Y-199887000D01*
X404061904Y-200648904D02*
X404061904Y-199848904D01*
X404061904Y-200229857D02*
X403604761Y-200229857D01*
X403604761Y-200648904D02*
X403604761Y-199848904D01*
X403223809Y-200648904D02*
X403223809Y-199848904D01*
X402576190Y-200229857D02*
X402842857Y-200229857D01*
X402842857Y-200648904D02*
X402842857Y-199848904D01*
X402461904Y-199848904D01*
X402271428Y-199848904D02*
X401814285Y-199848904D01*
X402042857Y-200648904D02*
X402042857Y-199848904D01*
X401128571Y-200648904D02*
X401585714Y-200648904D01*
X401357142Y-200648904D02*
X401357142Y-199848904D01*
X401433333Y-199963190D01*
X401509523Y-200039380D01*
X401585714Y-200077476D01*
X167777333Y-200648904D02*
X167777333Y-199848904D01*
X167586857Y-199848904D01*
X167472571Y-199887000D01*
X167396380Y-199963190D01*
X167358285Y-200039380D01*
X167320190Y-200191761D01*
X167320190Y-200306047D01*
X167358285Y-200458428D01*
X167396380Y-200534619D01*
X167472571Y-200610809D01*
X167586857Y-200648904D01*
X167777333Y-200648904D01*
X167167809Y-200725095D02*
X166558285Y-200725095D01*
X166405904Y-200610809D02*
X166291619Y-200648904D01*
X166101142Y-200648904D01*
X166024952Y-200610809D01*
X165986857Y-200572714D01*
X165948761Y-200496523D01*
X165948761Y-200420333D01*
X165986857Y-200344142D01*
X166024952Y-200306047D01*
X166101142Y-200267952D01*
X166253523Y-200229857D01*
X166329714Y-200191761D01*
X166367809Y-200153666D01*
X166405904Y-200077476D01*
X166405904Y-200001285D01*
X166367809Y-199925095D01*
X166329714Y-199887000D01*
X166253523Y-199848904D01*
X166063047Y-199848904D01*
X165948761Y-199887000D01*
X165605904Y-200648904D02*
X165605904Y-199848904D01*
X165605904Y-200229857D02*
X165148761Y-200229857D01*
X165148761Y-200648904D02*
X165148761Y-199848904D01*
X164767809Y-200648904D02*
X164767809Y-199848904D01*
X164120190Y-200229857D02*
X164386857Y-200229857D01*
X164386857Y-200648904D02*
X164386857Y-199848904D01*
X164005904Y-199848904D01*
X163815428Y-199848904D02*
X163358285Y-199848904D01*
X163586857Y-200648904D02*
X163586857Y-199848904D01*
X163129714Y-199925095D02*
X163091619Y-199887000D01*
X163015428Y-199848904D01*
X162824952Y-199848904D01*
X162748761Y-199887000D01*
X162710666Y-199925095D01*
X162672571Y-200001285D01*
X162672571Y-200077476D01*
X162710666Y-200191761D01*
X163167809Y-200648904D01*
X162672571Y-200648904D01*
X370392857Y-200648904D02*
X370392857Y-199848904D01*
X370202380Y-199848904D01*
X370088095Y-199887000D01*
X370011904Y-199963190D01*
X369973809Y-200039380D01*
X369935714Y-200191761D01*
X369935714Y-200306047D01*
X369973809Y-200458428D01*
X370011904Y-200534619D01*
X370088095Y-200610809D01*
X370202380Y-200648904D01*
X370392857Y-200648904D01*
X369783333Y-200725095D02*
X369173809Y-200725095D01*
X369021428Y-200610809D02*
X368907142Y-200648904D01*
X368716666Y-200648904D01*
X368640476Y-200610809D01*
X368602380Y-200572714D01*
X368564285Y-200496523D01*
X368564285Y-200420333D01*
X368602380Y-200344142D01*
X368640476Y-200306047D01*
X368716666Y-200267952D01*
X368869047Y-200229857D01*
X368945238Y-200191761D01*
X368983333Y-200153666D01*
X369021428Y-200077476D01*
X369021428Y-200001285D01*
X368983333Y-199925095D01*
X368945238Y-199887000D01*
X368869047Y-199848904D01*
X368678571Y-199848904D01*
X368564285Y-199887000D01*
X367840476Y-200648904D02*
X368221428Y-200648904D01*
X368221428Y-199848904D01*
X367611904Y-200420333D02*
X367230952Y-200420333D01*
X367688095Y-200648904D02*
X367421428Y-199848904D01*
X367154761Y-200648904D01*
X366926190Y-200610809D02*
X366811904Y-200648904D01*
X366621428Y-200648904D01*
X366545238Y-200610809D01*
X366507142Y-200572714D01*
X366469047Y-200496523D01*
X366469047Y-200420333D01*
X366507142Y-200344142D01*
X366545238Y-200306047D01*
X366621428Y-200267952D01*
X366773809Y-200229857D01*
X366850000Y-200191761D01*
X366888095Y-200153666D01*
X366926190Y-200077476D01*
X366926190Y-200001285D01*
X366888095Y-199925095D01*
X366850000Y-199887000D01*
X366773809Y-199848904D01*
X366583333Y-199848904D01*
X366469047Y-199887000D01*
X366126190Y-200648904D02*
X366126190Y-199848904D01*
X366126190Y-200229857D02*
X365669047Y-200229857D01*
X365669047Y-200648904D02*
X365669047Y-199848904D01*
X364869047Y-200648904D02*
X365326190Y-200648904D01*
X365097619Y-200648904D02*
X365097619Y-199848904D01*
X365173809Y-199963190D01*
X365250000Y-200039380D01*
X365326190Y-200077476D01*
X310899952Y-219698904D02*
X310899952Y-218898904D01*
X310709476Y-218898904D01*
X310595190Y-218937000D01*
X310519000Y-219013190D01*
X310480904Y-219089380D01*
X310442809Y-219241761D01*
X310442809Y-219356047D01*
X310480904Y-219508428D01*
X310519000Y-219584619D01*
X310595190Y-219660809D01*
X310709476Y-219698904D01*
X310899952Y-219698904D01*
X310290428Y-219775095D02*
X309680904Y-219775095D01*
X309528523Y-219660809D02*
X309414238Y-219698904D01*
X309223761Y-219698904D01*
X309147571Y-219660809D01*
X309109476Y-219622714D01*
X309071380Y-219546523D01*
X309071380Y-219470333D01*
X309109476Y-219394142D01*
X309147571Y-219356047D01*
X309223761Y-219317952D01*
X309376142Y-219279857D01*
X309452333Y-219241761D01*
X309490428Y-219203666D01*
X309528523Y-219127476D01*
X309528523Y-219051285D01*
X309490428Y-218975095D01*
X309452333Y-218937000D01*
X309376142Y-218898904D01*
X309185666Y-218898904D01*
X309071380Y-218937000D01*
X308728523Y-219698904D02*
X308728523Y-218898904D01*
X308423761Y-218898904D01*
X308347571Y-218937000D01*
X308309476Y-218975095D01*
X308271380Y-219051285D01*
X308271380Y-219165571D01*
X308309476Y-219241761D01*
X308347571Y-219279857D01*
X308423761Y-219317952D01*
X308728523Y-219317952D01*
X307966619Y-219470333D02*
X307585666Y-219470333D01*
X308042809Y-219698904D02*
X307776142Y-218898904D01*
X307509476Y-219698904D01*
X306785666Y-219622714D02*
X306823761Y-219660809D01*
X306938047Y-219698904D01*
X307014238Y-219698904D01*
X307128523Y-219660809D01*
X307204714Y-219584619D01*
X307242809Y-219508428D01*
X307280904Y-219356047D01*
X307280904Y-219241761D01*
X307242809Y-219089380D01*
X307204714Y-219013190D01*
X307128523Y-218937000D01*
X307014238Y-218898904D01*
X306938047Y-218898904D01*
X306823761Y-218937000D01*
X306785666Y-218975095D01*
X306442809Y-219279857D02*
X306176142Y-219279857D01*
X306061857Y-219698904D02*
X306442809Y-219698904D01*
X306442809Y-218898904D01*
X306061857Y-218898904D01*
X305299952Y-219698904D02*
X305757095Y-219698904D01*
X305528523Y-219698904D02*
X305528523Y-218898904D01*
X305604714Y-219013190D01*
X305680904Y-219089380D01*
X305757095Y-219127476D01*
X259312000Y-162548904D02*
X259312000Y-161748904D01*
X259121523Y-161748904D01*
X259007238Y-161787000D01*
X258931047Y-161863190D01*
X258892952Y-161939380D01*
X258854857Y-162091761D01*
X258854857Y-162206047D01*
X258892952Y-162358428D01*
X258931047Y-162434619D01*
X259007238Y-162510809D01*
X259121523Y-162548904D01*
X259312000Y-162548904D01*
X258702476Y-162625095D02*
X258092952Y-162625095D01*
X258016761Y-161748904D02*
X257559619Y-161748904D01*
X257788190Y-162548904D02*
X257788190Y-161748904D01*
X256873904Y-162548904D02*
X257331047Y-162548904D01*
X257102476Y-162548904D02*
X257102476Y-161748904D01*
X257178666Y-161863190D01*
X257254857Y-161939380D01*
X257331047Y-161977476D01*
X145936904Y-164819142D02*
X145136904Y-164819142D01*
X145136904Y-165009619D01*
X145175000Y-165123904D01*
X145251190Y-165200095D01*
X145327380Y-165238190D01*
X145479761Y-165276285D01*
X145594047Y-165276285D01*
X145746428Y-165238190D01*
X145822619Y-165200095D01*
X145898809Y-165123904D01*
X145936904Y-165009619D01*
X145936904Y-164819142D01*
X146013095Y-165428666D02*
X146013095Y-166038190D01*
X145136904Y-166114380D02*
X145136904Y-166571523D01*
X145936904Y-166342952D02*
X145136904Y-166342952D01*
X145708333Y-166800095D02*
X145708333Y-167181047D01*
X145936904Y-166723904D02*
X145136904Y-166990571D01*
X145936904Y-167257238D01*
X145517857Y-167790571D02*
X145555952Y-167904857D01*
X145594047Y-167942952D01*
X145670238Y-167981047D01*
X145784523Y-167981047D01*
X145860714Y-167942952D01*
X145898809Y-167904857D01*
X145936904Y-167828666D01*
X145936904Y-167523904D01*
X145136904Y-167523904D01*
X145136904Y-167790571D01*
X145175000Y-167866761D01*
X145213095Y-167904857D01*
X145289285Y-167942952D01*
X145365476Y-167942952D01*
X145441666Y-167904857D01*
X145479761Y-167866761D01*
X145517857Y-167790571D01*
X145517857Y-167523904D01*
X145936904Y-168742952D02*
X145936904Y-168285809D01*
X145936904Y-168514380D02*
X145136904Y-168514380D01*
X145251190Y-168438190D01*
X145327380Y-168362000D01*
X145365476Y-168285809D01*
X297526285Y-162548904D02*
X297526285Y-161748904D01*
X297335809Y-161748904D01*
X297221523Y-161787000D01*
X297145333Y-161863190D01*
X297107238Y-161939380D01*
X297069142Y-162091761D01*
X297069142Y-162206047D01*
X297107238Y-162358428D01*
X297145333Y-162434619D01*
X297221523Y-162510809D01*
X297335809Y-162548904D01*
X297526285Y-162548904D01*
X296916761Y-162625095D02*
X296307238Y-162625095D01*
X296116761Y-161748904D02*
X296116761Y-162396523D01*
X296078666Y-162472714D01*
X296040571Y-162510809D01*
X295964380Y-162548904D01*
X295812000Y-162548904D01*
X295735809Y-162510809D01*
X295697714Y-162472714D01*
X295659619Y-162396523D01*
X295659619Y-161748904D01*
X294859619Y-162548904D02*
X295316761Y-162548904D01*
X295088190Y-162548904D02*
X295088190Y-161748904D01*
X295164380Y-161863190D01*
X295240571Y-161939380D01*
X295316761Y-161977476D01*
X254588095Y-200648904D02*
X254588095Y-199848904D01*
X254397619Y-199848904D01*
X254283333Y-199887000D01*
X254207142Y-199963190D01*
X254169047Y-200039380D01*
X254130952Y-200191761D01*
X254130952Y-200306047D01*
X254169047Y-200458428D01*
X254207142Y-200534619D01*
X254283333Y-200610809D01*
X254397619Y-200648904D01*
X254588095Y-200648904D01*
X253978571Y-200725095D02*
X253369047Y-200725095D01*
X253292857Y-199848904D02*
X253026190Y-200648904D01*
X252759523Y-199848904D01*
X252073809Y-200648904D02*
X252530952Y-200648904D01*
X252302380Y-200648904D02*
X252302380Y-199848904D01*
X252378571Y-199963190D01*
X252454761Y-200039380D01*
X252530952Y-200077476D01*
X202314380Y-162548904D02*
X202314380Y-161748904D01*
X202123904Y-161748904D01*
X202009619Y-161787000D01*
X201933428Y-161863190D01*
X201895333Y-161939380D01*
X201857238Y-162091761D01*
X201857238Y-162206047D01*
X201895333Y-162358428D01*
X201933428Y-162434619D01*
X202009619Y-162510809D01*
X202123904Y-162548904D01*
X202314380Y-162548904D01*
X201704857Y-162625095D02*
X201095333Y-162625095D01*
X200981047Y-161748904D02*
X200790571Y-162548904D01*
X200638190Y-161977476D01*
X200485809Y-162548904D01*
X200295333Y-161748904D01*
X199571523Y-162548904D02*
X200028666Y-162548904D01*
X199800095Y-162548904D02*
X199800095Y-161748904D01*
X199876285Y-161863190D01*
X199952476Y-161939380D01*
X200028666Y-161977476D01*
X371992904Y-219698904D02*
X371992904Y-218898904D01*
X371802428Y-218898904D01*
X371688142Y-218937000D01*
X371611952Y-219013190D01*
X371573857Y-219089380D01*
X371535761Y-219241761D01*
X371535761Y-219356047D01*
X371573857Y-219508428D01*
X371611952Y-219584619D01*
X371688142Y-219660809D01*
X371802428Y-219698904D01*
X371992904Y-219698904D01*
X371383380Y-219775095D02*
X370773857Y-219775095D01*
X370659571Y-218898904D02*
X370469095Y-219698904D01*
X370316714Y-219127476D01*
X370164333Y-219698904D01*
X369973857Y-218898904D01*
X369669095Y-219698904D02*
X369669095Y-218898904D01*
X369288142Y-219698904D02*
X369288142Y-218898904D01*
X368831000Y-219698904D01*
X368831000Y-218898904D01*
X368031000Y-219698904D02*
X368488142Y-219698904D01*
X368259571Y-219698904D02*
X368259571Y-218898904D01*
X368335761Y-219013190D01*
X368411952Y-219089380D01*
X368488142Y-219127476D01*
X181492904Y-219698904D02*
X181492904Y-218898904D01*
X181302428Y-218898904D01*
X181188142Y-218937000D01*
X181111952Y-219013190D01*
X181073857Y-219089380D01*
X181035761Y-219241761D01*
X181035761Y-219356047D01*
X181073857Y-219508428D01*
X181111952Y-219584619D01*
X181188142Y-219660809D01*
X181302428Y-219698904D01*
X181492904Y-219698904D01*
X180883380Y-219775095D02*
X180273857Y-219775095D01*
X180159571Y-218898904D02*
X179969095Y-219698904D01*
X179816714Y-219127476D01*
X179664333Y-219698904D01*
X179473857Y-218898904D01*
X179169095Y-219698904D02*
X179169095Y-218898904D01*
X178788142Y-219698904D02*
X178788142Y-218898904D01*
X178331000Y-219698904D01*
X178331000Y-218898904D01*
X177988142Y-218975095D02*
X177950047Y-218937000D01*
X177873857Y-218898904D01*
X177683380Y-218898904D01*
X177607190Y-218937000D01*
X177569095Y-218975095D01*
X177531000Y-219051285D01*
X177531000Y-219127476D01*
X177569095Y-219241761D01*
X178026238Y-219698904D01*
X177531000Y-219698904D01*
X216526190Y-200648904D02*
X216526190Y-199848904D01*
X216335714Y-199848904D01*
X216221428Y-199887000D01*
X216145238Y-199963190D01*
X216107142Y-200039380D01*
X216069047Y-200191761D01*
X216069047Y-200306047D01*
X216107142Y-200458428D01*
X216145238Y-200534619D01*
X216221428Y-200610809D01*
X216335714Y-200648904D01*
X216526190Y-200648904D01*
X215916666Y-200725095D02*
X215307142Y-200725095D01*
X215192857Y-199848904D02*
X214659523Y-200648904D01*
X214659523Y-199848904D02*
X215192857Y-200648904D01*
X213935714Y-200648904D02*
X214392857Y-200648904D01*
X214164285Y-200648904D02*
X214164285Y-199848904D01*
X214240476Y-199963190D01*
X214316666Y-200039380D01*
X214392857Y-200077476D01*
X278400095Y-162548904D02*
X278400095Y-161748904D01*
X278209619Y-161748904D01*
X278095333Y-161787000D01*
X278019142Y-161863190D01*
X277981047Y-161939380D01*
X277942952Y-162091761D01*
X277942952Y-162206047D01*
X277981047Y-162358428D01*
X278019142Y-162434619D01*
X278095333Y-162510809D01*
X278209619Y-162548904D01*
X278400095Y-162548904D01*
X277790571Y-162625095D02*
X277181047Y-162625095D01*
X276838190Y-162167952D02*
X276838190Y-162548904D01*
X277104857Y-161748904D02*
X276838190Y-162167952D01*
X276571523Y-161748904D01*
X275885809Y-162548904D02*
X276342952Y-162548904D01*
X276114380Y-162548904D02*
X276114380Y-161748904D01*
X276190571Y-161863190D01*
X276266761Y-161939380D01*
X276342952Y-161977476D01*
X197476190Y-200648904D02*
X197476190Y-199848904D01*
X197285714Y-199848904D01*
X197171428Y-199887000D01*
X197095238Y-199963190D01*
X197057142Y-200039380D01*
X197019047Y-200191761D01*
X197019047Y-200306047D01*
X197057142Y-200458428D01*
X197095238Y-200534619D01*
X197171428Y-200610809D01*
X197285714Y-200648904D01*
X197476190Y-200648904D01*
X196866666Y-200725095D02*
X196257142Y-200725095D01*
X196142857Y-199848904D02*
X195609523Y-199848904D01*
X196142857Y-200648904D01*
X195609523Y-200648904D01*
X194885714Y-200648904D02*
X195342857Y-200648904D01*
X195114285Y-200648904D02*
X195114285Y-199848904D01*
X195190476Y-199963190D01*
X195266666Y-200039380D01*
X195342857Y-200077476D01*
X168410666Y-202266380D02*
X168410666Y-201266380D01*
X167839238Y-202266380D02*
X168267809Y-201694952D01*
X167839238Y-201266380D02*
X168410666Y-201837809D01*
X167648761Y-202361619D02*
X166886857Y-202361619D01*
X166696380Y-202218761D02*
X166553523Y-202266380D01*
X166315428Y-202266380D01*
X166220190Y-202218761D01*
X166172571Y-202171142D01*
X166124952Y-202075904D01*
X166124952Y-201980666D01*
X166172571Y-201885428D01*
X166220190Y-201837809D01*
X166315428Y-201790190D01*
X166505904Y-201742571D01*
X166601142Y-201694952D01*
X166648761Y-201647333D01*
X166696380Y-201552095D01*
X166696380Y-201456857D01*
X166648761Y-201361619D01*
X166601142Y-201314000D01*
X166505904Y-201266380D01*
X166267809Y-201266380D01*
X166124952Y-201314000D01*
X165696380Y-202266380D02*
X165696380Y-201266380D01*
X165696380Y-201742571D02*
X165124952Y-201742571D01*
X165124952Y-202266380D02*
X165124952Y-201266380D01*
X164648761Y-202266380D02*
X164648761Y-201266380D01*
X163839238Y-201742571D02*
X164172571Y-201742571D01*
X164172571Y-202266380D02*
X164172571Y-201266380D01*
X163696380Y-201266380D01*
X163458285Y-201266380D02*
X162886857Y-201266380D01*
X163172571Y-202266380D02*
X163172571Y-201266380D01*
X162601142Y-201361619D02*
X162553523Y-201314000D01*
X162458285Y-201266380D01*
X162220190Y-201266380D01*
X162124952Y-201314000D01*
X162077333Y-201361619D01*
X162029714Y-201456857D01*
X162029714Y-201552095D01*
X162077333Y-201694952D01*
X162648761Y-202266380D01*
X162029714Y-202266380D01*
X415916761Y-145116380D02*
X415916761Y-144116380D01*
X415345333Y-145116380D02*
X415773904Y-144544952D01*
X415345333Y-144116380D02*
X415916761Y-144687809D01*
X415154857Y-145211619D02*
X414392952Y-145211619D01*
X413821523Y-144592571D02*
X413678666Y-144640190D01*
X413631047Y-144687809D01*
X413583428Y-144783047D01*
X413583428Y-144925904D01*
X413631047Y-145021142D01*
X413678666Y-145068761D01*
X413773904Y-145116380D01*
X414154857Y-145116380D01*
X414154857Y-144116380D01*
X413821523Y-144116380D01*
X413726285Y-144164000D01*
X413678666Y-144211619D01*
X413631047Y-144306857D01*
X413631047Y-144402095D01*
X413678666Y-144497333D01*
X413726285Y-144544952D01*
X413821523Y-144592571D01*
X414154857Y-144592571D01*
X413202476Y-144830666D02*
X412726285Y-144830666D01*
X413297714Y-145116380D02*
X412964380Y-144116380D01*
X412631047Y-145116380D01*
X411726285Y-145021142D02*
X411773904Y-145068761D01*
X411916761Y-145116380D01*
X412012000Y-145116380D01*
X412154857Y-145068761D01*
X412250095Y-144973523D01*
X412297714Y-144878285D01*
X412345333Y-144687809D01*
X412345333Y-144544952D01*
X412297714Y-144354476D01*
X412250095Y-144259238D01*
X412154857Y-144164000D01*
X412012000Y-144116380D01*
X411916761Y-144116380D01*
X411773904Y-144164000D01*
X411726285Y-144211619D01*
X411297714Y-145116380D02*
X411297714Y-144116380D01*
X410726285Y-145116380D02*
X411154857Y-144544952D01*
X410726285Y-144116380D02*
X411297714Y-144687809D01*
X410345333Y-145068761D02*
X410202476Y-145116380D01*
X409964380Y-145116380D01*
X409869142Y-145068761D01*
X409821523Y-145021142D01*
X409773904Y-144925904D01*
X409773904Y-144830666D01*
X409821523Y-144735428D01*
X409869142Y-144687809D01*
X409964380Y-144640190D01*
X410154857Y-144592571D01*
X410250095Y-144544952D01*
X410297714Y-144497333D01*
X410345333Y-144402095D01*
X410345333Y-144306857D01*
X410297714Y-144211619D01*
X410250095Y-144164000D01*
X410154857Y-144116380D01*
X409916761Y-144116380D01*
X409773904Y-144164000D01*
X409345333Y-145116380D02*
X409345333Y-144116380D01*
X408964380Y-144116380D01*
X408869142Y-144164000D01*
X408821523Y-144211619D01*
X408773904Y-144306857D01*
X408773904Y-144449714D01*
X408821523Y-144544952D01*
X408869142Y-144592571D01*
X408964380Y-144640190D01*
X409345333Y-144640190D01*
X408392952Y-144830666D02*
X407916761Y-144830666D01*
X408488190Y-145116380D02*
X408154857Y-144116380D01*
X407821523Y-145116380D01*
X406916761Y-145021142D02*
X406964380Y-145068761D01*
X407107238Y-145116380D01*
X407202476Y-145116380D01*
X407345333Y-145068761D01*
X407440571Y-144973523D01*
X407488190Y-144878285D01*
X407535809Y-144687809D01*
X407535809Y-144544952D01*
X407488190Y-144354476D01*
X407440571Y-144259238D01*
X407345333Y-144164000D01*
X407202476Y-144116380D01*
X407107238Y-144116380D01*
X406964380Y-144164000D01*
X406916761Y-144211619D01*
X406488190Y-144592571D02*
X406154857Y-144592571D01*
X406012000Y-145116380D02*
X406488190Y-145116380D01*
X406488190Y-144116380D01*
X406012000Y-144116380D01*
X405631047Y-144211619D02*
X405583428Y-144164000D01*
X405488190Y-144116380D01*
X405250095Y-144116380D01*
X405154857Y-144164000D01*
X405107238Y-144211619D01*
X405059619Y-144306857D01*
X405059619Y-144402095D01*
X405107238Y-144544952D01*
X405678666Y-145116380D01*
X405059619Y-145116380D01*
X411559571Y-183216380D02*
X411559571Y-182216380D01*
X410988142Y-183216380D02*
X411416714Y-182644952D01*
X410988142Y-182216380D02*
X411559571Y-182787809D01*
X410797666Y-183311619D02*
X410035761Y-183311619D01*
X409797666Y-182692571D02*
X409464333Y-182692571D01*
X409321476Y-183216380D02*
X409797666Y-183216380D01*
X409797666Y-182216380D01*
X409321476Y-182216380D01*
X408892904Y-183216380D02*
X408892904Y-182216380D01*
X408321476Y-183216380D01*
X408321476Y-182216380D01*
X407988142Y-182216380D02*
X407416714Y-182216380D01*
X407702428Y-183216380D02*
X407702428Y-182216380D01*
X407083380Y-182692571D02*
X406750047Y-182692571D01*
X406607190Y-183216380D02*
X407083380Y-183216380D01*
X407083380Y-182216380D01*
X406607190Y-182216380D01*
X405607190Y-183216380D02*
X405940523Y-182740190D01*
X406178619Y-183216380D02*
X406178619Y-182216380D01*
X405797666Y-182216380D01*
X405702428Y-182264000D01*
X405654809Y-182311619D01*
X405607190Y-182406857D01*
X405607190Y-182549714D01*
X405654809Y-182644952D01*
X405702428Y-182692571D01*
X405797666Y-182740190D01*
X406178619Y-182740190D01*
X404654809Y-183216380D02*
X405226238Y-183216380D01*
X404940523Y-183216380D02*
X404940523Y-182216380D01*
X405035761Y-182359238D01*
X405131000Y-182454476D01*
X405226238Y-182502095D01*
X406535666Y-202266380D02*
X406535666Y-201266380D01*
X405964238Y-202266380D02*
X406392809Y-201694952D01*
X405964238Y-201266380D02*
X406535666Y-201837809D01*
X405773761Y-202361619D02*
X405011857Y-202361619D01*
X404821380Y-202218761D02*
X404678523Y-202266380D01*
X404440428Y-202266380D01*
X404345190Y-202218761D01*
X404297571Y-202171142D01*
X404249952Y-202075904D01*
X404249952Y-201980666D01*
X404297571Y-201885428D01*
X404345190Y-201837809D01*
X404440428Y-201790190D01*
X404630904Y-201742571D01*
X404726142Y-201694952D01*
X404773761Y-201647333D01*
X404821380Y-201552095D01*
X404821380Y-201456857D01*
X404773761Y-201361619D01*
X404726142Y-201314000D01*
X404630904Y-201266380D01*
X404392809Y-201266380D01*
X404249952Y-201314000D01*
X403821380Y-202266380D02*
X403821380Y-201266380D01*
X403821380Y-201742571D02*
X403249952Y-201742571D01*
X403249952Y-202266380D02*
X403249952Y-201266380D01*
X402773761Y-202266380D02*
X402773761Y-201266380D01*
X401964238Y-201742571D02*
X402297571Y-201742571D01*
X402297571Y-202266380D02*
X402297571Y-201266380D01*
X401821380Y-201266380D01*
X401583285Y-201266380D02*
X401011857Y-201266380D01*
X401297571Y-202266380D02*
X401297571Y-201266380D01*
X400154714Y-202266380D02*
X400726142Y-202266380D01*
X400440428Y-202266380D02*
X400440428Y-201266380D01*
X400535666Y-201409238D01*
X400630904Y-201504476D01*
X400726142Y-201552095D01*
X242085761Y-221316380D02*
X242085761Y-220316380D01*
X241514333Y-221316380D02*
X241942904Y-220744952D01*
X241514333Y-220316380D02*
X242085761Y-220887809D01*
X241323857Y-221411619D02*
X240561952Y-221411619D01*
X239990523Y-220792571D02*
X239847666Y-220840190D01*
X239800047Y-220887809D01*
X239752428Y-220983047D01*
X239752428Y-221125904D01*
X239800047Y-221221142D01*
X239847666Y-221268761D01*
X239942904Y-221316380D01*
X240323857Y-221316380D01*
X240323857Y-220316380D01*
X239990523Y-220316380D01*
X239895285Y-220364000D01*
X239847666Y-220411619D01*
X239800047Y-220506857D01*
X239800047Y-220602095D01*
X239847666Y-220697333D01*
X239895285Y-220744952D01*
X239990523Y-220792571D01*
X240323857Y-220792571D01*
X239371476Y-221030666D02*
X238895285Y-221030666D01*
X239466714Y-221316380D02*
X239133380Y-220316380D01*
X238800047Y-221316380D01*
X237895285Y-221221142D02*
X237942904Y-221268761D01*
X238085761Y-221316380D01*
X238181000Y-221316380D01*
X238323857Y-221268761D01*
X238419095Y-221173523D01*
X238466714Y-221078285D01*
X238514333Y-220887809D01*
X238514333Y-220744952D01*
X238466714Y-220554476D01*
X238419095Y-220459238D01*
X238323857Y-220364000D01*
X238181000Y-220316380D01*
X238085761Y-220316380D01*
X237942904Y-220364000D01*
X237895285Y-220411619D01*
X237466714Y-221316380D02*
X237466714Y-220316380D01*
X236895285Y-221316380D02*
X237323857Y-220744952D01*
X236895285Y-220316380D02*
X237466714Y-220887809D01*
X236514333Y-221268761D02*
X236371476Y-221316380D01*
X236133380Y-221316380D01*
X236038142Y-221268761D01*
X235990523Y-221221142D01*
X235942904Y-221125904D01*
X235942904Y-221030666D01*
X235990523Y-220935428D01*
X236038142Y-220887809D01*
X236133380Y-220840190D01*
X236323857Y-220792571D01*
X236419095Y-220744952D01*
X236466714Y-220697333D01*
X236514333Y-220602095D01*
X236514333Y-220506857D01*
X236466714Y-220411619D01*
X236419095Y-220364000D01*
X236323857Y-220316380D01*
X236085761Y-220316380D01*
X235942904Y-220364000D01*
X235514333Y-221316380D02*
X235514333Y-220316380D01*
X235133380Y-220316380D01*
X235038142Y-220364000D01*
X234990523Y-220411619D01*
X234942904Y-220506857D01*
X234942904Y-220649714D01*
X234990523Y-220744952D01*
X235038142Y-220792571D01*
X235133380Y-220840190D01*
X235514333Y-220840190D01*
X234561952Y-221030666D02*
X234085761Y-221030666D01*
X234657190Y-221316380D02*
X234323857Y-220316380D01*
X233990523Y-221316380D01*
X233085761Y-221221142D02*
X233133380Y-221268761D01*
X233276238Y-221316380D01*
X233371476Y-221316380D01*
X233514333Y-221268761D01*
X233609571Y-221173523D01*
X233657190Y-221078285D01*
X233704809Y-220887809D01*
X233704809Y-220744952D01*
X233657190Y-220554476D01*
X233609571Y-220459238D01*
X233514333Y-220364000D01*
X233371476Y-220316380D01*
X233276238Y-220316380D01*
X233133380Y-220364000D01*
X233085761Y-220411619D01*
X232657190Y-220792571D02*
X232323857Y-220792571D01*
X232181000Y-221316380D02*
X232657190Y-221316380D01*
X232657190Y-220316380D01*
X232181000Y-220316380D01*
X231228619Y-221316380D02*
X231800047Y-221316380D01*
X231514333Y-221316380D02*
X231514333Y-220316380D01*
X231609571Y-220459238D01*
X231704809Y-220554476D01*
X231800047Y-220602095D01*
X311595190Y-221316380D02*
X311595190Y-220316380D01*
X311023761Y-221316380D02*
X311452333Y-220744952D01*
X311023761Y-220316380D02*
X311595190Y-220887809D01*
X310833285Y-221411619D02*
X310071380Y-221411619D01*
X309880904Y-221268761D02*
X309738047Y-221316380D01*
X309499952Y-221316380D01*
X309404714Y-221268761D01*
X309357095Y-221221142D01*
X309309476Y-221125904D01*
X309309476Y-221030666D01*
X309357095Y-220935428D01*
X309404714Y-220887809D01*
X309499952Y-220840190D01*
X309690428Y-220792571D01*
X309785666Y-220744952D01*
X309833285Y-220697333D01*
X309880904Y-220602095D01*
X309880904Y-220506857D01*
X309833285Y-220411619D01*
X309785666Y-220364000D01*
X309690428Y-220316380D01*
X309452333Y-220316380D01*
X309309476Y-220364000D01*
X308880904Y-221316380D02*
X308880904Y-220316380D01*
X308499952Y-220316380D01*
X308404714Y-220364000D01*
X308357095Y-220411619D01*
X308309476Y-220506857D01*
X308309476Y-220649714D01*
X308357095Y-220744952D01*
X308404714Y-220792571D01*
X308499952Y-220840190D01*
X308880904Y-220840190D01*
X307928523Y-221030666D02*
X307452333Y-221030666D01*
X308023761Y-221316380D02*
X307690428Y-220316380D01*
X307357095Y-221316380D01*
X306452333Y-221221142D02*
X306499952Y-221268761D01*
X306642809Y-221316380D01*
X306738047Y-221316380D01*
X306880904Y-221268761D01*
X306976142Y-221173523D01*
X307023761Y-221078285D01*
X307071380Y-220887809D01*
X307071380Y-220744952D01*
X307023761Y-220554476D01*
X306976142Y-220459238D01*
X306880904Y-220364000D01*
X306738047Y-220316380D01*
X306642809Y-220316380D01*
X306499952Y-220364000D01*
X306452333Y-220411619D01*
X306023761Y-220792571D02*
X305690428Y-220792571D01*
X305547571Y-221316380D02*
X306023761Y-221316380D01*
X306023761Y-220316380D01*
X305547571Y-220316380D01*
X304595190Y-221316380D02*
X305166619Y-221316380D01*
X304880904Y-221316380D02*
X304880904Y-220316380D01*
X304976142Y-220459238D01*
X305071380Y-220554476D01*
X305166619Y-220602095D01*
X420560761Y-221316380D02*
X420560761Y-220316380D01*
X419989333Y-221316380D02*
X420417904Y-220744952D01*
X419989333Y-220316380D02*
X420560761Y-220887809D01*
X419798857Y-221411619D02*
X419036952Y-221411619D01*
X418227428Y-221221142D02*
X418275047Y-221268761D01*
X418417904Y-221316380D01*
X418513142Y-221316380D01*
X418656000Y-221268761D01*
X418751238Y-221173523D01*
X418798857Y-221078285D01*
X418846476Y-220887809D01*
X418846476Y-220744952D01*
X418798857Y-220554476D01*
X418751238Y-220459238D01*
X418656000Y-220364000D01*
X418513142Y-220316380D01*
X418417904Y-220316380D01*
X418275047Y-220364000D01*
X418227428Y-220411619D01*
X417941714Y-220316380D02*
X417370285Y-220316380D01*
X417656000Y-221316380D02*
X417656000Y-220316380D01*
X416465523Y-221316380D02*
X416798857Y-220840190D01*
X417036952Y-221316380D02*
X417036952Y-220316380D01*
X416656000Y-220316380D01*
X416560761Y-220364000D01*
X416513142Y-220411619D01*
X416465523Y-220506857D01*
X416465523Y-220649714D01*
X416513142Y-220744952D01*
X416560761Y-220792571D01*
X416656000Y-220840190D01*
X417036952Y-220840190D01*
X415560761Y-221316380D02*
X416036952Y-221316380D01*
X416036952Y-220316380D01*
X415275047Y-220411619D02*
X415227428Y-220364000D01*
X415132190Y-220316380D01*
X414894095Y-220316380D01*
X414798857Y-220364000D01*
X414751238Y-220411619D01*
X414703619Y-220506857D01*
X414703619Y-220602095D01*
X414751238Y-220744952D01*
X415322666Y-221316380D01*
X414703619Y-221316380D01*
X163504809Y-183216380D02*
X163504809Y-182216380D01*
X162933380Y-183216380D02*
X163361952Y-182644952D01*
X162933380Y-182216380D02*
X163504809Y-182787809D01*
X162742904Y-183311619D02*
X161981000Y-183311619D01*
X161171476Y-183121142D02*
X161219095Y-183168761D01*
X161361952Y-183216380D01*
X161457190Y-183216380D01*
X161600047Y-183168761D01*
X161695285Y-183073523D01*
X161742904Y-182978285D01*
X161790523Y-182787809D01*
X161790523Y-182644952D01*
X161742904Y-182454476D01*
X161695285Y-182359238D01*
X161600047Y-182264000D01*
X161457190Y-182216380D01*
X161361952Y-182216380D01*
X161219095Y-182264000D01*
X161171476Y-182311619D01*
X160790523Y-182930666D02*
X160314333Y-182930666D01*
X160885761Y-183216380D02*
X160552428Y-182216380D01*
X160219095Y-183216380D01*
X159885761Y-183216380D02*
X159885761Y-182216380D01*
X159504809Y-182216380D01*
X159409571Y-182264000D01*
X159361952Y-182311619D01*
X159314333Y-182406857D01*
X159314333Y-182549714D01*
X159361952Y-182644952D01*
X159409571Y-182692571D01*
X159504809Y-182740190D01*
X159885761Y-182740190D01*
X158933380Y-183168761D02*
X158790523Y-183216380D01*
X158552428Y-183216380D01*
X158457190Y-183168761D01*
X158409571Y-183121142D01*
X158361952Y-183025904D01*
X158361952Y-182930666D01*
X158409571Y-182835428D01*
X158457190Y-182787809D01*
X158552428Y-182740190D01*
X158742904Y-182692571D01*
X158838142Y-182644952D01*
X158885761Y-182597333D01*
X158933380Y-182502095D01*
X158933380Y-182406857D01*
X158885761Y-182311619D01*
X158838142Y-182264000D01*
X158742904Y-182216380D01*
X158504809Y-182216380D01*
X158361952Y-182264000D01*
X157409571Y-183216380D02*
X157981000Y-183216380D01*
X157695285Y-183216380D02*
X157695285Y-182216380D01*
X157790523Y-182359238D01*
X157885761Y-182454476D01*
X157981000Y-182502095D01*
X418775000Y-164166380D02*
X418775000Y-163166380D01*
X418203571Y-164166380D02*
X418632142Y-163594952D01*
X418203571Y-163166380D02*
X418775000Y-163737809D01*
X418013095Y-164261619D02*
X417251190Y-164261619D01*
X416679761Y-163642571D02*
X416536904Y-163690190D01*
X416489285Y-163737809D01*
X416441666Y-163833047D01*
X416441666Y-163975904D01*
X416489285Y-164071142D01*
X416536904Y-164118761D01*
X416632142Y-164166380D01*
X417013095Y-164166380D01*
X417013095Y-163166380D01*
X416679761Y-163166380D01*
X416584523Y-163214000D01*
X416536904Y-163261619D01*
X416489285Y-163356857D01*
X416489285Y-163452095D01*
X416536904Y-163547333D01*
X416584523Y-163594952D01*
X416679761Y-163642571D01*
X417013095Y-163642571D01*
X416060714Y-164118761D02*
X415917857Y-164166380D01*
X415679761Y-164166380D01*
X415584523Y-164118761D01*
X415536904Y-164071142D01*
X415489285Y-163975904D01*
X415489285Y-163880666D01*
X415536904Y-163785428D01*
X415584523Y-163737809D01*
X415679761Y-163690190D01*
X415870238Y-163642571D01*
X415965476Y-163594952D01*
X416013095Y-163547333D01*
X416060714Y-163452095D01*
X416060714Y-163356857D01*
X416013095Y-163261619D01*
X415965476Y-163214000D01*
X415870238Y-163166380D01*
X415632142Y-163166380D01*
X415489285Y-163214000D01*
X414584523Y-164166380D02*
X415060714Y-164166380D01*
X415060714Y-163166380D01*
X414298809Y-164118761D02*
X414155952Y-164166380D01*
X413917857Y-164166380D01*
X413822619Y-164118761D01*
X413775000Y-164071142D01*
X413727380Y-163975904D01*
X413727380Y-163880666D01*
X413775000Y-163785428D01*
X413822619Y-163737809D01*
X413917857Y-163690190D01*
X414108333Y-163642571D01*
X414203571Y-163594952D01*
X414251190Y-163547333D01*
X414298809Y-163452095D01*
X414298809Y-163356857D01*
X414251190Y-163261619D01*
X414203571Y-163214000D01*
X414108333Y-163166380D01*
X413870238Y-163166380D01*
X413727380Y-163214000D01*
X413298809Y-164166380D02*
X413298809Y-163166380D01*
X413298809Y-163642571D02*
X412727380Y-163642571D01*
X412727380Y-164166380D02*
X412727380Y-163166380D01*
X411727380Y-164166380D02*
X412298809Y-164166380D01*
X412013095Y-164166380D02*
X412013095Y-163166380D01*
X412108333Y-163309238D01*
X412203571Y-163404476D01*
X412298809Y-163452095D01*
X156838380Y-145164380D02*
X155838380Y-145164380D01*
X156838380Y-145735809D02*
X156266952Y-145307238D01*
X155838380Y-145735809D02*
X156409809Y-145164380D01*
X156933619Y-145926285D02*
X156933619Y-146688190D01*
X156314571Y-146926285D02*
X156314571Y-147259619D01*
X156838380Y-147402476D02*
X156838380Y-146926285D01*
X155838380Y-146926285D01*
X155838380Y-147402476D01*
X156790761Y-147783428D02*
X156838380Y-147926285D01*
X156838380Y-148164380D01*
X156790761Y-148259619D01*
X156743142Y-148307238D01*
X156647904Y-148354857D01*
X156552666Y-148354857D01*
X156457428Y-148307238D01*
X156409809Y-148259619D01*
X156362190Y-148164380D01*
X156314571Y-147973904D01*
X156266952Y-147878666D01*
X156219333Y-147831047D01*
X156124095Y-147783428D01*
X156028857Y-147783428D01*
X155933619Y-147831047D01*
X155886000Y-147878666D01*
X155838380Y-147973904D01*
X155838380Y-148212000D01*
X155886000Y-148354857D01*
X156743142Y-149354857D02*
X156790761Y-149307238D01*
X156838380Y-149164380D01*
X156838380Y-149069142D01*
X156790761Y-148926285D01*
X156695523Y-148831047D01*
X156600285Y-148783428D01*
X156409809Y-148735809D01*
X156266952Y-148735809D01*
X156076476Y-148783428D01*
X155981238Y-148831047D01*
X155886000Y-148926285D01*
X155838380Y-149069142D01*
X155838380Y-149164380D01*
X155886000Y-149307238D01*
X155933619Y-149354857D01*
X156838380Y-150307238D02*
X156838380Y-149735809D01*
X156838380Y-150021523D02*
X155838380Y-150021523D01*
X155981238Y-149926285D01*
X156076476Y-149831047D01*
X156124095Y-149735809D01*
X173507047Y-145116380D02*
X173507047Y-144116380D01*
X172935619Y-145116380D02*
X173364190Y-144544952D01*
X172935619Y-144116380D02*
X173507047Y-144687809D01*
X172745142Y-145211619D02*
X171983238Y-145211619D01*
X171221333Y-145116380D02*
X171792761Y-145116380D01*
X171507047Y-145116380D02*
X171507047Y-144116380D01*
X171602285Y-144259238D01*
X171697523Y-144354476D01*
X171792761Y-144402095D01*
X192557047Y-145116380D02*
X192557047Y-144116380D01*
X191985619Y-145116380D02*
X192414190Y-144544952D01*
X191985619Y-144116380D02*
X192557047Y-144687809D01*
X191795142Y-145211619D02*
X191033238Y-145211619D01*
X190842761Y-144211619D02*
X190795142Y-144164000D01*
X190699904Y-144116380D01*
X190461809Y-144116380D01*
X190366571Y-144164000D01*
X190318952Y-144211619D01*
X190271333Y-144306857D01*
X190271333Y-144402095D01*
X190318952Y-144544952D01*
X190890380Y-145116380D01*
X190271333Y-145116380D01*
X211607047Y-145116380D02*
X211607047Y-144116380D01*
X211035619Y-145116380D02*
X211464190Y-144544952D01*
X211035619Y-144116380D02*
X211607047Y-144687809D01*
X210845142Y-145211619D02*
X210083238Y-145211619D01*
X209940380Y-144116380D02*
X209321333Y-144116380D01*
X209654666Y-144497333D01*
X209511809Y-144497333D01*
X209416571Y-144544952D01*
X209368952Y-144592571D01*
X209321333Y-144687809D01*
X209321333Y-144925904D01*
X209368952Y-145021142D01*
X209416571Y-145068761D01*
X209511809Y-145116380D01*
X209797523Y-145116380D01*
X209892761Y-145068761D01*
X209940380Y-145021142D01*
X230657047Y-145116380D02*
X230657047Y-144116380D01*
X230085619Y-145116380D02*
X230514190Y-144544952D01*
X230085619Y-144116380D02*
X230657047Y-144687809D01*
X229895142Y-145211619D02*
X229133238Y-145211619D01*
X228466571Y-144449714D02*
X228466571Y-145116380D01*
X228704666Y-144068761D02*
X228942761Y-144783047D01*
X228323714Y-144783047D01*
X249707047Y-145116380D02*
X249707047Y-144116380D01*
X249135619Y-145116380D02*
X249564190Y-144544952D01*
X249135619Y-144116380D02*
X249707047Y-144687809D01*
X248945142Y-145211619D02*
X248183238Y-145211619D01*
X247468952Y-144116380D02*
X247945142Y-144116380D01*
X247992761Y-144592571D01*
X247945142Y-144544952D01*
X247849904Y-144497333D01*
X247611809Y-144497333D01*
X247516571Y-144544952D01*
X247468952Y-144592571D01*
X247421333Y-144687809D01*
X247421333Y-144925904D01*
X247468952Y-145021142D01*
X247516571Y-145068761D01*
X247611809Y-145116380D01*
X247849904Y-145116380D01*
X247945142Y-145068761D01*
X247992761Y-145021142D01*
X268757047Y-145116380D02*
X268757047Y-144116380D01*
X268185619Y-145116380D02*
X268614190Y-144544952D01*
X268185619Y-144116380D02*
X268757047Y-144687809D01*
X267995142Y-145211619D02*
X267233238Y-145211619D01*
X266566571Y-144116380D02*
X266757047Y-144116380D01*
X266852285Y-144164000D01*
X266899904Y-144211619D01*
X266995142Y-144354476D01*
X267042761Y-144544952D01*
X267042761Y-144925904D01*
X266995142Y-145021142D01*
X266947523Y-145068761D01*
X266852285Y-145116380D01*
X266661809Y-145116380D01*
X266566571Y-145068761D01*
X266518952Y-145021142D01*
X266471333Y-144925904D01*
X266471333Y-144687809D01*
X266518952Y-144592571D01*
X266566571Y-144544952D01*
X266661809Y-144497333D01*
X266852285Y-144497333D01*
X266947523Y-144544952D01*
X266995142Y-144592571D01*
X267042761Y-144687809D01*
X287807047Y-145116380D02*
X287807047Y-144116380D01*
X287235619Y-145116380D02*
X287664190Y-144544952D01*
X287235619Y-144116380D02*
X287807047Y-144687809D01*
X287045142Y-145211619D02*
X286283238Y-145211619D01*
X286140380Y-144116380D02*
X285473714Y-144116380D01*
X285902285Y-145116380D01*
X306857047Y-145116380D02*
X306857047Y-144116380D01*
X306285619Y-145116380D02*
X306714190Y-144544952D01*
X306285619Y-144116380D02*
X306857047Y-144687809D01*
X306095142Y-145211619D02*
X305333238Y-145211619D01*
X304952285Y-144544952D02*
X305047523Y-144497333D01*
X305095142Y-144449714D01*
X305142761Y-144354476D01*
X305142761Y-144306857D01*
X305095142Y-144211619D01*
X305047523Y-144164000D01*
X304952285Y-144116380D01*
X304761809Y-144116380D01*
X304666571Y-144164000D01*
X304618952Y-144211619D01*
X304571333Y-144306857D01*
X304571333Y-144354476D01*
X304618952Y-144449714D01*
X304666571Y-144497333D01*
X304761809Y-144544952D01*
X304952285Y-144544952D01*
X305047523Y-144592571D01*
X305095142Y-144640190D01*
X305142761Y-144735428D01*
X305142761Y-144925904D01*
X305095142Y-145021142D01*
X305047523Y-145068761D01*
X304952285Y-145116380D01*
X304761809Y-145116380D01*
X304666571Y-145068761D01*
X304618952Y-145021142D01*
X304571333Y-144925904D01*
X304571333Y-144735428D01*
X304618952Y-144640190D01*
X304666571Y-144592571D01*
X304761809Y-144544952D01*
X325907047Y-145116380D02*
X325907047Y-144116380D01*
X325335619Y-145116380D02*
X325764190Y-144544952D01*
X325335619Y-144116380D02*
X325907047Y-144687809D01*
X325145142Y-145211619D02*
X324383238Y-145211619D01*
X324097523Y-145116380D02*
X323907047Y-145116380D01*
X323811809Y-145068761D01*
X323764190Y-145021142D01*
X323668952Y-144878285D01*
X323621333Y-144687809D01*
X323621333Y-144306857D01*
X323668952Y-144211619D01*
X323716571Y-144164000D01*
X323811809Y-144116380D01*
X324002285Y-144116380D01*
X324097523Y-144164000D01*
X324145142Y-144211619D01*
X324192761Y-144306857D01*
X324192761Y-144544952D01*
X324145142Y-144640190D01*
X324097523Y-144687809D01*
X324002285Y-144735428D01*
X323811809Y-144735428D01*
X323716571Y-144687809D01*
X323668952Y-144640190D01*
X323621333Y-144544952D01*
X344957047Y-145116380D02*
X344957047Y-144116380D01*
X344385619Y-145116380D02*
X344814190Y-144544952D01*
X344385619Y-144116380D02*
X344957047Y-144687809D01*
X344195142Y-145211619D02*
X343433238Y-145211619D01*
X343004666Y-144116380D02*
X342909428Y-144116380D01*
X342814190Y-144164000D01*
X342766571Y-144211619D01*
X342718952Y-144306857D01*
X342671333Y-144497333D01*
X342671333Y-144735428D01*
X342718952Y-144925904D01*
X342766571Y-145021142D01*
X342814190Y-145068761D01*
X342909428Y-145116380D01*
X343004666Y-145116380D01*
X343099904Y-145068761D01*
X343147523Y-145021142D01*
X343195142Y-144925904D01*
X343242761Y-144735428D01*
X343242761Y-144497333D01*
X343195142Y-144306857D01*
X343147523Y-144211619D01*
X343099904Y-144164000D01*
X343004666Y-144116380D01*
X366340380Y-145116380D02*
X366340380Y-144116380D01*
X365768952Y-145116380D02*
X366197523Y-144544952D01*
X365768952Y-144116380D02*
X366340380Y-144687809D01*
X365578476Y-145211619D02*
X364816571Y-145211619D01*
X364578476Y-145116380D02*
X364578476Y-144116380D01*
X364245142Y-144830666D01*
X363911809Y-144116380D01*
X363911809Y-145116380D01*
X363435619Y-145116380D02*
X363435619Y-144116380D01*
X362959428Y-145116380D02*
X362959428Y-144116380D01*
X362388000Y-145116380D01*
X362388000Y-144116380D01*
X361911809Y-144116380D02*
X361911809Y-144925904D01*
X361864190Y-145021142D01*
X361816571Y-145068761D01*
X361721333Y-145116380D01*
X361530857Y-145116380D01*
X361435619Y-145068761D01*
X361388000Y-145021142D01*
X361340380Y-144925904D01*
X361340380Y-144116380D01*
X360911809Y-145068761D02*
X360768952Y-145116380D01*
X360530857Y-145116380D01*
X360435619Y-145068761D01*
X360388000Y-145021142D01*
X360340380Y-144925904D01*
X360340380Y-144830666D01*
X360388000Y-144735428D01*
X360435619Y-144687809D01*
X360530857Y-144640190D01*
X360721333Y-144592571D01*
X360816571Y-144544952D01*
X360864190Y-144497333D01*
X360911809Y-144402095D01*
X360911809Y-144306857D01*
X360864190Y-144211619D01*
X360816571Y-144164000D01*
X360721333Y-144116380D01*
X360483238Y-144116380D01*
X360340380Y-144164000D01*
X359388000Y-145116380D02*
X359959428Y-145116380D01*
X359673714Y-145116380D02*
X359673714Y-144116380D01*
X359768952Y-144259238D01*
X359864190Y-144354476D01*
X359959428Y-144402095D01*
X385390380Y-145116380D02*
X385390380Y-144116380D01*
X384818952Y-145116380D02*
X385247523Y-144544952D01*
X384818952Y-144116380D02*
X385390380Y-144687809D01*
X384628476Y-145211619D02*
X383866571Y-145211619D01*
X383628476Y-144592571D02*
X383295142Y-144592571D01*
X383152285Y-145116380D02*
X383628476Y-145116380D01*
X383628476Y-144116380D01*
X383152285Y-144116380D01*
X382057047Y-145211619D02*
X382152285Y-145164000D01*
X382247523Y-145068761D01*
X382390380Y-144925904D01*
X382485619Y-144878285D01*
X382580857Y-144878285D01*
X382533238Y-145116380D02*
X382628476Y-145068761D01*
X382723714Y-144973523D01*
X382771333Y-144783047D01*
X382771333Y-144449714D01*
X382723714Y-144259238D01*
X382628476Y-144164000D01*
X382533238Y-144116380D01*
X382342761Y-144116380D01*
X382247523Y-144164000D01*
X382152285Y-144259238D01*
X382104666Y-144449714D01*
X382104666Y-144783047D01*
X382152285Y-144973523D01*
X382247523Y-145068761D01*
X382342761Y-145116380D01*
X382533238Y-145116380D01*
X381676095Y-144116380D02*
X381676095Y-144925904D01*
X381628476Y-145021142D01*
X381580857Y-145068761D01*
X381485619Y-145116380D01*
X381295142Y-145116380D01*
X381199904Y-145068761D01*
X381152285Y-145021142D01*
X381104666Y-144925904D01*
X381104666Y-144116380D01*
X380676095Y-144830666D02*
X380199904Y-144830666D01*
X380771333Y-145116380D02*
X380438000Y-144116380D01*
X380104666Y-145116380D01*
X379295142Y-145116380D02*
X379771333Y-145116380D01*
X379771333Y-144116380D01*
X378438000Y-145116380D02*
X379009428Y-145116380D01*
X378723714Y-145116380D02*
X378723714Y-144116380D01*
X378818952Y-144259238D01*
X378914190Y-144354476D01*
X379009428Y-144402095D01*
X183554857Y-164166380D02*
X183554857Y-163166380D01*
X182983428Y-164166380D02*
X183412000Y-163594952D01*
X182983428Y-163166380D02*
X183554857Y-163737809D01*
X182792952Y-164261619D02*
X182031047Y-164261619D01*
X181126285Y-164261619D02*
X181221523Y-164214000D01*
X181316761Y-164118761D01*
X181459619Y-163975904D01*
X181554857Y-163928285D01*
X181650095Y-163928285D01*
X181602476Y-164166380D02*
X181697714Y-164118761D01*
X181792952Y-164023523D01*
X181840571Y-163833047D01*
X181840571Y-163499714D01*
X181792952Y-163309238D01*
X181697714Y-163214000D01*
X181602476Y-163166380D01*
X181412000Y-163166380D01*
X181316761Y-163214000D01*
X181221523Y-163309238D01*
X181173904Y-163499714D01*
X181173904Y-163833047D01*
X181221523Y-164023523D01*
X181316761Y-164118761D01*
X181412000Y-164166380D01*
X181602476Y-164166380D01*
X180221523Y-164166380D02*
X180792952Y-164166380D01*
X180507238Y-164166380D02*
X180507238Y-163166380D01*
X180602476Y-163309238D01*
X180697714Y-163404476D01*
X180792952Y-163452095D01*
X202652476Y-164166380D02*
X202652476Y-163166380D01*
X202081047Y-164166380D02*
X202509619Y-163594952D01*
X202081047Y-163166380D02*
X202652476Y-163737809D01*
X201890571Y-164261619D02*
X201128666Y-164261619D01*
X200985809Y-163166380D02*
X200747714Y-164166380D01*
X200557238Y-163452095D01*
X200366761Y-164166380D01*
X200128666Y-163166380D01*
X199223904Y-164166380D02*
X199795333Y-164166380D01*
X199509619Y-164166380D02*
X199509619Y-163166380D01*
X199604857Y-163309238D01*
X199700095Y-163404476D01*
X199795333Y-163452095D01*
X221583428Y-164166380D02*
X221583428Y-163166380D01*
X221012000Y-164166380D02*
X221440571Y-163594952D01*
X221012000Y-163166380D02*
X221583428Y-163737809D01*
X220821523Y-164261619D02*
X220059619Y-164261619D01*
X219821523Y-163642571D02*
X219488190Y-163642571D01*
X219345333Y-164166380D02*
X219821523Y-164166380D01*
X219821523Y-163166380D01*
X219345333Y-163166380D01*
X218392952Y-164166380D02*
X218964380Y-164166380D01*
X218678666Y-164166380D02*
X218678666Y-163166380D01*
X218773904Y-163309238D01*
X218869142Y-163404476D01*
X218964380Y-163452095D01*
X240681047Y-164166380D02*
X240681047Y-163166380D01*
X240109619Y-164166380D02*
X240538190Y-163594952D01*
X240109619Y-163166380D02*
X240681047Y-163737809D01*
X239919142Y-164261619D02*
X239157238Y-164261619D01*
X238347714Y-164166380D02*
X238681047Y-163690190D01*
X238919142Y-164166380D02*
X238919142Y-163166380D01*
X238538190Y-163166380D01*
X238442952Y-163214000D01*
X238395333Y-163261619D01*
X238347714Y-163356857D01*
X238347714Y-163499714D01*
X238395333Y-163594952D01*
X238442952Y-163642571D01*
X238538190Y-163690190D01*
X238919142Y-163690190D01*
X237395333Y-164166380D02*
X237966761Y-164166380D01*
X237681047Y-164166380D02*
X237681047Y-163166380D01*
X237776285Y-163309238D01*
X237871523Y-163404476D01*
X237966761Y-163452095D01*
X259612000Y-164166380D02*
X259612000Y-163166380D01*
X259040571Y-164166380D02*
X259469142Y-163594952D01*
X259040571Y-163166380D02*
X259612000Y-163737809D01*
X258850095Y-164261619D02*
X258088190Y-164261619D01*
X257992952Y-163166380D02*
X257421523Y-163166380D01*
X257707238Y-164166380D02*
X257707238Y-163166380D01*
X256564380Y-164166380D02*
X257135809Y-164166380D01*
X256850095Y-164166380D02*
X256850095Y-163166380D01*
X256945333Y-163309238D01*
X257040571Y-163404476D01*
X257135809Y-163452095D01*
X278709619Y-164166380D02*
X278709619Y-163166380D01*
X278138190Y-164166380D02*
X278566761Y-163594952D01*
X278138190Y-163166380D02*
X278709619Y-163737809D01*
X277947714Y-164261619D02*
X277185809Y-164261619D01*
X276757238Y-163690190D02*
X276757238Y-164166380D01*
X277090571Y-163166380D02*
X276757238Y-163690190D01*
X276423904Y-163166380D01*
X275566761Y-164166380D02*
X276138190Y-164166380D01*
X275852476Y-164166380D02*
X275852476Y-163166380D01*
X275947714Y-163309238D01*
X276042952Y-163404476D01*
X276138190Y-163452095D01*
X297854857Y-164166380D02*
X297854857Y-163166380D01*
X297283428Y-164166380D02*
X297712000Y-163594952D01*
X297283428Y-163166380D02*
X297854857Y-163737809D01*
X297092952Y-164261619D02*
X296331047Y-164261619D01*
X296092952Y-163166380D02*
X296092952Y-163975904D01*
X296045333Y-164071142D01*
X295997714Y-164118761D01*
X295902476Y-164166380D01*
X295712000Y-164166380D01*
X295616761Y-164118761D01*
X295569142Y-164071142D01*
X295521523Y-163975904D01*
X295521523Y-163166380D01*
X294521523Y-164166380D02*
X295092952Y-164166380D01*
X294807238Y-164166380D02*
X294807238Y-163166380D01*
X294902476Y-163309238D01*
X294997714Y-163404476D01*
X295092952Y-163452095D01*
X316619142Y-164166380D02*
X316619142Y-163166380D01*
X316047714Y-164166380D02*
X316476285Y-163594952D01*
X316047714Y-163166380D02*
X316619142Y-163737809D01*
X315857238Y-164261619D02*
X315095333Y-164261619D01*
X314857238Y-164166380D02*
X314857238Y-163166380D01*
X313857238Y-164166380D02*
X314428666Y-164166380D01*
X314142952Y-164166380D02*
X314142952Y-163166380D01*
X314238190Y-163309238D01*
X314333428Y-163404476D01*
X314428666Y-163452095D01*
X335954857Y-164166380D02*
X335954857Y-163166380D01*
X335383428Y-164166380D02*
X335812000Y-163594952D01*
X335383428Y-163166380D02*
X335954857Y-163737809D01*
X335192952Y-164261619D02*
X334431047Y-164261619D01*
X334002476Y-163166380D02*
X333812000Y-163166380D01*
X333716761Y-163214000D01*
X333621523Y-163309238D01*
X333573904Y-163499714D01*
X333573904Y-163833047D01*
X333621523Y-164023523D01*
X333716761Y-164118761D01*
X333812000Y-164166380D01*
X334002476Y-164166380D01*
X334097714Y-164118761D01*
X334192952Y-164023523D01*
X334240571Y-163833047D01*
X334240571Y-163499714D01*
X334192952Y-163309238D01*
X334097714Y-163214000D01*
X334002476Y-163166380D01*
X332621523Y-164166380D02*
X333192952Y-164166380D01*
X332907238Y-164166380D02*
X332907238Y-163166380D01*
X333002476Y-163309238D01*
X333097714Y-163404476D01*
X333192952Y-163452095D01*
X354981047Y-164166380D02*
X354981047Y-163166380D01*
X354409619Y-164166380D02*
X354838190Y-163594952D01*
X354409619Y-163166380D02*
X354981047Y-163737809D01*
X354219142Y-164261619D02*
X353457238Y-164261619D01*
X353219142Y-164166380D02*
X353219142Y-163166380D01*
X352838190Y-163166380D01*
X352742952Y-163214000D01*
X352695333Y-163261619D01*
X352647714Y-163356857D01*
X352647714Y-163499714D01*
X352695333Y-163594952D01*
X352742952Y-163642571D01*
X352838190Y-163690190D01*
X353219142Y-163690190D01*
X351695333Y-164166380D02*
X352266761Y-164166380D01*
X351981047Y-164166380D02*
X351981047Y-163166380D01*
X352076285Y-163309238D01*
X352171523Y-163404476D01*
X352266761Y-163452095D01*
X375959619Y-164166380D02*
X375959619Y-163166380D01*
X375388190Y-164166380D02*
X375816761Y-163594952D01*
X375388190Y-163166380D02*
X375959619Y-163737809D01*
X375197714Y-164261619D02*
X374435809Y-164261619D01*
X373626285Y-164071142D02*
X373673904Y-164118761D01*
X373816761Y-164166380D01*
X373912000Y-164166380D01*
X374054857Y-164118761D01*
X374150095Y-164023523D01*
X374197714Y-163928285D01*
X374245333Y-163737809D01*
X374245333Y-163594952D01*
X374197714Y-163404476D01*
X374150095Y-163309238D01*
X374054857Y-163214000D01*
X373912000Y-163166380D01*
X373816761Y-163166380D01*
X373673904Y-163214000D01*
X373626285Y-163261619D01*
X372864380Y-163642571D02*
X372721523Y-163690190D01*
X372673904Y-163737809D01*
X372626285Y-163833047D01*
X372626285Y-163975904D01*
X372673904Y-164071142D01*
X372721523Y-164118761D01*
X372816761Y-164166380D01*
X373197714Y-164166380D01*
X373197714Y-163166380D01*
X372864380Y-163166380D01*
X372769142Y-163214000D01*
X372721523Y-163261619D01*
X372673904Y-163356857D01*
X372673904Y-163452095D01*
X372721523Y-163547333D01*
X372769142Y-163594952D01*
X372864380Y-163642571D01*
X373197714Y-163642571D01*
X371626285Y-164166380D02*
X371959619Y-163690190D01*
X372197714Y-164166380D02*
X372197714Y-163166380D01*
X371816761Y-163166380D01*
X371721523Y-163214000D01*
X371673904Y-163261619D01*
X371626285Y-163356857D01*
X371626285Y-163499714D01*
X371673904Y-163594952D01*
X371721523Y-163642571D01*
X371816761Y-163690190D01*
X372197714Y-163690190D01*
X371245333Y-163880666D02*
X370769142Y-163880666D01*
X371340571Y-164166380D02*
X371007238Y-163166380D01*
X370673904Y-164166380D01*
X369769142Y-164071142D02*
X369816761Y-164118761D01*
X369959619Y-164166380D01*
X370054857Y-164166380D01*
X370197714Y-164118761D01*
X370292952Y-164023523D01*
X370340571Y-163928285D01*
X370388190Y-163737809D01*
X370388190Y-163594952D01*
X370340571Y-163404476D01*
X370292952Y-163309238D01*
X370197714Y-163214000D01*
X370054857Y-163166380D01*
X369959619Y-163166380D01*
X369816761Y-163214000D01*
X369769142Y-163261619D01*
X368816761Y-164166380D02*
X369388190Y-164166380D01*
X369102476Y-164166380D02*
X369102476Y-163166380D01*
X369197714Y-163309238D01*
X369292952Y-163404476D01*
X369388190Y-163452095D01*
X394962380Y-163190571D02*
X393962380Y-163190571D01*
X394962380Y-163762000D02*
X394390952Y-163333428D01*
X393962380Y-163762000D02*
X394533809Y-163190571D01*
X395057619Y-163952476D02*
X395057619Y-164714380D01*
X393962380Y-165142952D02*
X393962380Y-165333428D01*
X394010000Y-165428666D01*
X394105238Y-165523904D01*
X394295714Y-165571523D01*
X394629047Y-165571523D01*
X394819523Y-165523904D01*
X394914761Y-165428666D01*
X394962380Y-165333428D01*
X394962380Y-165142952D01*
X394914761Y-165047714D01*
X394819523Y-164952476D01*
X394629047Y-164904857D01*
X394295714Y-164904857D01*
X394105238Y-164952476D01*
X394010000Y-165047714D01*
X393962380Y-165142952D01*
X394438571Y-166333428D02*
X394486190Y-166476285D01*
X394533809Y-166523904D01*
X394629047Y-166571523D01*
X394771904Y-166571523D01*
X394867142Y-166523904D01*
X394914761Y-166476285D01*
X394962380Y-166381047D01*
X394962380Y-166000095D01*
X393962380Y-166000095D01*
X393962380Y-166333428D01*
X394010000Y-166428666D01*
X394057619Y-166476285D01*
X394152857Y-166523904D01*
X394248095Y-166523904D01*
X394343333Y-166476285D01*
X394390952Y-166428666D01*
X394438571Y-166333428D01*
X394438571Y-166000095D01*
X394962380Y-167571523D02*
X394486190Y-167238190D01*
X394962380Y-167000095D02*
X393962380Y-167000095D01*
X393962380Y-167381047D01*
X394010000Y-167476285D01*
X394057619Y-167523904D01*
X394152857Y-167571523D01*
X394295714Y-167571523D01*
X394390952Y-167523904D01*
X394438571Y-167476285D01*
X394486190Y-167381047D01*
X394486190Y-167000095D01*
X394676666Y-167952476D02*
X394676666Y-168428666D01*
X394962380Y-167857238D02*
X393962380Y-168190571D01*
X394962380Y-168523904D01*
X394867142Y-169428666D02*
X394914761Y-169381047D01*
X394962380Y-169238190D01*
X394962380Y-169142952D01*
X394914761Y-169000095D01*
X394819523Y-168904857D01*
X394724285Y-168857238D01*
X394533809Y-168809619D01*
X394390952Y-168809619D01*
X394200476Y-168857238D01*
X394105238Y-168904857D01*
X394010000Y-169000095D01*
X393962380Y-169142952D01*
X393962380Y-169238190D01*
X394010000Y-169381047D01*
X394057619Y-169428666D01*
X394962380Y-170381047D02*
X394962380Y-169809619D01*
X394962380Y-170095333D02*
X393962380Y-170095333D01*
X394105238Y-170000095D01*
X394200476Y-169904857D01*
X394248095Y-169809619D01*
X188222619Y-183216380D02*
X188222619Y-182216380D01*
X187651190Y-183216380D02*
X188079761Y-182644952D01*
X187651190Y-182216380D02*
X188222619Y-182787809D01*
X187460714Y-183311619D02*
X186698809Y-183311619D01*
X186508333Y-182930666D02*
X186032142Y-182930666D01*
X186603571Y-183216380D02*
X186270238Y-182216380D01*
X185936904Y-183216380D01*
X185079761Y-183216380D02*
X185651190Y-183216380D01*
X185365476Y-183216380D02*
X185365476Y-182216380D01*
X185460714Y-182359238D01*
X185555952Y-182454476D01*
X185651190Y-182502095D01*
X207320238Y-183216380D02*
X207320238Y-182216380D01*
X206748809Y-183216380D02*
X207177380Y-182644952D01*
X206748809Y-182216380D02*
X207320238Y-182787809D01*
X206558333Y-183311619D02*
X205796428Y-183311619D01*
X205605952Y-183168761D02*
X205463095Y-183216380D01*
X205225000Y-183216380D01*
X205129761Y-183168761D01*
X205082142Y-183121142D01*
X205034523Y-183025904D01*
X205034523Y-182930666D01*
X205082142Y-182835428D01*
X205129761Y-182787809D01*
X205225000Y-182740190D01*
X205415476Y-182692571D01*
X205510714Y-182644952D01*
X205558333Y-182597333D01*
X205605952Y-182502095D01*
X205605952Y-182406857D01*
X205558333Y-182311619D01*
X205510714Y-182264000D01*
X205415476Y-182216380D01*
X205177380Y-182216380D01*
X205034523Y-182264000D01*
X204082142Y-183216380D02*
X204653571Y-183216380D01*
X204367857Y-183216380D02*
X204367857Y-182216380D01*
X204463095Y-182359238D01*
X204558333Y-182454476D01*
X204653571Y-182502095D01*
X226394047Y-183216380D02*
X226394047Y-182216380D01*
X225822619Y-183216380D02*
X226251190Y-182644952D01*
X225822619Y-182216380D02*
X226394047Y-182787809D01*
X225632142Y-183311619D02*
X224870238Y-183311619D01*
X224632142Y-183216380D02*
X224632142Y-182216380D01*
X224394047Y-182216380D01*
X224251190Y-182264000D01*
X224155952Y-182359238D01*
X224108333Y-182454476D01*
X224060714Y-182644952D01*
X224060714Y-182787809D01*
X224108333Y-182978285D01*
X224155952Y-183073523D01*
X224251190Y-183168761D01*
X224394047Y-183216380D01*
X224632142Y-183216380D01*
X223108333Y-183216380D02*
X223679761Y-183216380D01*
X223394047Y-183216380D02*
X223394047Y-182216380D01*
X223489285Y-182359238D01*
X223584523Y-182454476D01*
X223679761Y-182502095D01*
X245372619Y-183216380D02*
X245372619Y-182216380D01*
X244801190Y-183216380D02*
X245229761Y-182644952D01*
X244801190Y-182216380D02*
X245372619Y-182787809D01*
X244610714Y-183311619D02*
X243848809Y-183311619D01*
X243277380Y-182692571D02*
X243610714Y-182692571D01*
X243610714Y-183216380D02*
X243610714Y-182216380D01*
X243134523Y-182216380D01*
X242229761Y-183216380D02*
X242801190Y-183216380D01*
X242515476Y-183216380D02*
X242515476Y-182216380D01*
X242610714Y-182359238D01*
X242705952Y-182454476D01*
X242801190Y-182502095D01*
X266375380Y-184192952D02*
X265375380Y-184192952D01*
X266375380Y-184764380D02*
X265803952Y-184335809D01*
X265375380Y-184764380D02*
X265946809Y-184192952D01*
X266470619Y-184954857D02*
X266470619Y-185716761D01*
X265423000Y-186478666D02*
X265375380Y-186383428D01*
X265375380Y-186240571D01*
X265423000Y-186097714D01*
X265518238Y-186002476D01*
X265613476Y-185954857D01*
X265803952Y-185907238D01*
X265946809Y-185907238D01*
X266137285Y-185954857D01*
X266232523Y-186002476D01*
X266327761Y-186097714D01*
X266375380Y-186240571D01*
X266375380Y-186335809D01*
X266327761Y-186478666D01*
X266280142Y-186526285D01*
X265946809Y-186526285D01*
X265946809Y-186335809D01*
X266375380Y-187478666D02*
X266375380Y-186907238D01*
X266375380Y-187192952D02*
X265375380Y-187192952D01*
X265518238Y-187097714D01*
X265613476Y-187002476D01*
X265661095Y-186907238D01*
X279329380Y-184169142D02*
X278329380Y-184169142D01*
X279329380Y-184740571D02*
X278757952Y-184312000D01*
X278329380Y-184740571D02*
X278900809Y-184169142D01*
X279424619Y-184931047D02*
X279424619Y-185692952D01*
X279329380Y-185931047D02*
X278329380Y-185931047D01*
X278805571Y-185931047D02*
X278805571Y-186502476D01*
X279329380Y-186502476D02*
X278329380Y-186502476D01*
X279329380Y-187502476D02*
X279329380Y-186931047D01*
X279329380Y-187216761D02*
X278329380Y-187216761D01*
X278472238Y-187121523D01*
X278567476Y-187026285D01*
X278615095Y-186931047D01*
X302475000Y-183216380D02*
X302475000Y-182216380D01*
X301903571Y-183216380D02*
X302332142Y-182644952D01*
X301903571Y-182216380D02*
X302475000Y-182787809D01*
X301713095Y-183311619D02*
X300951190Y-183311619D01*
X300427380Y-182216380D02*
X300427380Y-182930666D01*
X300475000Y-183073523D01*
X300570238Y-183168761D01*
X300713095Y-183216380D01*
X300808333Y-183216380D01*
X299427380Y-183216380D02*
X299998809Y-183216380D01*
X299713095Y-183216380D02*
X299713095Y-182216380D01*
X299808333Y-182359238D01*
X299903571Y-182454476D01*
X299998809Y-182502095D01*
X321644047Y-183216380D02*
X321644047Y-182216380D01*
X321072619Y-183216380D02*
X321501190Y-182644952D01*
X321072619Y-182216380D02*
X321644047Y-182787809D01*
X320882142Y-183311619D02*
X320120238Y-183311619D01*
X319882142Y-183216380D02*
X319882142Y-182216380D01*
X319310714Y-183216380D02*
X319739285Y-182644952D01*
X319310714Y-182216380D02*
X319882142Y-182787809D01*
X318358333Y-183216380D02*
X318929761Y-183216380D01*
X318644047Y-183216380D02*
X318644047Y-182216380D01*
X318739285Y-182359238D01*
X318834523Y-182454476D01*
X318929761Y-182502095D01*
X340598809Y-183216380D02*
X340598809Y-182216380D01*
X340027380Y-183216380D02*
X340455952Y-182644952D01*
X340027380Y-182216380D02*
X340598809Y-182787809D01*
X339836904Y-183311619D02*
X339075000Y-183311619D01*
X338360714Y-183216380D02*
X338836904Y-183216380D01*
X338836904Y-182216380D01*
X337503571Y-183216380D02*
X338075000Y-183216380D01*
X337789285Y-183216380D02*
X337789285Y-182216380D01*
X337884523Y-182359238D01*
X337979761Y-182454476D01*
X338075000Y-182502095D01*
X361482142Y-183216380D02*
X361482142Y-182216380D01*
X360910714Y-183216380D02*
X361339285Y-182644952D01*
X360910714Y-182216380D02*
X361482142Y-182787809D01*
X360720238Y-183311619D02*
X359958333Y-183311619D01*
X359767857Y-183168761D02*
X359625000Y-183216380D01*
X359386904Y-183216380D01*
X359291666Y-183168761D01*
X359244047Y-183121142D01*
X359196428Y-183025904D01*
X359196428Y-182930666D01*
X359244047Y-182835428D01*
X359291666Y-182787809D01*
X359386904Y-182740190D01*
X359577380Y-182692571D01*
X359672619Y-182644952D01*
X359720238Y-182597333D01*
X359767857Y-182502095D01*
X359767857Y-182406857D01*
X359720238Y-182311619D01*
X359672619Y-182264000D01*
X359577380Y-182216380D01*
X359339285Y-182216380D01*
X359196428Y-182264000D01*
X358767857Y-182692571D02*
X358434523Y-182692571D01*
X358291666Y-183216380D02*
X358767857Y-183216380D01*
X358767857Y-182216380D01*
X358291666Y-182216380D01*
X357863095Y-183216380D02*
X357863095Y-182216380D01*
X357529761Y-182930666D01*
X357196428Y-182216380D01*
X357196428Y-183216380D01*
X356720238Y-183216380D02*
X356720238Y-182216380D01*
X355672619Y-183121142D02*
X355720238Y-183168761D01*
X355863095Y-183216380D01*
X355958333Y-183216380D01*
X356101190Y-183168761D01*
X356196428Y-183073523D01*
X356244047Y-182978285D01*
X356291666Y-182787809D01*
X356291666Y-182644952D01*
X356244047Y-182454476D01*
X356196428Y-182359238D01*
X356101190Y-182264000D01*
X355958333Y-182216380D01*
X355863095Y-182216380D01*
X355720238Y-182264000D01*
X355672619Y-182311619D01*
X354720238Y-183216380D02*
X355291666Y-183216380D01*
X355005952Y-183216380D02*
X355005952Y-182216380D01*
X355101190Y-182359238D01*
X355196428Y-182454476D01*
X355291666Y-182502095D01*
X380698809Y-183216380D02*
X380698809Y-182216380D01*
X380127380Y-183216380D02*
X380555952Y-182644952D01*
X380127380Y-182216380D02*
X380698809Y-182787809D01*
X379936904Y-183311619D02*
X379175000Y-183311619D01*
X378270238Y-183311619D02*
X378365476Y-183264000D01*
X378460714Y-183168761D01*
X378603571Y-183025904D01*
X378698809Y-182978285D01*
X378794047Y-182978285D01*
X378746428Y-183216380D02*
X378841666Y-183168761D01*
X378936904Y-183073523D01*
X378984523Y-182883047D01*
X378984523Y-182549714D01*
X378936904Y-182359238D01*
X378841666Y-182264000D01*
X378746428Y-182216380D01*
X378555952Y-182216380D01*
X378460714Y-182264000D01*
X378365476Y-182359238D01*
X378317857Y-182549714D01*
X378317857Y-182883047D01*
X378365476Y-183073523D01*
X378460714Y-183168761D01*
X378555952Y-183216380D01*
X378746428Y-183216380D01*
X377889285Y-182216380D02*
X377889285Y-183025904D01*
X377841666Y-183121142D01*
X377794047Y-183168761D01*
X377698809Y-183216380D01*
X377508333Y-183216380D01*
X377413095Y-183168761D01*
X377365476Y-183121142D01*
X377317857Y-183025904D01*
X377317857Y-182216380D01*
X376651190Y-182216380D02*
X376460714Y-182216380D01*
X376365476Y-182264000D01*
X376270238Y-182359238D01*
X376222619Y-182549714D01*
X376222619Y-182883047D01*
X376270238Y-183073523D01*
X376365476Y-183168761D01*
X376460714Y-183216380D01*
X376651190Y-183216380D01*
X376746428Y-183168761D01*
X376841666Y-183073523D01*
X376889285Y-182883047D01*
X376889285Y-182549714D01*
X376841666Y-182359238D01*
X376746428Y-182264000D01*
X376651190Y-182216380D01*
X375936904Y-182216380D02*
X375365476Y-182216380D01*
X375651190Y-183216380D02*
X375651190Y-182216380D01*
X375032142Y-182692571D02*
X374698809Y-182692571D01*
X374555952Y-183216380D02*
X375032142Y-183216380D01*
X375032142Y-182216380D01*
X374555952Y-182216380D01*
X373603571Y-183216380D02*
X374175000Y-183216380D01*
X373889285Y-183216380D02*
X373889285Y-182216380D01*
X373984523Y-182359238D01*
X374079761Y-182454476D01*
X374175000Y-182502095D01*
X197795238Y-202266380D02*
X197795238Y-201266380D01*
X197223809Y-202266380D02*
X197652380Y-201694952D01*
X197223809Y-201266380D02*
X197795238Y-201837809D01*
X197033333Y-202361619D02*
X196271428Y-202361619D01*
X196128571Y-201266380D02*
X195461904Y-201266380D01*
X196128571Y-202266380D01*
X195461904Y-202266380D01*
X194557142Y-202266380D02*
X195128571Y-202266380D01*
X194842857Y-202266380D02*
X194842857Y-201266380D01*
X194938095Y-201409238D01*
X195033333Y-201504476D01*
X195128571Y-201552095D01*
X216845238Y-202266380D02*
X216845238Y-201266380D01*
X216273809Y-202266380D02*
X216702380Y-201694952D01*
X216273809Y-201266380D02*
X216845238Y-201837809D01*
X216083333Y-202361619D02*
X215321428Y-202361619D01*
X215178571Y-201266380D02*
X214511904Y-202266380D01*
X214511904Y-201266380D02*
X215178571Y-202266380D01*
X213607142Y-202266380D02*
X214178571Y-202266380D01*
X213892857Y-202266380D02*
X213892857Y-201266380D01*
X213988095Y-201409238D01*
X214083333Y-201504476D01*
X214178571Y-201552095D01*
X235919047Y-202266380D02*
X235919047Y-201266380D01*
X235347619Y-202266380D02*
X235776190Y-201694952D01*
X235347619Y-201266380D02*
X235919047Y-201837809D01*
X235157142Y-202361619D02*
X234395238Y-202361619D01*
X233585714Y-202171142D02*
X233633333Y-202218761D01*
X233776190Y-202266380D01*
X233871428Y-202266380D01*
X234014285Y-202218761D01*
X234109523Y-202123523D01*
X234157142Y-202028285D01*
X234204761Y-201837809D01*
X234204761Y-201694952D01*
X234157142Y-201504476D01*
X234109523Y-201409238D01*
X234014285Y-201314000D01*
X233871428Y-201266380D01*
X233776190Y-201266380D01*
X233633333Y-201314000D01*
X233585714Y-201361619D01*
X232633333Y-202266380D02*
X233204761Y-202266380D01*
X232919047Y-202266380D02*
X232919047Y-201266380D01*
X233014285Y-201409238D01*
X233109523Y-201504476D01*
X233204761Y-201552095D01*
X254897619Y-202266380D02*
X254897619Y-201266380D01*
X254326190Y-202266380D02*
X254754761Y-201694952D01*
X254326190Y-201266380D02*
X254897619Y-201837809D01*
X254135714Y-202361619D02*
X253373809Y-202361619D01*
X253278571Y-201266380D02*
X252945238Y-202266380D01*
X252611904Y-201266380D01*
X251754761Y-202266380D02*
X252326190Y-202266380D01*
X252040476Y-202266380D02*
X252040476Y-201266380D01*
X252135714Y-201409238D01*
X252230952Y-201504476D01*
X252326190Y-201552095D01*
X274019047Y-202266380D02*
X274019047Y-201266380D01*
X273447619Y-202266380D02*
X273876190Y-201694952D01*
X273447619Y-201266380D02*
X274019047Y-201837809D01*
X273257142Y-202361619D02*
X272495238Y-202361619D01*
X271923809Y-201742571D02*
X271780952Y-201790190D01*
X271733333Y-201837809D01*
X271685714Y-201933047D01*
X271685714Y-202075904D01*
X271733333Y-202171142D01*
X271780952Y-202218761D01*
X271876190Y-202266380D01*
X272257142Y-202266380D01*
X272257142Y-201266380D01*
X271923809Y-201266380D01*
X271828571Y-201314000D01*
X271780952Y-201361619D01*
X271733333Y-201456857D01*
X271733333Y-201552095D01*
X271780952Y-201647333D01*
X271828571Y-201694952D01*
X271923809Y-201742571D01*
X272257142Y-201742571D01*
X270733333Y-202266380D02*
X271304761Y-202266380D01*
X271019047Y-202266380D02*
X271019047Y-201266380D01*
X271114285Y-201409238D01*
X271209523Y-201504476D01*
X271304761Y-201552095D01*
X293092857Y-202266380D02*
X293092857Y-201266380D01*
X292521428Y-202266380D02*
X292950000Y-201694952D01*
X292521428Y-201266380D02*
X293092857Y-201837809D01*
X292330952Y-202361619D02*
X291569047Y-202361619D01*
X291330952Y-202266380D02*
X291330952Y-201266380D01*
X290759523Y-202266380D01*
X290759523Y-201266380D01*
X289759523Y-202266380D02*
X290330952Y-202266380D01*
X290045238Y-202266380D02*
X290045238Y-201266380D01*
X290140476Y-201409238D01*
X290235714Y-201504476D01*
X290330952Y-201552095D01*
X312190476Y-202266380D02*
X312190476Y-201266380D01*
X311619047Y-202266380D02*
X312047619Y-201694952D01*
X311619047Y-201266380D02*
X312190476Y-201837809D01*
X311428571Y-202361619D02*
X310666666Y-202361619D01*
X310428571Y-202266380D02*
X310428571Y-201266380D01*
X310095238Y-201980666D01*
X309761904Y-201266380D01*
X309761904Y-202266380D01*
X308761904Y-202266380D02*
X309333333Y-202266380D01*
X309047619Y-202266380D02*
X309047619Y-201266380D01*
X309142857Y-201409238D01*
X309238095Y-201504476D01*
X309333333Y-201552095D01*
X333264285Y-202266380D02*
X333264285Y-201266380D01*
X332692857Y-202266380D02*
X333121428Y-201694952D01*
X332692857Y-201266380D02*
X333264285Y-201837809D01*
X332502380Y-202361619D02*
X331740476Y-202361619D01*
X330930952Y-202171142D02*
X330978571Y-202218761D01*
X331121428Y-202266380D01*
X331216666Y-202266380D01*
X331359523Y-202218761D01*
X331454761Y-202123523D01*
X331502380Y-202028285D01*
X331550000Y-201837809D01*
X331550000Y-201694952D01*
X331502380Y-201504476D01*
X331454761Y-201409238D01*
X331359523Y-201314000D01*
X331216666Y-201266380D01*
X331121428Y-201266380D01*
X330978571Y-201314000D01*
X330930952Y-201361619D01*
X330311904Y-201266380D02*
X330121428Y-201266380D01*
X330026190Y-201314000D01*
X329930952Y-201409238D01*
X329883333Y-201599714D01*
X329883333Y-201933047D01*
X329930952Y-202123523D01*
X330026190Y-202218761D01*
X330121428Y-202266380D01*
X330311904Y-202266380D01*
X330407142Y-202218761D01*
X330502380Y-202123523D01*
X330550000Y-201933047D01*
X330550000Y-201599714D01*
X330502380Y-201409238D01*
X330407142Y-201314000D01*
X330311904Y-201266380D01*
X329454761Y-202266380D02*
X329454761Y-201266380D01*
X329121428Y-201980666D01*
X328788095Y-201266380D01*
X328788095Y-202266380D01*
X328311904Y-202266380D02*
X328311904Y-201266380D01*
X327978571Y-201980666D01*
X327645238Y-201266380D01*
X327645238Y-202266380D01*
X327216666Y-201980666D02*
X326740476Y-201980666D01*
X327311904Y-202266380D02*
X326978571Y-201266380D01*
X326645238Y-202266380D01*
X325788095Y-202266380D02*
X326359523Y-202266380D01*
X326073809Y-202266380D02*
X326073809Y-201266380D01*
X326169047Y-201409238D01*
X326264285Y-201504476D01*
X326359523Y-201552095D01*
X351123809Y-202266380D02*
X351123809Y-201266380D01*
X350552380Y-202266380D02*
X350980952Y-201694952D01*
X350552380Y-201266380D02*
X351123809Y-201837809D01*
X350361904Y-202361619D02*
X349600000Y-202361619D01*
X349361904Y-202266380D02*
X349361904Y-201266380D01*
X349123809Y-201266380D01*
X348980952Y-201314000D01*
X348885714Y-201409238D01*
X348838095Y-201504476D01*
X348790476Y-201694952D01*
X348790476Y-201837809D01*
X348838095Y-202028285D01*
X348885714Y-202123523D01*
X348980952Y-202218761D01*
X349123809Y-202266380D01*
X349361904Y-202266380D01*
X348171428Y-201266380D02*
X347980952Y-201266380D01*
X347885714Y-201314000D01*
X347790476Y-201409238D01*
X347742857Y-201599714D01*
X347742857Y-201933047D01*
X347790476Y-202123523D01*
X347885714Y-202218761D01*
X347980952Y-202266380D01*
X348171428Y-202266380D01*
X348266666Y-202218761D01*
X348361904Y-202123523D01*
X348409523Y-201933047D01*
X348409523Y-201599714D01*
X348361904Y-201409238D01*
X348266666Y-201314000D01*
X348171428Y-201266380D01*
X347457142Y-201266380D02*
X346885714Y-201266380D01*
X347171428Y-202266380D02*
X347171428Y-201266380D01*
X346028571Y-202266380D02*
X346600000Y-202266380D01*
X346314285Y-202266380D02*
X346314285Y-201266380D01*
X346409523Y-201409238D01*
X346504761Y-201504476D01*
X346600000Y-201552095D01*
X371078571Y-202266380D02*
X371078571Y-201266380D01*
X370507142Y-202266380D02*
X370935714Y-201694952D01*
X370507142Y-201266380D02*
X371078571Y-201837809D01*
X370316666Y-202361619D02*
X369554761Y-202361619D01*
X369364285Y-202218761D02*
X369221428Y-202266380D01*
X368983333Y-202266380D01*
X368888095Y-202218761D01*
X368840476Y-202171142D01*
X368792857Y-202075904D01*
X368792857Y-201980666D01*
X368840476Y-201885428D01*
X368888095Y-201837809D01*
X368983333Y-201790190D01*
X369173809Y-201742571D01*
X369269047Y-201694952D01*
X369316666Y-201647333D01*
X369364285Y-201552095D01*
X369364285Y-201456857D01*
X369316666Y-201361619D01*
X369269047Y-201314000D01*
X369173809Y-201266380D01*
X368935714Y-201266380D01*
X368792857Y-201314000D01*
X367888095Y-202266380D02*
X368364285Y-202266380D01*
X368364285Y-201266380D01*
X367602380Y-201980666D02*
X367126190Y-201980666D01*
X367697619Y-202266380D02*
X367364285Y-201266380D01*
X367030952Y-202266380D01*
X366745238Y-202218761D02*
X366602380Y-202266380D01*
X366364285Y-202266380D01*
X366269047Y-202218761D01*
X366221428Y-202171142D01*
X366173809Y-202075904D01*
X366173809Y-201980666D01*
X366221428Y-201885428D01*
X366269047Y-201837809D01*
X366364285Y-201790190D01*
X366554761Y-201742571D01*
X366650000Y-201694952D01*
X366697619Y-201647333D01*
X366745238Y-201552095D01*
X366745238Y-201456857D01*
X366697619Y-201361619D01*
X366650000Y-201314000D01*
X366554761Y-201266380D01*
X366316666Y-201266380D01*
X366173809Y-201314000D01*
X365745238Y-202266380D02*
X365745238Y-201266380D01*
X365745238Y-201742571D02*
X365173809Y-201742571D01*
X365173809Y-202266380D02*
X365173809Y-201266380D01*
X364173809Y-202266380D02*
X364745238Y-202266380D01*
X364459523Y-202266380D02*
X364459523Y-201266380D01*
X364554761Y-201409238D01*
X364650000Y-201504476D01*
X364745238Y-201552095D01*
X181983380Y-221316380D02*
X181983380Y-220316380D01*
X181411952Y-221316380D02*
X181840523Y-220744952D01*
X181411952Y-220316380D02*
X181983380Y-220887809D01*
X181221476Y-221411619D02*
X180459571Y-221411619D01*
X180316714Y-220316380D02*
X180078619Y-221316380D01*
X179888142Y-220602095D01*
X179697666Y-221316380D01*
X179459571Y-220316380D01*
X179078619Y-221316380D02*
X179078619Y-220316380D01*
X178602428Y-221316380D02*
X178602428Y-220316380D01*
X178031000Y-221316380D01*
X178031000Y-220316380D01*
X177602428Y-220411619D02*
X177554809Y-220364000D01*
X177459571Y-220316380D01*
X177221476Y-220316380D01*
X177126238Y-220364000D01*
X177078619Y-220411619D01*
X177031000Y-220506857D01*
X177031000Y-220602095D01*
X177078619Y-220744952D01*
X177650047Y-221316380D01*
X177031000Y-221316380D01*
X205677333Y-221316380D02*
X205677333Y-220316380D01*
X205105904Y-221316380D02*
X205534476Y-220744952D01*
X205105904Y-220316380D02*
X205677333Y-220887809D01*
X204915428Y-221411619D02*
X204153523Y-221411619D01*
X203963047Y-221030666D02*
X203486857Y-221030666D01*
X204058285Y-221316380D02*
X203724952Y-220316380D01*
X203391619Y-221316380D01*
X202582095Y-221316380D02*
X203058285Y-221316380D01*
X203058285Y-220316380D01*
X202391619Y-220316380D02*
X201820190Y-220316380D01*
X202105904Y-221316380D02*
X202105904Y-220316380D01*
X201534476Y-220411619D02*
X201486857Y-220364000D01*
X201391619Y-220316380D01*
X201153523Y-220316380D01*
X201058285Y-220364000D01*
X201010666Y-220411619D01*
X200963047Y-220506857D01*
X200963047Y-220602095D01*
X201010666Y-220744952D01*
X201582095Y-221316380D01*
X200963047Y-221316380D01*
X272923761Y-221316380D02*
X272923761Y-220316380D01*
X272352333Y-221316380D02*
X272780904Y-220744952D01*
X272352333Y-220316380D02*
X272923761Y-220887809D01*
X272161857Y-221411619D02*
X271399952Y-221411619D01*
X270590428Y-221221142D02*
X270638047Y-221268761D01*
X270780904Y-221316380D01*
X270876142Y-221316380D01*
X271019000Y-221268761D01*
X271114238Y-221173523D01*
X271161857Y-221078285D01*
X271209476Y-220887809D01*
X271209476Y-220744952D01*
X271161857Y-220554476D01*
X271114238Y-220459238D01*
X271019000Y-220364000D01*
X270876142Y-220316380D01*
X270780904Y-220316380D01*
X270638047Y-220364000D01*
X270590428Y-220411619D01*
X270304714Y-220316380D02*
X269733285Y-220316380D01*
X270019000Y-221316380D02*
X270019000Y-220316380D01*
X268828523Y-221316380D02*
X269161857Y-220840190D01*
X269399952Y-221316380D02*
X269399952Y-220316380D01*
X269019000Y-220316380D01*
X268923761Y-220364000D01*
X268876142Y-220411619D01*
X268828523Y-220506857D01*
X268828523Y-220649714D01*
X268876142Y-220744952D01*
X268923761Y-220792571D01*
X269019000Y-220840190D01*
X269399952Y-220840190D01*
X267923761Y-221316380D02*
X268399952Y-221316380D01*
X268399952Y-220316380D01*
X267066619Y-221316380D02*
X267638047Y-221316380D01*
X267352333Y-221316380D02*
X267352333Y-220316380D01*
X267447571Y-220459238D01*
X267542809Y-220554476D01*
X267638047Y-220602095D01*
X348552333Y-221316380D02*
X348552333Y-220316380D01*
X347980904Y-221316380D02*
X348409476Y-220744952D01*
X347980904Y-220316380D02*
X348552333Y-220887809D01*
X347790428Y-221411619D02*
X347028523Y-221411619D01*
X346838047Y-221030666D02*
X346361857Y-221030666D01*
X346933285Y-221316380D02*
X346599952Y-220316380D01*
X346266619Y-221316380D01*
X345457095Y-221316380D02*
X345933285Y-221316380D01*
X345933285Y-220316380D01*
X345266619Y-220316380D02*
X344695190Y-220316380D01*
X344980904Y-221316380D02*
X344980904Y-220316380D01*
X343838047Y-221316380D02*
X344409476Y-221316380D01*
X344123761Y-221316380D02*
X344123761Y-220316380D01*
X344219000Y-220459238D01*
X344314238Y-220554476D01*
X344409476Y-220602095D01*
X372483380Y-221316380D02*
X372483380Y-220316380D01*
X371911952Y-221316380D02*
X372340523Y-220744952D01*
X371911952Y-220316380D02*
X372483380Y-220887809D01*
X371721476Y-221411619D02*
X370959571Y-221411619D01*
X370816714Y-220316380D02*
X370578619Y-221316380D01*
X370388142Y-220602095D01*
X370197666Y-221316380D01*
X369959571Y-220316380D01*
X369578619Y-221316380D02*
X369578619Y-220316380D01*
X369102428Y-221316380D02*
X369102428Y-220316380D01*
X368531000Y-221316380D01*
X368531000Y-220316380D01*
X367531000Y-221316380D02*
X368102428Y-221316380D01*
X367816714Y-221316380D02*
X367816714Y-220316380D01*
X367911952Y-220459238D01*
X368007190Y-220554476D01*
X368102428Y-220602095D01*
X397034476Y-221316380D02*
X397034476Y-220316380D01*
X396463047Y-221316380D02*
X396891619Y-220744952D01*
X396463047Y-220316380D02*
X397034476Y-220887809D01*
X396272571Y-221411619D02*
X395510666Y-221411619D01*
X395272571Y-221316380D02*
X395272571Y-220316380D01*
X394939238Y-221030666D01*
X394605904Y-220316380D01*
X394605904Y-221316380D01*
X394129714Y-220792571D02*
X393796380Y-220792571D01*
X393653523Y-221316380D02*
X394129714Y-221316380D01*
X394129714Y-220316380D01*
X393653523Y-220316380D01*
X393224952Y-221316380D02*
X393224952Y-220316380D01*
X392653523Y-221316380D01*
X392653523Y-220316380D01*
X392177333Y-220316380D02*
X392177333Y-221125904D01*
X392129714Y-221221142D01*
X392082095Y-221268761D01*
X391986857Y-221316380D01*
X391796380Y-221316380D01*
X391701142Y-221268761D01*
X391653523Y-221221142D01*
X391605904Y-221125904D01*
X391605904Y-220316380D01*
X390605904Y-221316380D02*
X391177333Y-221316380D01*
X390891619Y-221316380D02*
X390891619Y-220316380D01*
X390986857Y-220459238D01*
X391082095Y-220554476D01*
X391177333Y-220602095D01*
X158623761Y-221316380D02*
X158623761Y-220316380D01*
X158052333Y-221316380D02*
X158480904Y-220744952D01*
X158052333Y-220316380D02*
X158623761Y-220887809D01*
X157861857Y-221411619D02*
X157099952Y-221411619D01*
X156290428Y-221221142D02*
X156338047Y-221268761D01*
X156480904Y-221316380D01*
X156576142Y-221316380D01*
X156719000Y-221268761D01*
X156814238Y-221173523D01*
X156861857Y-221078285D01*
X156909476Y-220887809D01*
X156909476Y-220744952D01*
X156861857Y-220554476D01*
X156814238Y-220459238D01*
X156719000Y-220364000D01*
X156576142Y-220316380D01*
X156480904Y-220316380D01*
X156338047Y-220364000D01*
X156290428Y-220411619D01*
X156004714Y-220316380D02*
X155433285Y-220316380D01*
X155719000Y-221316380D02*
X155719000Y-220316380D01*
X154528523Y-221316380D02*
X154861857Y-220840190D01*
X155099952Y-221316380D02*
X155099952Y-220316380D01*
X154719000Y-220316380D01*
X154623761Y-220364000D01*
X154576142Y-220411619D01*
X154528523Y-220506857D01*
X154528523Y-220649714D01*
X154576142Y-220744952D01*
X154623761Y-220792571D01*
X154719000Y-220840190D01*
X155099952Y-220840190D01*
X153623761Y-221316380D02*
X154099952Y-221316380D01*
X154099952Y-220316380D01*
X153385666Y-220316380D02*
X152766619Y-220316380D01*
X153099952Y-220697333D01*
X152957095Y-220697333D01*
X152861857Y-220744952D01*
X152814238Y-220792571D01*
X152766619Y-220887809D01*
X152766619Y-221125904D01*
X152814238Y-221221142D01*
X152861857Y-221268761D01*
X152957095Y-221316380D01*
X153242809Y-221316380D01*
X153338047Y-221268761D01*
X153385666Y-221221142D01*
X388466666Y-190415142D02*
X388514285Y-190462761D01*
X388657142Y-190510380D01*
X388752380Y-190510380D01*
X388895238Y-190462761D01*
X388990476Y-190367523D01*
X389038095Y-190272285D01*
X389085714Y-190081809D01*
X389085714Y-189938952D01*
X389038095Y-189748476D01*
X388990476Y-189653238D01*
X388895238Y-189558000D01*
X388752380Y-189510380D01*
X388657142Y-189510380D01*
X388514285Y-189558000D01*
X388466666Y-189605619D01*
X387514285Y-190510380D02*
X388085714Y-190510380D01*
X387800000Y-190510380D02*
X387800000Y-189510380D01*
X387895238Y-189653238D01*
X387990476Y-189748476D01*
X388085714Y-189796095D01*
X396086666Y-190367142D02*
X396134285Y-190414761D01*
X396277142Y-190462380D01*
X396372380Y-190462380D01*
X396515238Y-190414761D01*
X396610476Y-190319523D01*
X396658095Y-190224285D01*
X396705714Y-190033809D01*
X396705714Y-189890952D01*
X396658095Y-189700476D01*
X396610476Y-189605238D01*
X396515238Y-189510000D01*
X396372380Y-189462380D01*
X396277142Y-189462380D01*
X396134285Y-189510000D01*
X396086666Y-189557619D01*
X395705714Y-189557619D02*
X395658095Y-189510000D01*
X395562857Y-189462380D01*
X395324761Y-189462380D01*
X395229523Y-189510000D01*
X395181904Y-189557619D01*
X395134285Y-189652857D01*
X395134285Y-189748095D01*
X395181904Y-189890952D01*
X395753333Y-190462380D01*
X395134285Y-190462380D01*
X170254761Y-184478666D02*
X170302380Y-184621523D01*
X170302380Y-184859619D01*
X170254761Y-184954857D01*
X170207142Y-185002476D01*
X170111904Y-185050095D01*
X170016666Y-185050095D01*
X169921428Y-185002476D01*
X169873809Y-184954857D01*
X169826190Y-184859619D01*
X169778571Y-184669142D01*
X169730952Y-184573904D01*
X169683333Y-184526285D01*
X169588095Y-184478666D01*
X169492857Y-184478666D01*
X169397619Y-184526285D01*
X169350000Y-184573904D01*
X169302380Y-184669142D01*
X169302380Y-184907238D01*
X169350000Y-185050095D01*
X169302380Y-185383428D02*
X170302380Y-185621523D01*
X169588095Y-185812000D01*
X170302380Y-186002476D01*
X169302380Y-186240571D01*
X170302380Y-187145333D02*
X170302380Y-186573904D01*
X170302380Y-186859619D02*
X169302380Y-186859619D01*
X169445238Y-186764380D01*
X169540476Y-186669142D01*
X169588095Y-186573904D01*
X376274666Y-201162142D02*
X376322285Y-201209761D01*
X376465142Y-201257380D01*
X376560380Y-201257380D01*
X376703238Y-201209761D01*
X376798476Y-201114523D01*
X376846095Y-201019285D01*
X376893714Y-200828809D01*
X376893714Y-200685952D01*
X376846095Y-200495476D01*
X376798476Y-200400238D01*
X376703238Y-200305000D01*
X376560380Y-200257380D01*
X376465142Y-200257380D01*
X376322285Y-200305000D01*
X376274666Y-200352619D01*
X375703238Y-200685952D02*
X375798476Y-200638333D01*
X375846095Y-200590714D01*
X375893714Y-200495476D01*
X375893714Y-200447857D01*
X375846095Y-200352619D01*
X375798476Y-200305000D01*
X375703238Y-200257380D01*
X375512761Y-200257380D01*
X375417523Y-200305000D01*
X375369904Y-200352619D01*
X375322285Y-200447857D01*
X375322285Y-200495476D01*
X375369904Y-200590714D01*
X375417523Y-200638333D01*
X375512761Y-200685952D01*
X375703238Y-200685952D01*
X375798476Y-200733571D01*
X375846095Y-200781190D01*
X375893714Y-200876428D01*
X375893714Y-201066904D01*
X375846095Y-201162142D01*
X375798476Y-201209761D01*
X375703238Y-201257380D01*
X375512761Y-201257380D01*
X375417523Y-201209761D01*
X375369904Y-201162142D01*
X375322285Y-201066904D01*
X375322285Y-200876428D01*
X375369904Y-200781190D01*
X375417523Y-200733571D01*
X375512761Y-200685952D01*
X416166666Y-205007142D02*
X416214285Y-205054761D01*
X416357142Y-205102380D01*
X416452380Y-205102380D01*
X416595238Y-205054761D01*
X416690476Y-204959523D01*
X416738095Y-204864285D01*
X416785714Y-204673809D01*
X416785714Y-204530952D01*
X416738095Y-204340476D01*
X416690476Y-204245238D01*
X416595238Y-204150000D01*
X416452380Y-204102380D01*
X416357142Y-204102380D01*
X416214285Y-204150000D01*
X416166666Y-204197619D01*
X415833333Y-204102380D02*
X415214285Y-204102380D01*
X415547619Y-204483333D01*
X415404761Y-204483333D01*
X415309523Y-204530952D01*
X415261904Y-204578571D01*
X415214285Y-204673809D01*
X415214285Y-204911904D01*
X415261904Y-205007142D01*
X415309523Y-205054761D01*
X415404761Y-205102380D01*
X415690476Y-205102380D01*
X415785714Y-205054761D01*
X415833333Y-205007142D01*
X419485666Y-209685142D02*
X419533285Y-209732761D01*
X419676142Y-209780380D01*
X419771380Y-209780380D01*
X419914238Y-209732761D01*
X420009476Y-209637523D01*
X420057095Y-209542285D01*
X420104714Y-209351809D01*
X420104714Y-209208952D01*
X420057095Y-209018476D01*
X420009476Y-208923238D01*
X419914238Y-208828000D01*
X419771380Y-208780380D01*
X419676142Y-208780380D01*
X419533285Y-208828000D01*
X419485666Y-208875619D01*
X418628523Y-209113714D02*
X418628523Y-209780380D01*
X418866619Y-208732761D02*
X419104714Y-209447047D01*
X418485666Y-209447047D01*
X425860666Y-216059142D02*
X425908285Y-216106761D01*
X426051142Y-216154380D01*
X426146380Y-216154380D01*
X426289238Y-216106761D01*
X426384476Y-216011523D01*
X426432095Y-215916285D01*
X426479714Y-215725809D01*
X426479714Y-215582952D01*
X426432095Y-215392476D01*
X426384476Y-215297238D01*
X426289238Y-215202000D01*
X426146380Y-215154380D01*
X426051142Y-215154380D01*
X425908285Y-215202000D01*
X425860666Y-215249619D01*
X424955904Y-215154380D02*
X425432095Y-215154380D01*
X425479714Y-215630571D01*
X425432095Y-215582952D01*
X425336857Y-215535333D01*
X425098761Y-215535333D01*
X425003523Y-215582952D01*
X424955904Y-215630571D01*
X424908285Y-215725809D01*
X424908285Y-215963904D01*
X424955904Y-216059142D01*
X425003523Y-216106761D01*
X425098761Y-216154380D01*
X425336857Y-216154380D01*
X425432095Y-216106761D01*
X425479714Y-216059142D01*
X425860666Y-209685142D02*
X425908285Y-209732761D01*
X426051142Y-209780380D01*
X426146380Y-209780380D01*
X426289238Y-209732761D01*
X426384476Y-209637523D01*
X426432095Y-209542285D01*
X426479714Y-209351809D01*
X426479714Y-209208952D01*
X426432095Y-209018476D01*
X426384476Y-208923238D01*
X426289238Y-208828000D01*
X426146380Y-208780380D01*
X426051142Y-208780380D01*
X425908285Y-208828000D01*
X425860666Y-208875619D01*
X425003523Y-208780380D02*
X425194000Y-208780380D01*
X425289238Y-208828000D01*
X425336857Y-208875619D01*
X425432095Y-209018476D01*
X425479714Y-209208952D01*
X425479714Y-209589904D01*
X425432095Y-209685142D01*
X425384476Y-209732761D01*
X425289238Y-209780380D01*
X425098761Y-209780380D01*
X425003523Y-209732761D01*
X424955904Y-209685142D01*
X424908285Y-209589904D01*
X424908285Y-209351809D01*
X424955904Y-209256571D01*
X425003523Y-209208952D01*
X425098761Y-209161333D01*
X425289238Y-209161333D01*
X425384476Y-209208952D01*
X425432095Y-209256571D01*
X425479714Y-209351809D01*
X425860666Y-203403142D02*
X425908285Y-203450761D01*
X426051142Y-203498380D01*
X426146380Y-203498380D01*
X426289238Y-203450761D01*
X426384476Y-203355523D01*
X426432095Y-203260285D01*
X426479714Y-203069809D01*
X426479714Y-202926952D01*
X426432095Y-202736476D01*
X426384476Y-202641238D01*
X426289238Y-202546000D01*
X426146380Y-202498380D01*
X426051142Y-202498380D01*
X425908285Y-202546000D01*
X425860666Y-202593619D01*
X425527333Y-202498380D02*
X424860666Y-202498380D01*
X425289238Y-203498380D01*
X379957666Y-194782380D02*
X380291000Y-194306190D01*
X380529095Y-194782380D02*
X380529095Y-193782380D01*
X380148142Y-193782380D01*
X380052904Y-193830000D01*
X380005285Y-193877619D01*
X379957666Y-193972857D01*
X379957666Y-194115714D01*
X380005285Y-194210952D01*
X380052904Y-194258571D01*
X380148142Y-194306190D01*
X380529095Y-194306190D01*
X379005285Y-194782380D02*
X379576714Y-194782380D01*
X379291000Y-194782380D02*
X379291000Y-193782380D01*
X379386238Y-193925238D01*
X379481476Y-194020476D01*
X379576714Y-194068095D01*
X380846666Y-222720380D02*
X381180000Y-222244190D01*
X381418095Y-222720380D02*
X381418095Y-221720380D01*
X381037142Y-221720380D01*
X380941904Y-221768000D01*
X380894285Y-221815619D01*
X380846666Y-221910857D01*
X380846666Y-222053714D01*
X380894285Y-222148952D01*
X380941904Y-222196571D01*
X381037142Y-222244190D01*
X381418095Y-222244190D01*
X380465714Y-221815619D02*
X380418095Y-221768000D01*
X380322857Y-221720380D01*
X380084761Y-221720380D01*
X379989523Y-221768000D01*
X379941904Y-221815619D01*
X379894285Y-221910857D01*
X379894285Y-222006095D01*
X379941904Y-222148952D01*
X380513333Y-222720380D01*
X379894285Y-222720380D01*
X171202380Y-158983333D02*
X170726190Y-158650000D01*
X171202380Y-158411904D02*
X170202380Y-158411904D01*
X170202380Y-158792857D01*
X170250000Y-158888095D01*
X170297619Y-158935714D01*
X170392857Y-158983333D01*
X170535714Y-158983333D01*
X170630952Y-158935714D01*
X170678571Y-158888095D01*
X170726190Y-158792857D01*
X170726190Y-158411904D01*
X170202380Y-159316666D02*
X170202380Y-159935714D01*
X170583333Y-159602380D01*
X170583333Y-159745238D01*
X170630952Y-159840476D01*
X170678571Y-159888095D01*
X170773809Y-159935714D01*
X171011904Y-159935714D01*
X171107142Y-159888095D01*
X171154761Y-159840476D01*
X171202380Y-159745238D01*
X171202380Y-159459523D01*
X171154761Y-159364285D01*
X171107142Y-159316666D01*
X164852380Y-158983333D02*
X164376190Y-158650000D01*
X164852380Y-158411904D02*
X163852380Y-158411904D01*
X163852380Y-158792857D01*
X163900000Y-158888095D01*
X163947619Y-158935714D01*
X164042857Y-158983333D01*
X164185714Y-158983333D01*
X164280952Y-158935714D01*
X164328571Y-158888095D01*
X164376190Y-158792857D01*
X164376190Y-158411904D01*
X164185714Y-159840476D02*
X164852380Y-159840476D01*
X163804761Y-159602380D02*
X164519047Y-159364285D01*
X164519047Y-159983333D01*
X150372380Y-179303333D02*
X149896190Y-178970000D01*
X150372380Y-178731904D02*
X149372380Y-178731904D01*
X149372380Y-179112857D01*
X149420000Y-179208095D01*
X149467619Y-179255714D01*
X149562857Y-179303333D01*
X149705714Y-179303333D01*
X149800952Y-179255714D01*
X149848571Y-179208095D01*
X149896190Y-179112857D01*
X149896190Y-178731904D01*
X149372380Y-180208095D02*
X149372380Y-179731904D01*
X149848571Y-179684285D01*
X149800952Y-179731904D01*
X149753333Y-179827142D01*
X149753333Y-180065238D01*
X149800952Y-180160476D01*
X149848571Y-180208095D01*
X149943809Y-180255714D01*
X150181904Y-180255714D01*
X150277142Y-180208095D01*
X150324761Y-180160476D01*
X150372380Y-180065238D01*
X150372380Y-179827142D01*
X150324761Y-179731904D01*
X150277142Y-179684285D01*
X147072380Y-188733333D02*
X146596190Y-188400000D01*
X147072380Y-188161904D02*
X146072380Y-188161904D01*
X146072380Y-188542857D01*
X146120000Y-188638095D01*
X146167619Y-188685714D01*
X146262857Y-188733333D01*
X146405714Y-188733333D01*
X146500952Y-188685714D01*
X146548571Y-188638095D01*
X146596190Y-188542857D01*
X146596190Y-188161904D01*
X146072380Y-189590476D02*
X146072380Y-189400000D01*
X146120000Y-189304761D01*
X146167619Y-189257142D01*
X146310476Y-189161904D01*
X146500952Y-189114285D01*
X146881904Y-189114285D01*
X146977142Y-189161904D01*
X147024761Y-189209523D01*
X147072380Y-189304761D01*
X147072380Y-189495238D01*
X147024761Y-189590476D01*
X146977142Y-189638095D01*
X146881904Y-189685714D01*
X146643809Y-189685714D01*
X146548571Y-189638095D01*
X146500952Y-189590476D01*
X146453333Y-189495238D01*
X146453333Y-189304761D01*
X146500952Y-189209523D01*
X146548571Y-189161904D01*
X146643809Y-189114285D01*
D15*
X392403551Y-198723757D02*
X391464668Y-199662640D01*
X391298983Y-199717869D01*
X391188526Y-199717869D01*
X391022841Y-199662640D01*
X390801927Y-199441727D01*
X390746698Y-199276041D01*
X390746698Y-199165585D01*
X390801927Y-198999899D01*
X391740810Y-198061016D01*
X389421217Y-198061016D02*
X390083958Y-198723757D01*
X389752587Y-198392387D02*
X390912384Y-197232590D01*
X390857155Y-197508732D01*
X390857155Y-197729646D01*
X390912384Y-197895331D01*
D14*
X380317988Y-216642162D02*
X380048614Y-216372788D01*
X380210238Y-216857661D02*
X380587362Y-216103413D01*
X379833114Y-216480537D01*
X380291050Y-215807102D02*
X379967801Y-215483853D01*
X379563740Y-216211163D02*
X380129426Y-215645478D01*
X379213554Y-215860977D02*
X379779240Y-215295291D01*
X379186617Y-215510791D01*
X379402116Y-214918168D01*
X378836431Y-215483853D01*
X378863368Y-214918168D02*
X378674806Y-214729606D01*
X378297683Y-214945105D02*
X378567057Y-215214479D01*
X379132742Y-214648794D01*
X378863368Y-214379420D01*
X378297683Y-213867609D02*
X378378495Y-213894547D01*
X378459307Y-213975359D01*
X378513182Y-214083108D01*
X378513182Y-214190858D01*
X378486244Y-214271670D01*
X378405432Y-214406357D01*
X378324620Y-214487169D01*
X378189933Y-214567982D01*
X378109121Y-214594919D01*
X378001371Y-214594919D01*
X377893622Y-214541044D01*
X377839747Y-214487169D01*
X377785872Y-214379420D01*
X377785872Y-214325545D01*
X377974434Y-214136983D01*
X378082183Y-214244733D01*
X377678122Y-214002296D02*
X377408748Y-213732922D01*
X377570373Y-214217795D02*
X377947496Y-213463548D01*
X377193249Y-213840672D01*
X377624248Y-213140299D02*
X377274061Y-212790113D01*
X377247124Y-213194174D01*
X377166312Y-213113362D01*
X377085500Y-213086425D01*
X377031625Y-213086425D01*
X376950813Y-213113362D01*
X376816126Y-213248049D01*
X376789188Y-213328861D01*
X376789188Y-213382736D01*
X376816126Y-213463548D01*
X376977750Y-213625173D01*
X377058562Y-213652110D01*
X377112437Y-213652110D01*
X377004687Y-212628489D02*
X377004687Y-212574614D01*
X376977750Y-212493802D01*
X376843063Y-212359115D01*
X376762251Y-212332177D01*
X376708376Y-212332177D01*
X376627564Y-212359115D01*
X376573689Y-212412990D01*
X376519814Y-212520739D01*
X376519814Y-213167237D01*
X376169628Y-212817051D01*
X376492877Y-212008929D02*
X376034941Y-212466864D01*
X375954129Y-212493802D01*
X375900254Y-212493802D01*
X375819442Y-212466864D01*
X375711692Y-212359115D01*
X375684755Y-212278303D01*
X375684755Y-212224428D01*
X375711692Y-212143616D01*
X376169628Y-211685680D01*
X375469255Y-211362431D02*
X375092132Y-211739555D01*
X375819442Y-211281619D02*
X375550068Y-211820367D01*
X375199881Y-211470180D01*
X161600380Y-164333428D02*
X160600380Y-164333428D01*
X161600380Y-164904857D02*
X161028952Y-164476285D01*
X160600380Y-164904857D02*
X161171809Y-164333428D01*
X161695619Y-165095333D02*
X161695619Y-165857238D01*
X160600380Y-165952476D02*
X160600380Y-166523904D01*
X161600380Y-166238190D02*
X160600380Y-166238190D01*
X161314666Y-166809619D02*
X161314666Y-167285809D01*
X161600380Y-166714380D02*
X160600380Y-167047714D01*
X161600380Y-167381047D01*
X161076571Y-168047714D02*
X161124190Y-168190571D01*
X161171809Y-168238190D01*
X161267047Y-168285809D01*
X161409904Y-168285809D01*
X161505142Y-168238190D01*
X161552761Y-168190571D01*
X161600380Y-168095333D01*
X161600380Y-167714380D01*
X160600380Y-167714380D01*
X160600380Y-168047714D01*
X160648000Y-168142952D01*
X160695619Y-168190571D01*
X160790857Y-168238190D01*
X160886095Y-168238190D01*
X160981333Y-168190571D01*
X161028952Y-168142952D01*
X161076571Y-168047714D01*
X161076571Y-167714380D01*
X161600380Y-169238190D02*
X161600380Y-168666761D01*
X161600380Y-168952476D02*
X160600380Y-168952476D01*
X160743238Y-168857238D01*
X160838476Y-168762000D01*
X160886095Y-168666761D01*
M02*
