M48
; DRILL file {KiCad (5.1.6)-1} date 07/30/20 14:33:23
; FORMAT={-:-/ absolute / inch / decimal}
; #@! TF.CreationDate,2020-07-30T14:33:23-07:00
; #@! TF.GenerationSoftware,Kicad,Pcbnew,(5.1.6)-1
FMAT,2
INCH
T1C0.0157
T2C0.0276
T3C0.0866
T4C0.0984
T5C0.0256
T6C0.0689
T7C0.1181
T8C0.1200
T9C0.1570
%
G90
G05
T1
X6.3174Y-5.7357
X6.3324Y-6.4107
X6.4324Y-6.4107
X6.5104Y-6.1676
X6.8701Y-6.0359
X6.8974Y-6.4157
X7.1402Y-7.6712
X7.7836Y-7.8968
X7.8064Y-7.9826
X8.1055Y-8.1792
X8.8617Y-7.7082
X10.2703Y-8.5853
X10.3964Y-8.237
X11.2093Y-7.9168
X11.8353Y-7.6665
X12.7574Y-7.9957
X13.262Y-7.8334
X14.21Y-6.2385
X14.5611Y-7.7619
X14.6803Y-8.2281
X14.7074Y-7.6257
X14.8465Y-7.9555
X14.8674Y-8.2757
X14.8824Y-7.5907
X14.9184Y-8.3832
X14.9204Y-7.1014
X14.9553Y-7.7961
X14.9654Y-8.3687
X14.9791Y-8.3093
X14.9851Y-8.0452
X14.9983Y-7.8006
X15.0224Y-8.3907
X15.0424Y-7.5907
X15.062Y-7.7302
X15.0768Y-8.0837
X15.1087Y-8.2779
X15.1233Y-7.91
X15.1279Y-7.7537
X15.1368Y-7.8396
X15.1474Y-7.9857
X15.2404Y-8.2031
X15.2805Y-8.3365
X15.3024Y-7.4657
X15.4097Y-8.2054
X15.4121Y-8.2767
X15.465Y-8.1985
X15.4774Y-7.3957
X15.4783Y-7.6933
X15.5674Y-7.8207
X15.5703Y-8.1585
X15.5914Y-7.7528
X15.6324Y-7.5107
X15.7724Y-7.4007
X16.3774Y-7.1257
X16.6184Y-8.4914
T2
X15.1169Y-6.6284
X15.1169Y-6.9355
X9.4459Y-7.0595
X9.753Y-7.0595
X10.7583Y-6.3095
X11.0654Y-6.3095
X7.8521Y-8.5595
X8.1592Y-8.5595
X6.3521Y-7.8095
X6.6592Y-7.8095
X8.6959Y-7.0595
X9.003Y-7.0595
X7.7583Y-6.3095
X8.0654Y-6.3095
X9.1646Y-8.5595
X9.4717Y-8.5595
X10.3834Y-5.5595
X10.6905Y-5.5595
X13.0083Y-6.3095
X13.3154Y-6.3095
X6.3374Y-5.8122
X6.3374Y-6.1193
X11.4874Y-7.0422
X11.4874Y-7.3493
X8.3209Y-7.8095
X8.628Y-7.8095
X15.9146Y-7.0595
X16.2217Y-7.0595
X9.8209Y-7.8095
X10.128Y-7.8095
X9.0709Y-7.8095
X9.378Y-7.8095
X10.0083Y-6.3095
X10.3154Y-6.3095
X10.5709Y-7.8095
X10.878Y-7.8095
X11.8834Y-5.5595
X12.1905Y-5.5595
X12.6334Y-5.5595
X12.9405Y-5.5595
X11.3209Y-7.8095
X11.628Y-7.8095
X7.0083Y-6.3095
X7.3154Y-6.3095
X14.6959Y-7.0595
X15.003Y-7.0595
X9.2583Y-6.3095
X9.5654Y-6.3095
X16.2896Y-8.5595
X16.5967Y-8.5595
X11.5083Y-6.3095
X11.8154Y-6.3095
X16.1959Y-6.3095
X16.503Y-6.3095
X7.5709Y-7.8095
X7.878Y-7.8095
X7.1959Y-7.0595
X7.503Y-7.0595
X11.1334Y-5.5595
X11.4405Y-5.5595
X13.3834Y-5.5595
X13.6905Y-5.5595
X10.5108Y-6.9808
X10.8179Y-6.9808
X14.8834Y-5.5595
X15.1905Y-5.5595
X11.6959Y-7.0595
X12.003Y-7.0595
X14.4146Y-8.5595
X14.7217Y-8.5595
X8.5083Y-6.3095
X8.8154Y-6.3095
X11.9771Y-8.5595
X12.2842Y-8.5595
X10.4771Y-8.5595
X10.7842Y-8.5595
X15.7402Y-7.8095
X16.0472Y-7.8095
X16.0083Y-5.5595
X16.3154Y-5.5595
X6.7515Y-5.5595
X7.0586Y-5.5595
X8.8834Y-5.5595
X9.1905Y-5.5595
X13.1959Y-7.0595
X13.503Y-7.0595
X12.0709Y-7.8095
X12.378Y-7.8095
X13.7583Y-6.3095
X14.0654Y-6.3095
X13.9459Y-7.0595
X14.253Y-7.0595
X13.5709Y-7.8095
X13.878Y-7.8095
X7.9459Y-7.0595
X8.253Y-7.0595
X5.9771Y-8.5595
X6.2842Y-8.5595
X8.1334Y-5.5595
X8.4405Y-5.5595
X14.1334Y-5.5595
X14.4405Y-5.5595
X12.4459Y-7.0595
X12.753Y-7.0595
X6.9146Y-8.5595
X7.2217Y-8.5595
X6.1646Y-7.0595
X6.4717Y-7.0595
X13.4771Y-8.5595
X13.7842Y-8.5595
X7.3834Y-5.5595
X7.6905Y-5.5595
X9.6334Y-5.5595
X9.9405Y-5.5595
X15.3521Y-8.5595
X15.6592Y-8.5595
X12.2583Y-6.3095
X12.5654Y-6.3095
X14.3209Y-7.8095
X14.628Y-7.8095
X12.8209Y-7.8095
X13.128Y-7.8095
X5.8071Y-6.4119
X5.8071Y-6.719
X14.5083Y-6.3095
X14.8154Y-6.3095
T5
X6.2981Y-5.6299
X6.5257Y-5.6299
T6
X7.8994Y-7.3154
X8.2994Y-7.3154
X9.0244Y-8.0654
X9.4244Y-8.0654
X14.6494Y-7.3154
X15.0494Y-7.3154
X15.8681Y-7.3154
X16.2681Y-7.3154
X14.2744Y-8.0654
X14.6744Y-8.0654
X10.7119Y-6.5654
X11.1119Y-6.5654
X13.5244Y-8.0654
X13.9244Y-8.0654
X9.5869Y-5.8154
X9.9869Y-5.8154
X13.4307Y-8.8154
X13.8307Y-8.8154
X12.9619Y-6.5654
X13.3619Y-6.5654
X13.7119Y-6.5654
X14.1119Y-6.5654
X8.2744Y-8.0654
X8.6744Y-8.0654
X10.3494Y-7.1154
X10.3494Y-7.5154
X16.2431Y-8.8154
X16.6431Y-8.8154
X12.0244Y-8.0654
X12.4244Y-8.0654
X6.0369Y-5.6154
X6.0369Y-6.0154
X9.9619Y-6.5654
X10.3619Y-6.5654
X15.6807Y-8.0654
X16.0807Y-8.0654
X8.4619Y-6.5654
X8.8619Y-6.5654
X7.5244Y-8.0654
X7.9244Y-8.0654
X13.8994Y-7.3154
X14.2994Y-7.3154
X7.1494Y-7.3154
X7.5494Y-7.3154
X8.0869Y-5.8154
X8.4869Y-5.8154
X14.3681Y-8.8154
X14.7681Y-8.8154
X16.1494Y-6.5654
X16.5494Y-6.5654
X14.0869Y-5.8154
X14.4869Y-5.8154
X11.2744Y-8.0654
X11.6744Y-8.0654
X10.3369Y-5.8154
X10.7369Y-5.8154
X8.6494Y-7.3154
X9.0494Y-7.3154
X15.4119Y-6.3654
X15.4119Y-6.7654
X6.2244Y-6.3654
X6.2244Y-6.7654
X7.3369Y-5.8154
X7.7369Y-5.8154
X5.9307Y-8.8154
X6.3307Y-8.8154
X11.9307Y-8.8154
X12.3307Y-8.8154
X6.9619Y-6.5654
X7.3619Y-6.5654
X12.5869Y-5.8154
X12.9869Y-5.8154
X9.3994Y-7.3154
X9.7994Y-7.3154
X13.1494Y-7.3154
X13.5494Y-7.3154
X7.8057Y-8.8154
X8.2057Y-8.8154
X6.3057Y-8.0654
X6.7057Y-8.0654
X13.3369Y-5.8154
X13.7369Y-5.8154
X10.4307Y-8.8154
X10.8307Y-8.8154
X6.1181Y-7.3154
X6.5181Y-7.3154
X8.8369Y-5.8154
X9.2369Y-5.8154
X12.2119Y-6.5654
X12.6119Y-6.5654
X11.6494Y-7.3154
X12.0494Y-7.3154
X11.0994Y-7.1154
X11.0994Y-7.5154
X12.7744Y-8.0654
X13.1744Y-8.0654
X11.8369Y-5.8154
X12.2369Y-5.8154
X6.8681Y-8.8154
X7.2681Y-8.8154
X15.9619Y-5.8154
X16.3619Y-5.8154
X14.8369Y-5.8154
X15.2369Y-5.8154
X9.2119Y-6.5654
X9.6119Y-6.5654
X14.4619Y-6.5654
X14.8619Y-6.5654
X9.7744Y-8.0654
X10.1744Y-8.0654
X12.3994Y-7.3154
X12.7994Y-7.3154
X15.3057Y-8.8154
X15.7057Y-8.8154
X6.5869Y-5.8154
X6.9869Y-5.8154
X11.4619Y-6.5654
X11.8619Y-6.5654
X10.5244Y-8.0654
X10.9244Y-8.0654
X9.1181Y-8.8154
X9.5181Y-8.8154
X11.0869Y-5.8154
X11.4869Y-5.8154
X7.7119Y-6.5654
X8.1119Y-6.5654
T7
X7.6244Y-8.2654
X7.8744Y-8.1654
X13.9994Y-7.5154
X14.2494Y-7.4154
X7.2494Y-7.5154
X7.4994Y-7.4154
X8.1869Y-6.0154
X8.4369Y-5.9154
X14.4681Y-9.0154
X14.7181Y-8.9154
X16.2494Y-6.7654
X16.4994Y-6.6654
X14.1869Y-6.0154
X14.4369Y-5.9154
X11.3744Y-8.2654
X11.6244Y-8.1654
X10.4369Y-6.0154
X10.6869Y-5.9154
X8.7494Y-7.5154
X8.9994Y-7.4154
X15.2119Y-6.4654
X15.3119Y-6.7154
X6.0244Y-6.4654
X6.1244Y-6.7154
X7.4369Y-6.0154
X7.6869Y-5.9154
X6.0307Y-9.0154
X6.2807Y-8.9154
X12.0307Y-9.0154
X12.2807Y-8.9154
X7.0619Y-6.7654
X7.3119Y-6.6654
X12.6869Y-6.0154
X12.9369Y-5.9154
X9.4994Y-7.5154
X9.7494Y-7.4154
X13.2494Y-7.5154
X13.4994Y-7.4154
X7.9057Y-9.0154
X8.1557Y-8.9154
X6.4057Y-8.2654
X6.6557Y-8.1654
X13.4369Y-6.0154
X13.6869Y-5.9154
X10.5307Y-9.0154
X10.7807Y-8.9154
X6.2181Y-7.5154
X6.4681Y-7.4154
X8.9369Y-6.0154
X9.1869Y-5.9154
X12.3119Y-6.7654
X12.5619Y-6.6654
X11.7494Y-7.5154
X11.9994Y-7.4154
X11.1994Y-7.1654
X11.2994Y-7.4154
X12.8744Y-8.2654
X13.1244Y-8.1654
X11.9369Y-6.0154
X12.1869Y-5.9154
X6.9681Y-9.0154
X7.2181Y-8.9154
X16.0619Y-6.0154
X16.3119Y-5.9154
X14.9369Y-6.0154
X15.1869Y-5.9154
X9.3119Y-6.7654
X9.5619Y-6.6654
X14.5619Y-6.7654
X14.8119Y-6.6654
X9.8744Y-8.2654
X10.1244Y-8.1654
X12.4994Y-7.5154
X12.7494Y-7.4154
X15.4057Y-9.0154
X15.6557Y-8.9154
X6.6869Y-6.0154
X6.9369Y-5.9154
X11.5619Y-6.7654
X11.8119Y-6.6654
X10.6244Y-8.2654
X10.8744Y-8.1654
X9.2181Y-9.0154
X9.4681Y-8.9154
X11.1869Y-6.0154
X11.4369Y-5.9154
X7.8119Y-6.7654
X8.0619Y-6.6654
X7.9994Y-7.5154
X8.2494Y-7.4154
X9.1244Y-8.2654
X9.3744Y-8.1654
X14.7494Y-7.5154
X14.9994Y-7.4154
X15.9681Y-7.5154
X16.2181Y-7.4154
X14.3744Y-8.2654
X14.6244Y-8.1654
X10.8119Y-6.7654
X11.0619Y-6.6654
X13.6244Y-8.2654
X13.8744Y-8.1654
X9.6869Y-6.0154
X9.9369Y-5.9154
X13.5307Y-9.0154
X13.7807Y-8.9154
X13.0619Y-6.7654
X13.3119Y-6.6654
X13.8119Y-6.7654
X14.0619Y-6.6654
X8.3744Y-8.2654
X8.6244Y-8.1654
X10.1494Y-7.2154
X10.2494Y-7.4654
X16.3431Y-9.0154
X16.5931Y-8.9154
X12.1244Y-8.2654
X12.3744Y-8.1654
X5.8369Y-5.7154
X5.9369Y-5.9654
X10.0619Y-6.7654
X10.3119Y-6.6654
X15.7807Y-8.2654
X16.0307Y-8.1654
X8.5619Y-6.7654
X8.8119Y-6.6654
T8
X15.4107Y-7.7904
X16.3507Y-7.7904
X11.6607Y-9.0904
X12.6007Y-9.0904
X6.0357Y-7.7904
X6.9757Y-7.7904
X15.6919Y-5.5404
X16.6319Y-5.5404
X8.8481Y-9.0904
X9.7881Y-9.0904
X15.5981Y-7.0404
X16.5381Y-7.0404
T9
X13.9119Y-6.5654
X8.4744Y-8.0654
X10.3494Y-7.3154
X16.4431Y-8.8154
X12.2244Y-8.0654
X6.0369Y-5.8154
X10.1619Y-6.5654
X15.4107Y-8.3904
X15.8807Y-8.0654
X16.3507Y-8.3904
X8.6619Y-6.5654
X7.7244Y-8.0654
X14.0994Y-7.3154
X7.3494Y-7.3154
X8.2869Y-5.8154
X14.5681Y-8.8154
X16.3494Y-6.5654
X14.2869Y-5.8154
X11.4744Y-8.0654
X10.5369Y-5.8154
X8.8494Y-7.3154
X15.4119Y-6.5654
X6.2244Y-6.5654
X7.5369Y-5.8154
X6.1307Y-8.8154
X11.6607Y-8.4904
X12.1307Y-8.8154
X12.6007Y-8.4904
X7.1619Y-6.5654
X12.7869Y-5.8154
X9.5994Y-7.3154
X13.3494Y-7.3154
X8.0057Y-8.8154
X6.0357Y-8.3904
X6.5057Y-8.0654
X6.9757Y-8.3904
X13.5369Y-5.8154
X10.6307Y-8.8154
X6.3181Y-7.3154
X9.0369Y-5.8154
X12.4119Y-6.5654
X11.8494Y-7.3154
X11.0994Y-7.3154
X12.9744Y-8.0654
X12.0369Y-5.8154
X7.0681Y-8.8154
X15.6919Y-6.1404
X16.1619Y-5.8154
X16.6319Y-6.1404
X15.0369Y-5.8154
X9.4119Y-6.5654
X14.6619Y-6.5654
X9.9744Y-8.0654
X12.5994Y-7.3154
X15.5057Y-8.8154
X6.7869Y-5.8154
X11.6619Y-6.5654
X10.7244Y-8.0654
X8.8481Y-8.4904
X9.3181Y-8.8154
X9.7881Y-8.4904
X11.2869Y-5.8154
X7.9119Y-6.5654
X8.0994Y-7.3154
X9.2244Y-8.0654
X14.8494Y-7.3154
X15.5981Y-7.6404
X16.0681Y-7.3154
X16.5381Y-7.6404
X14.4744Y-8.0654
X10.9119Y-6.5654
X13.7244Y-8.0654
X9.7869Y-5.8154
X13.6307Y-8.8154
X13.1619Y-6.5654
T3
G00X5.5296Y-7.6776
M15
G01X5.8603Y-7.6776
M16
G05
G00X16.7638Y-7.6778
M15
G01X17.0945Y-7.6778
M16
G05
T4
G00X6.6283Y-6.5517
M15
G01X6.711Y-6.5517
M16
G05
G00X13.1354Y-8.8233
M15
G01X13.2181Y-8.8233
M16
G05
G00X10.6833Y-7.3036
M15
G01X10.7659Y-7.3036
M16
G05
G00X15.8736Y-6.5654
M15
G01X15.9563Y-6.5654
M16
G05
T0
M30
